solid OpenSCAD_Model
  facet normal -0.991445 -0.130525 -2.80854e-16
    outer loop
      vertex 52 15 120
      vertex 52 15 108.067
      vertex 52.1022 14.2235 120
    endloop
  endfacet
  facet normal -0.991445 -0.130525 -2.80854e-16
    outer loop
      vertex 52.1022 14.2235 120
      vertex 52 15 108.067
      vertex 52.1022 14.2235 108.067
    endloop
  endfacet
  facet normal -1 0 -2.83277e-16
    outer loop
      vertex 52 15 120
      vertex 52 19.2 120
      vertex 52 15 108.067
    endloop
  endfacet
  facet normal -1 0 -2.83277e-16
    outer loop
      vertex 52 15 108.067
      vertex 52 19.2 120
      vertex 52 19.2 108.067
    endloop
  endfacet
  facet normal -2.83277e-16 0 1
    outer loop
      vertex 52 19.2 120
      vertex 52 15 120
      vertex 52.1022 14.2235 120
    endloop
  endfacet
  facet normal -2.83277e-16 0 1
    outer loop
      vertex 52.8787 12.8787 120
      vertex 52 19.2 120
      vertex 52.4019 13.5 120
    endloop
  endfacet
  facet normal -2.83277e-16 0 1
    outer loop
      vertex 52.4019 13.5 120
      vertex 52 19.2 120
      vertex 52.1022 14.2235 120
    endloop
  endfacet
  facet normal -2.83277e-16 0 1
    outer loop
      vertex 53.5 12.4019 120
      vertex 52 19.2 120
      vertex 52.8787 12.8787 120
    endloop
  endfacet
  facet normal -2.83277e-16 0 1
    outer loop
      vertex 54.2235 12.1022 120
      vertex 52 19.2 120
      vertex 53.5 12.4019 120
    endloop
  endfacet
  facet normal -2.83277e-16 0 1
    outer loop
      vertex 55 12 120
      vertex 52 19.2 120
      vertex 54.2235 12.1022 120
    endloop
  endfacet
  facet normal -2.83277e-16 0 1
    outer loop
      vertex 55.7765 12.1022 120
      vertex 52 19.2 120
      vertex 55 12 120
    endloop
  endfacet
  facet normal -2.83277e-16 0 1
    outer loop
      vertex 56.5 12.4019 120
      vertex 52 19.2 120
      vertex 55.7765 12.1022 120
    endloop
  endfacet
  facet normal -2.83277e-16 0 1
    outer loop
      vertex 57.1213 12.8787 120
      vertex 52 19.2 120
      vertex 56.5 12.4019 120
    endloop
  endfacet
  facet normal -2.83277e-16 0 1
    outer loop
      vertex 57.5981 13.5 120
      vertex 52 19.2 120
      vertex 57.1213 12.8787 120
    endloop
  endfacet
  facet normal -2.83277e-16 0 1
    outer loop
      vertex 57.8978 14.2235 120
      vertex 52 19.2 120
      vertex 57.5981 13.5 120
    endloop
  endfacet
  facet normal -2.83277e-16 0 1
    outer loop
      vertex 58 15 120
      vertex 52 19.2 120
      vertex 57.8978 14.2235 120
    endloop
  endfacet
  facet normal -2.83277e-16 0 1
    outer loop
      vertex 58 19.2 120
      vertex 52 19.2 120
      vertex 58 15 120
    endloop
  endfacet
  facet normal -0.923879 -0.382685 -2.61714e-16
    outer loop
      vertex 52.1022 14.2235 120
      vertex 52.1022 14.2235 108.067
      vertex 52.4019 13.5 120
    endloop
  endfacet
  facet normal -0.923879 -0.382685 -2.61714e-16
    outer loop
      vertex 52.4019 13.5 120
      vertex 52.1022 14.2235 108.067
      vertex 52.4019 13.5 108.067
    endloop
  endfacet
  facet normal 2.83277e-16 0 -1
    outer loop
      vertex 52.1151 14.227 108.067
      vertex 52.1022 14.2235 108.067
      vertex 52.0133 15 108.067
    endloop
  endfacet
  facet normal 2.83277e-16 0 -1
    outer loop
      vertex 55.773 17.8849 108.067
      vertex 52 19.2 108.067
      vertex 58 19.2 108.067
    endloop
  endfacet
  facet normal 2.83277e-16 0 -1
    outer loop
      vertex 55.773 17.8849 108.067
      vertex 58 19.2 108.067
      vertex 56.4933 17.5865 108.067
    endloop
  endfacet
  facet normal 2.83277e-16 0 -1
    outer loop
      vertex 57.9867 15 108.067
      vertex 58 19.2 108.067
      vertex 58 15 108.067
    endloop
  endfacet
  facet normal 2.83277e-16 0 -1
    outer loop
      vertex 57.8849 14.227 108.067
      vertex 58 15 108.067
      vertex 57.8978 14.2235 108.067
    endloop
  endfacet
  facet normal 2.83277e-16 0 -1
    outer loop
      vertex 57.5865 13.5067 108.067
      vertex 57.8978 14.2235 108.067
      vertex 57.5981 13.5 108.067
    endloop
  endfacet
  facet normal 2.83277e-16 0 -1
    outer loop
      vertex 57.1119 12.8881 108.067
      vertex 57.5981 13.5 108.067
      vertex 57.1213 12.8787 108.067
    endloop
  endfacet
  facet normal 2.83277e-16 0 -1
    outer loop
      vertex 56.4933 12.4135 108.067
      vertex 57.1213 12.8787 108.067
      vertex 56.5 12.4019 108.067
    endloop
  endfacet
  facet normal 2.83277e-16 0 -1
    outer loop
      vertex 55.773 12.1151 108.067
      vertex 56.5 12.4019 108.067
      vertex 55.7765 12.1022 108.067
    endloop
  endfacet
  facet normal 2.83277e-16 0 -1
    outer loop
      vertex 55 12.0133 108.067
      vertex 55.7765 12.1022 108.067
      vertex 55 12 108.067
    endloop
  endfacet
  facet normal 2.83277e-16 0 -1
    outer loop
      vertex 54.227 12.1151 108.067
      vertex 55 12 108.067
      vertex 54.2235 12.1022 108.067
    endloop
  endfacet
  facet normal 2.83277e-16 0 -1
    outer loop
      vertex 53.5067 12.4135 108.067
      vertex 54.2235 12.1022 108.067
      vertex 53.5 12.4019 108.067
    endloop
  endfacet
  facet normal 2.83277e-16 0 -1
    outer loop
      vertex 52.8881 12.8881 108.067
      vertex 53.5 12.4019 108.067
      vertex 52.8787 12.8787 108.067
    endloop
  endfacet
  facet normal 2.83277e-16 0 -1
    outer loop
      vertex 52.4135 13.5067 108.067
      vertex 52.8787 12.8787 108.067
      vertex 52.4019 13.5 108.067
    endloop
  endfacet
  facet normal 2.83277e-16 0 -1
    outer loop
      vertex 52 15 108.067
      vertex 52 19.2 108.067
      vertex 52.0133 15 108.067
    endloop
  endfacet
  facet normal 2.83277e-16 0 -1
    outer loop
      vertex 52 15 108.067
      vertex 52.0133 15 108.067
      vertex 52.1022 14.2235 108.067
    endloop
  endfacet
  facet normal 2.83277e-16 0 -1
    outer loop
      vertex 52.4135 13.5067 108.067
      vertex 52.1022 14.2235 108.067
      vertex 52.1151 14.227 108.067
    endloop
  endfacet
  facet normal 2.83277e-16 0 -1
    outer loop
      vertex 52.8881 12.8881 108.067
      vertex 52.8787 12.8787 108.067
      vertex 52.4135 13.5067 108.067
    endloop
  endfacet
  facet normal 2.83277e-16 0 -1
    outer loop
      vertex 52.1022 14.2235 108.067
      vertex 52.4135 13.5067 108.067
      vertex 52.4019 13.5 108.067
    endloop
  endfacet
  facet normal 2.83277e-16 0 -1
    outer loop
      vertex 57.8849 15.773 108.067
      vertex 58 19.2 108.067
      vertex 57.9867 15 108.067
    endloop
  endfacet
  facet normal 2.83277e-16 0 -1
    outer loop
      vertex 57.5865 16.4933 108.067
      vertex 58 19.2 108.067
      vertex 57.8849 15.773 108.067
    endloop
  endfacet
  facet normal 2.83277e-16 0 -1
    outer loop
      vertex 57.1119 17.1119 108.067
      vertex 58 19.2 108.067
      vertex 57.5865 16.4933 108.067
    endloop
  endfacet
  facet normal 2.83277e-16 0 -1
    outer loop
      vertex 56.4933 17.5865 108.067
      vertex 58 19.2 108.067
      vertex 57.1119 17.1119 108.067
    endloop
  endfacet
  facet normal 2.83277e-16 0 -1
    outer loop
      vertex 55 17.9867 108.067
      vertex 52 19.2 108.067
      vertex 55.773 17.8849 108.067
    endloop
  endfacet
  facet normal 2.83277e-16 0 -1
    outer loop
      vertex 57.9867 15 108.067
      vertex 58 15 108.067
      vertex 57.8849 14.227 108.067
    endloop
  endfacet
  facet normal 2.83277e-16 0 -1
    outer loop
      vertex 54.227 17.8849 108.067
      vertex 52 19.2 108.067
      vertex 55 17.9867 108.067
    endloop
  endfacet
  facet normal 2.83277e-16 0 -1
    outer loop
      vertex 53.5067 17.5865 108.067
      vertex 52 19.2 108.067
      vertex 54.227 17.8849 108.067
    endloop
  endfacet
  facet normal 2.83277e-16 0 -1
    outer loop
      vertex 57.8849 14.227 108.067
      vertex 57.8978 14.2235 108.067
      vertex 57.5865 13.5067 108.067
    endloop
  endfacet
  facet normal 2.83277e-16 0 -1
    outer loop
      vertex 52.8881 17.1119 108.067
      vertex 52 19.2 108.067
      vertex 53.5067 17.5865 108.067
    endloop
  endfacet
  facet normal 2.83277e-16 0 -1
    outer loop
      vertex 52.4135 16.4933 108.067
      vertex 52 19.2 108.067
      vertex 52.8881 17.1119 108.067
    endloop
  endfacet
  facet normal 2.83277e-16 0 -1
    outer loop
      vertex 57.5865 13.5067 108.067
      vertex 57.5981 13.5 108.067
      vertex 57.1119 12.8881 108.067
    endloop
  endfacet
  facet normal 2.83277e-16 0 -1
    outer loop
      vertex 52.1151 15.773 108.067
      vertex 52 19.2 108.067
      vertex 52.4135 16.4933 108.067
    endloop
  endfacet
  facet normal 2.83277e-16 0 -1
    outer loop
      vertex 57.1119 12.8881 108.067
      vertex 57.1213 12.8787 108.067
      vertex 56.4933 12.4135 108.067
    endloop
  endfacet
  facet normal 2.83277e-16 0 -1
    outer loop
      vertex 52.0133 15 108.067
      vertex 52 19.2 108.067
      vertex 52.1151 15.773 108.067
    endloop
  endfacet
  facet normal 2.83277e-16 0 -1
    outer loop
      vertex 56.4933 12.4135 108.067
      vertex 56.5 12.4019 108.067
      vertex 55.773 12.1151 108.067
    endloop
  endfacet
  facet normal 2.83277e-16 0 -1
    outer loop
      vertex 55.773 12.1151 108.067
      vertex 55.7765 12.1022 108.067
      vertex 55 12.0133 108.067
    endloop
  endfacet
  facet normal 2.83277e-16 0 -1
    outer loop
      vertex 55 12.0133 108.067
      vertex 55 12 108.067
      vertex 54.227 12.1151 108.067
    endloop
  endfacet
  facet normal 2.83277e-16 0 -1
    outer loop
      vertex 54.227 12.1151 108.067
      vertex 54.2235 12.1022 108.067
      vertex 53.5067 12.4135 108.067
    endloop
  endfacet
  facet normal 2.83277e-16 0 -1
    outer loop
      vertex 53.5067 12.4135 108.067
      vertex 53.5 12.4019 108.067
      vertex 52.8881 12.8881 108.067
    endloop
  endfacet
  facet normal 0 -1 0
    outer loop
      vertex 52 19.2 108.067
      vertex 52 19.2 80
      vertex 52 19.2 91.9333
    endloop
  endfacet
  facet normal 0 -1 0
    outer loop
      vertex 58 19.2 91.9333
      vertex 58 19.2 108.067
      vertex 52 19.2 91.9333
    endloop
  endfacet
  facet normal 0 -1 0
    outer loop
      vertex 58 19.2 108.067
      vertex 52 19.2 108.067
      vertex 52 19.2 91.9333
    endloop
  endfacet
  facet normal 0 -1 0
    outer loop
      vertex 52 19.2 108.067
      vertex 52 19.2 120
      vertex 52 19.2 80
    endloop
  endfacet
  facet normal -1 0 -2.22045e-16
    outer loop
      vertex 52 19.2 120
      vertex 52 27.2 120
      vertex 52 19.2 80
    endloop
  endfacet
  facet normal -1 0 -2.22045e-16
    outer loop
      vertex 52 19.2 80
      vertex 52 27.2 120
      vertex 52 27.2 80
    endloop
  endfacet
  facet normal -2.22045e-16 0 1
    outer loop
      vertex 52 27.2 120
      vertex 52 19.2 120
      vertex 58 19.2 120
    endloop
  endfacet
  facet normal -2.22045e-16 0 1
    outer loop
      vertex 58 27.2 120
      vertex 52 27.2 120
      vertex 58 19.2 120
    endloop
  endfacet
  facet normal 1 0 2.83277e-16
    outer loop
      vertex 58 19.2 120
      vertex 58 15 120
      vertex 58 15 108.067
    endloop
  endfacet
  facet normal 1 0 2.83277e-16
    outer loop
      vertex 58 19.2 108.067
      vertex 58 19.2 120
      vertex 58 15 108.067
    endloop
  endfacet
  facet normal 0.991445 -0.130525 2.80854e-16
    outer loop
      vertex 58 15 120
      vertex 57.8978 14.2235 120
      vertex 57.8978 14.2235 108.067
    endloop
  endfacet
  facet normal 0.991445 -0.130525 2.80854e-16
    outer loop
      vertex 58 15 108.067
      vertex 58 15 120
      vertex 57.8978 14.2235 108.067
    endloop
  endfacet
  facet normal 0.923879 -0.382685 2.61714e-16
    outer loop
      vertex 57.8978 14.2235 120
      vertex 57.5981 13.5 120
      vertex 57.5981 13.5 108.067
    endloop
  endfacet
  facet normal 0.923879 -0.382685 2.61714e-16
    outer loop
      vertex 57.8978 14.2235 108.067
      vertex 57.8978 14.2235 120
      vertex 57.5981 13.5 108.067
    endloop
  endfacet
  facet normal 0.793353 -0.608762 2.24739e-16
    outer loop
      vertex 57.5981 13.5 120
      vertex 57.1213 12.8787 120
      vertex 57.1213 12.8787 108.067
    endloop
  endfacet
  facet normal 0.793353 -0.608762 2.24739e-16
    outer loop
      vertex 57.5981 13.5 108.067
      vertex 57.5981 13.5 120
      vertex 57.1213 12.8787 108.067
    endloop
  endfacet
  facet normal 0.608762 -0.793353 1.72448e-16
    outer loop
      vertex 57.1213 12.8787 120
      vertex 56.5 12.4019 120
      vertex 56.5 12.4019 108.067
    endloop
  endfacet
  facet normal 0.608762 -0.793353 1.72448e-16
    outer loop
      vertex 57.1213 12.8787 108.067
      vertex 57.1213 12.8787 120
      vertex 56.5 12.4019 108.067
    endloop
  endfacet
  facet normal 0.382685 -0.923879 1.08406e-16
    outer loop
      vertex 56.5 12.4019 120
      vertex 55.7765 12.1022 120
      vertex 55.7765 12.1022 108.067
    endloop
  endfacet
  facet normal 0.382685 -0.923879 1.08406e-16
    outer loop
      vertex 56.5 12.4019 108.067
      vertex 56.5 12.4019 120
      vertex 55.7765 12.1022 108.067
    endloop
  endfacet
  facet normal 0.130525 -0.991445 3.69748e-17
    outer loop
      vertex 55.7765 12.1022 120
      vertex 55 12 120
      vertex 55 12 108.067
    endloop
  endfacet
  facet normal 0.130525 -0.991445 3.69748e-17
    outer loop
      vertex 55.7765 12.1022 108.067
      vertex 55.7765 12.1022 120
      vertex 55 12 108.067
    endloop
  endfacet
  facet normal -0.130525 -0.991445 -3.69748e-17
    outer loop
      vertex 55 12 120
      vertex 54.2235 12.1022 120
      vertex 54.2235 12.1022 108.067
    endloop
  endfacet
  facet normal -0.130525 -0.991445 -3.69748e-17
    outer loop
      vertex 55 12 108.067
      vertex 55 12 120
      vertex 54.2235 12.1022 108.067
    endloop
  endfacet
  facet normal -0.382685 -0.923879 -1.08406e-16
    outer loop
      vertex 54.2235 12.1022 120
      vertex 53.5 12.4019 120
      vertex 53.5 12.4019 108.067
    endloop
  endfacet
  facet normal -0.382685 -0.923879 -1.08406e-16
    outer loop
      vertex 54.2235 12.1022 108.067
      vertex 54.2235 12.1022 120
      vertex 53.5 12.4019 108.067
    endloop
  endfacet
  facet normal -0.608762 -0.793353 -1.72448e-16
    outer loop
      vertex 53.5 12.4019 120
      vertex 52.8787 12.8787 120
      vertex 52.8787 12.8787 108.067
    endloop
  endfacet
  facet normal -0.608762 -0.793353 -1.72448e-16
    outer loop
      vertex 53.5 12.4019 108.067
      vertex 53.5 12.4019 120
      vertex 52.8787 12.8787 108.067
    endloop
  endfacet
  facet normal -0.793353 -0.608762 -2.24739e-16
    outer loop
      vertex 52.4019 13.5 120
      vertex 52.4019 13.5 108.067
      vertex 52.8787 12.8787 120
    endloop
  endfacet
  facet normal -0.793353 -0.608762 -2.24739e-16
    outer loop
      vertex 52.8787 12.8787 120
      vertex 52.4019 13.5 108.067
      vertex 52.8787 12.8787 108.067
    endloop
  endfacet
  facet normal 1 0 2.22045e-16
    outer loop
      vertex 58 27.2 120
      vertex 58 19.2 120
      vertex 58 19.2 108.067
    endloop
  endfacet
  facet normal 1 0 2.22045e-16
    outer loop
      vertex 58 19.2 80
      vertex 58 27.2 120
      vertex 58 19.2 91.9333
    endloop
  endfacet
  facet normal 1 0 2.22045e-16
    outer loop
      vertex 58 19.2 91.9333
      vertex 58 27.2 120
      vertex 58 19.2 108.067
    endloop
  endfacet
  facet normal 1 0 2.22045e-16
    outer loop
      vertex 58 27.2 80
      vertex 58 27.2 120
      vertex 58 19.2 80
    endloop
  endfacet
  facet normal 0.827103 -0.108889 -0.551402
    outer loop
      vertex 52.1151 15.773 108.067
      vertex 55 15 112.547
      vertex 52.0133 15 108.067
    endloop
  endfacet
  facet normal 0.827103 0.108889 -0.551402
    outer loop
      vertex 55 15 112.547
      vertex 52.1151 14.227 108.067
      vertex 52.0133 15 108.067
    endloop
  endfacet
  facet normal 0.770737 -0.319251 -0.551402
    outer loop
      vertex 52.4135 16.4933 108.067
      vertex 55 15 112.547
      vertex 52.1151 15.773 108.067
    endloop
  endfacet
  facet normal 0.661847 -0.507853 -0.551402
    outer loop
      vertex 52.8881 17.1119 108.067
      vertex 55 15 112.547
      vertex 52.4135 16.4933 108.067
    endloop
  endfacet
  facet normal 0.507853 -0.661847 -0.551402
    outer loop
      vertex 53.5067 17.5865 108.067
      vertex 55 15 112.547
      vertex 52.8881 17.1119 108.067
    endloop
  endfacet
  facet normal 0.319251 -0.770737 -0.551402
    outer loop
      vertex 54.227 17.8849 108.067
      vertex 55 15 112.547
      vertex 53.5067 17.5865 108.067
    endloop
  endfacet
  facet normal 0.108889 -0.827103 -0.551402
    outer loop
      vertex 55 17.9867 108.067
      vertex 55 15 112.547
      vertex 54.227 17.8849 108.067
    endloop
  endfacet
  facet normal -0.108889 -0.827103 -0.551402
    outer loop
      vertex 55 17.9867 108.067
      vertex 55.773 17.8849 108.067
      vertex 55 15 112.547
    endloop
  endfacet
  facet normal -0.319251 -0.770737 -0.551402
    outer loop
      vertex 55.773 17.8849 108.067
      vertex 56.4933 17.5865 108.067
      vertex 55 15 112.547
    endloop
  endfacet
  facet normal -0.507853 -0.661847 -0.551402
    outer loop
      vertex 56.4933 17.5865 108.067
      vertex 57.1119 17.1119 108.067
      vertex 55 15 112.547
    endloop
  endfacet
  facet normal -0.661847 -0.507853 -0.551402
    outer loop
      vertex 57.1119 17.1119 108.067
      vertex 57.5865 16.4933 108.067
      vertex 55 15 112.547
    endloop
  endfacet
  facet normal -0.770737 -0.319251 -0.551402
    outer loop
      vertex 57.5865 16.4933 108.067
      vertex 57.8849 15.773 108.067
      vertex 55 15 112.547
    endloop
  endfacet
  facet normal -0.827103 -0.108889 -0.551402
    outer loop
      vertex 57.8849 15.773 108.067
      vertex 57.9867 15 108.067
      vertex 55 15 112.547
    endloop
  endfacet
  facet normal -0.827103 0.108889 -0.551402
    outer loop
      vertex 57.9867 15 108.067
      vertex 57.8849 14.227 108.067
      vertex 55 15 112.547
    endloop
  endfacet
  facet normal -0.770737 0.319251 -0.551402
    outer loop
      vertex 57.8849 14.227 108.067
      vertex 57.5865 13.5067 108.067
      vertex 55 15 112.547
    endloop
  endfacet
  facet normal -0.661847 0.507853 -0.551402
    outer loop
      vertex 57.5865 13.5067 108.067
      vertex 57.1119 12.8881 108.067
      vertex 55 15 112.547
    endloop
  endfacet
  facet normal -0.507853 0.661847 -0.551402
    outer loop
      vertex 57.1119 12.8881 108.067
      vertex 56.4933 12.4135 108.067
      vertex 55 15 112.547
    endloop
  endfacet
  facet normal -0.319251 0.770737 -0.551402
    outer loop
      vertex 56.4933 12.4135 108.067
      vertex 55.773 12.1151 108.067
      vertex 55 15 112.547
    endloop
  endfacet
  facet normal -0.108889 0.827103 -0.551402
    outer loop
      vertex 55.773 12.1151 108.067
      vertex 55 12.0133 108.067
      vertex 55 15 112.547
    endloop
  endfacet
  facet normal 0.108889 0.827103 -0.551402
    outer loop
      vertex 55 15 112.547
      vertex 55 12.0133 108.067
      vertex 54.227 12.1151 108.067
    endloop
  endfacet
  facet normal 0.319251 0.770737 -0.551402
    outer loop
      vertex 55 15 112.547
      vertex 54.227 12.1151 108.067
      vertex 53.5067 12.4135 108.067
    endloop
  endfacet
  facet normal 0.507853 0.661847 -0.551402
    outer loop
      vertex 55 15 112.547
      vertex 53.5067 12.4135 108.067
      vertex 52.8881 12.8881 108.067
    endloop
  endfacet
  facet normal 0.661847 0.507853 -0.551402
    outer loop
      vertex 55 15 112.547
      vertex 52.8881 12.8881 108.067
      vertex 52.4135 13.5067 108.067
    endloop
  endfacet
  facet normal 0.770737 0.319251 -0.551402
    outer loop
      vertex 55 15 112.547
      vertex 52.4135 13.5067 108.067
      vertex 52.1151 14.227 108.067
    endloop
  endfacet
  facet normal 2.22045e-16 0 -1
    outer loop
      vertex 52 19.2 80
      vertex 52 27.2 80
      vertex 58 27.2 80
    endloop
  endfacet
  facet normal 2.22045e-16 0 -1
    outer loop
      vertex 52 19.2 80
      vertex 58 27.2 80
      vertex 58 19.2 80
    endloop
  endfacet
  facet normal -2.83277e-16 0 1
    outer loop
      vertex 52.0133 15 91.9333
      vertex 52 15 91.9333
      vertex 52.1022 14.2235 91.9333
    endloop
  endfacet
  facet normal -2.83277e-16 0 1
    outer loop
      vertex 52.1151 15.773 91.9333
      vertex 52.4135 16.4933 91.9333
      vertex 52 19.2 91.9333
    endloop
  endfacet
  facet normal -2.83277e-16 0 1
    outer loop
      vertex 52.0133 15 91.9333
      vertex 52.1151 15.773 91.9333
      vertex 52 19.2 91.9333
    endloop
  endfacet
  facet normal -2.83277e-16 0 1
    outer loop
      vertex 53.5067 12.4135 91.9333
      vertex 52.8881 12.8881 91.9333
      vertex 53.5 12.4019 91.9333
    endloop
  endfacet
  facet normal -2.83277e-16 0 1
    outer loop
      vertex 56.4933 12.4135 91.9333
      vertex 55.773 12.1151 91.9333
      vertex 56.5 12.4019 91.9333
    endloop
  endfacet
  facet normal -2.83277e-16 0 1
    outer loop
      vertex 53.5067 17.5865 91.9333
      vertex 54.227 17.8849 91.9333
      vertex 52 19.2 91.9333
    endloop
  endfacet
  facet normal -2.83277e-16 0 1
    outer loop
      vertex 55.773 12.1151 91.9333
      vertex 55 12.0133 91.9333
      vertex 55.7765 12.1022 91.9333
    endloop
  endfacet
  facet normal -2.83277e-16 0 1
    outer loop
      vertex 52.4019 13.5 91.9333
      vertex 52.1151 14.227 91.9333
      vertex 52.1022 14.2235 91.9333
    endloop
  endfacet
  facet normal -2.83277e-16 0 1
    outer loop
      vertex 52 19.2 91.9333
      vertex 52 15 91.9333
      vertex 52.0133 15 91.9333
    endloop
  endfacet
  facet normal -2.83277e-16 0 1
    outer loop
      vertex 52.1151 14.227 91.9333
      vertex 52.0133 15 91.9333
      vertex 52.1022 14.2235 91.9333
    endloop
  endfacet
  facet normal -2.83277e-16 0 1
    outer loop
      vertex 55 12.0133 91.9333
      vertex 54.227 12.1151 91.9333
      vertex 55 12 91.9333
    endloop
  endfacet
  facet normal -2.83277e-16 0 1
    outer loop
      vertex 54.227 12.1151 91.9333
      vertex 53.5067 12.4135 91.9333
      vertex 54.2235 12.1022 91.9333
    endloop
  endfacet
  facet normal -2.83277e-16 0 1
    outer loop
      vertex 57.8849 15.773 91.9333
      vertex 57.9867 15 91.9333
      vertex 58 15 91.9333
    endloop
  endfacet
  facet normal -2.83277e-16 0 1
    outer loop
      vertex 57.9867 15 91.9333
      vertex 57.8849 14.227 91.9333
      vertex 57.8978 14.2235 91.9333
    endloop
  endfacet
  facet normal -2.83277e-16 0 1
    outer loop
      vertex 58 19.2 91.9333
      vertex 52 19.2 91.9333
      vertex 54.227 17.8849 91.9333
    endloop
  endfacet
  facet normal -2.83277e-16 0 1
    outer loop
      vertex 57.8849 14.227 91.9333
      vertex 57.5865 13.5067 91.9333
      vertex 57.5981 13.5 91.9333
    endloop
  endfacet
  facet normal -2.83277e-16 0 1
    outer loop
      vertex 58 19.2 91.9333
      vertex 54.227 17.8849 91.9333
      vertex 55 17.9867 91.9333
    endloop
  endfacet
  facet normal -2.83277e-16 0 1
    outer loop
      vertex 58 19.2 91.9333
      vertex 55 17.9867 91.9333
      vertex 55.773 17.8849 91.9333
    endloop
  endfacet
  facet normal -2.83277e-16 0 1
    outer loop
      vertex 58 19.2 91.9333
      vertex 55.773 17.8849 91.9333
      vertex 56.4933 17.5865 91.9333
    endloop
  endfacet
  facet normal -2.83277e-16 0 1
    outer loop
      vertex 58 19.2 91.9333
      vertex 56.4933 17.5865 91.9333
      vertex 57.1119 17.1119 91.9333
    endloop
  endfacet
  facet normal -2.83277e-16 0 1
    outer loop
      vertex 58 19.2 91.9333
      vertex 57.1119 17.1119 91.9333
      vertex 57.5865 16.4933 91.9333
    endloop
  endfacet
  facet normal -2.83277e-16 0 1
    outer loop
      vertex 58 19.2 91.9333
      vertex 57.8849 15.773 91.9333
      vertex 58 15 91.9333
    endloop
  endfacet
  facet normal -2.83277e-16 0 1
    outer loop
      vertex 58 19.2 91.9333
      vertex 57.5865 16.4933 91.9333
      vertex 57.8849 15.773 91.9333
    endloop
  endfacet
  facet normal -2.83277e-16 0 1
    outer loop
      vertex 58 15 91.9333
      vertex 57.9867 15 91.9333
      vertex 57.8978 14.2235 91.9333
    endloop
  endfacet
  facet normal -2.83277e-16 0 1
    outer loop
      vertex 57.8978 14.2235 91.9333
      vertex 57.8849 14.227 91.9333
      vertex 57.5981 13.5 91.9333
    endloop
  endfacet
  facet normal -2.83277e-16 0 1
    outer loop
      vertex 57.5981 13.5 91.9333
      vertex 57.5865 13.5067 91.9333
      vertex 57.1213 12.8787 91.9333
    endloop
  endfacet
  facet normal -2.83277e-16 0 1
    outer loop
      vertex 57.1213 12.8787 91.9333
      vertex 57.1119 12.8881 91.9333
      vertex 56.5 12.4019 91.9333
    endloop
  endfacet
  facet normal -2.83277e-16 0 1
    outer loop
      vertex 57.1119 12.8881 91.9333
      vertex 56.4933 12.4135 91.9333
      vertex 56.5 12.4019 91.9333
    endloop
  endfacet
  facet normal -2.83277e-16 0 1
    outer loop
      vertex 56.5 12.4019 91.9333
      vertex 55.773 12.1151 91.9333
      vertex 55.7765 12.1022 91.9333
    endloop
  endfacet
  facet normal -2.83277e-16 0 1
    outer loop
      vertex 57.5865 13.5067 91.9333
      vertex 57.1119 12.8881 91.9333
      vertex 57.1213 12.8787 91.9333
    endloop
  endfacet
  facet normal -2.83277e-16 0 1
    outer loop
      vertex 55.7765 12.1022 91.9333
      vertex 55 12.0133 91.9333
      vertex 55 12 91.9333
    endloop
  endfacet
  facet normal -2.83277e-16 0 1
    outer loop
      vertex 55 12 91.9333
      vertex 54.227 12.1151 91.9333
      vertex 54.2235 12.1022 91.9333
    endloop
  endfacet
  facet normal -2.83277e-16 0 1
    outer loop
      vertex 54.2235 12.1022 91.9333
      vertex 53.5067 12.4135 91.9333
      vertex 53.5 12.4019 91.9333
    endloop
  endfacet
  facet normal -2.83277e-16 0 1
    outer loop
      vertex 53.5 12.4019 91.9333
      vertex 52.8881 12.8881 91.9333
      vertex 52.8787 12.8787 91.9333
    endloop
  endfacet
  facet normal -2.83277e-16 0 1
    outer loop
      vertex 52.8787 12.8787 91.9333
      vertex 52.4135 13.5067 91.9333
      vertex 52.4019 13.5 91.9333
    endloop
  endfacet
  facet normal -2.83277e-16 0 1
    outer loop
      vertex 52.4135 13.5067 91.9333
      vertex 52.1151 14.227 91.9333
      vertex 52.4019 13.5 91.9333
    endloop
  endfacet
  facet normal -2.83277e-16 0 1
    outer loop
      vertex 52.8881 12.8881 91.9333
      vertex 52.4135 13.5067 91.9333
      vertex 52.8787 12.8787 91.9333
    endloop
  endfacet
  facet normal -2.83277e-16 0 1
    outer loop
      vertex 52.4135 16.4933 91.9333
      vertex 52.8881 17.1119 91.9333
      vertex 52 19.2 91.9333
    endloop
  endfacet
  facet normal -2.83277e-16 0 1
    outer loop
      vertex 52.8881 17.1119 91.9333
      vertex 53.5067 17.5865 91.9333
      vertex 52 19.2 91.9333
    endloop
  endfacet
  facet normal -1 0 -2.83277e-16
    outer loop
      vertex 52 15 91.9333
      vertex 52 19.2 91.9333
      vertex 52 15 80
    endloop
  endfacet
  facet normal -1 0 -2.83277e-16
    outer loop
      vertex 52 15 80
      vertex 52 19.2 91.9333
      vertex 52 19.2 80
    endloop
  endfacet
  facet normal 0 1 0
    outer loop
      vertex 52 27.2 120
      vertex 58 27.2 120
      vertex 52 27.2 80
    endloop
  endfacet
  facet normal 0 1 0
    outer loop
      vertex 52 27.2 80
      vertex 58 27.2 120
      vertex 58 27.2 80
    endloop
  endfacet
  facet normal 1 0 2.83277e-16
    outer loop
      vertex 58 19.2 91.9333
      vertex 58 15 91.9333
      vertex 58 15 80
    endloop
  endfacet
  facet normal 1 0 2.83277e-16
    outer loop
      vertex 58 19.2 80
      vertex 58 19.2 91.9333
      vertex 58 15 80
    endloop
  endfacet
  facet normal 0.991445 -0.130525 2.80854e-16
    outer loop
      vertex 58 15 91.9333
      vertex 57.8978 14.2235 91.9333
      vertex 57.8978 14.2235 80
    endloop
  endfacet
  facet normal 0.991445 -0.130525 2.80854e-16
    outer loop
      vertex 58 15 80
      vertex 58 15 91.9333
      vertex 57.8978 14.2235 80
    endloop
  endfacet
  facet normal 0.923879 -0.382685 2.61714e-16
    outer loop
      vertex 57.8978 14.2235 91.9333
      vertex 57.5981 13.5 91.9333
      vertex 57.5981 13.5 80
    endloop
  endfacet
  facet normal 0.923879 -0.382685 2.61714e-16
    outer loop
      vertex 57.8978 14.2235 80
      vertex 57.8978 14.2235 91.9333
      vertex 57.5981 13.5 80
    endloop
  endfacet
  facet normal 0.793353 -0.608762 2.24739e-16
    outer loop
      vertex 57.5981 13.5 91.9333
      vertex 57.1213 12.8787 91.9333
      vertex 57.1213 12.8787 80
    endloop
  endfacet
  facet normal 0.793353 -0.608762 2.24739e-16
    outer loop
      vertex 57.5981 13.5 80
      vertex 57.5981 13.5 91.9333
      vertex 57.1213 12.8787 80
    endloop
  endfacet
  facet normal 0.608762 -0.793353 1.72448e-16
    outer loop
      vertex 57.1213 12.8787 91.9333
      vertex 56.5 12.4019 91.9333
      vertex 56.5 12.4019 80
    endloop
  endfacet
  facet normal 0.608762 -0.793353 1.72448e-16
    outer loop
      vertex 57.1213 12.8787 80
      vertex 57.1213 12.8787 91.9333
      vertex 56.5 12.4019 80
    endloop
  endfacet
  facet normal 0.382685 -0.923879 1.08406e-16
    outer loop
      vertex 56.5 12.4019 91.9333
      vertex 55.7765 12.1022 91.9333
      vertex 55.7765 12.1022 80
    endloop
  endfacet
  facet normal 0.382685 -0.923879 1.08406e-16
    outer loop
      vertex 56.5 12.4019 80
      vertex 56.5 12.4019 91.9333
      vertex 55.7765 12.1022 80
    endloop
  endfacet
  facet normal 0.130525 -0.991445 3.69748e-17
    outer loop
      vertex 55.7765 12.1022 91.9333
      vertex 55 12 91.9333
      vertex 55 12 80
    endloop
  endfacet
  facet normal 0.130525 -0.991445 3.69748e-17
    outer loop
      vertex 55.7765 12.1022 80
      vertex 55.7765 12.1022 91.9333
      vertex 55 12 80
    endloop
  endfacet
  facet normal -0.130525 -0.991445 -3.69748e-17
    outer loop
      vertex 55 12 91.9333
      vertex 54.2235 12.1022 91.9333
      vertex 54.2235 12.1022 80
    endloop
  endfacet
  facet normal -0.130525 -0.991445 -3.69748e-17
    outer loop
      vertex 55 12 80
      vertex 55 12 91.9333
      vertex 54.2235 12.1022 80
    endloop
  endfacet
  facet normal -0.382685 -0.923879 -1.08406e-16
    outer loop
      vertex 54.2235 12.1022 91.9333
      vertex 53.5 12.4019 91.9333
      vertex 53.5 12.4019 80
    endloop
  endfacet
  facet normal -0.382685 -0.923879 -1.08406e-16
    outer loop
      vertex 54.2235 12.1022 80
      vertex 54.2235 12.1022 91.9333
      vertex 53.5 12.4019 80
    endloop
  endfacet
  facet normal -0.608762 -0.793353 -1.72448e-16
    outer loop
      vertex 53.5 12.4019 91.9333
      vertex 52.8787 12.8787 91.9333
      vertex 52.8787 12.8787 80
    endloop
  endfacet
  facet normal -0.608762 -0.793353 -1.72448e-16
    outer loop
      vertex 53.5 12.4019 80
      vertex 53.5 12.4019 91.9333
      vertex 52.8787 12.8787 80
    endloop
  endfacet
  facet normal -0.793353 -0.608762 -2.24739e-16
    outer loop
      vertex 52.4019 13.5 91.9333
      vertex 52.4019 13.5 80
      vertex 52.8787 12.8787 91.9333
    endloop
  endfacet
  facet normal -0.793353 -0.608762 -2.24739e-16
    outer loop
      vertex 52.8787 12.8787 91.9333
      vertex 52.4019 13.5 80
      vertex 52.8787 12.8787 80
    endloop
  endfacet
  facet normal -0.923879 -0.382685 -2.61714e-16
    outer loop
      vertex 52.1022 14.2235 91.9333
      vertex 52.1022 14.2235 80
      vertex 52.4019 13.5 91.9333
    endloop
  endfacet
  facet normal -0.923879 -0.382685 -2.61714e-16
    outer loop
      vertex 52.4019 13.5 91.9333
      vertex 52.1022 14.2235 80
      vertex 52.4019 13.5 80
    endloop
  endfacet
  facet normal -0.991445 -0.130525 -2.80854e-16
    outer loop
      vertex 52 15 91.9333
      vertex 52 15 80
      vertex 52.1022 14.2235 91.9333
    endloop
  endfacet
  facet normal -0.991445 -0.130525 -2.80854e-16
    outer loop
      vertex 52.1022 14.2235 91.9333
      vertex 52 15 80
      vertex 52.1022 14.2235 80
    endloop
  endfacet
  facet normal 0.827103 0.108889 0.551402
    outer loop
      vertex 52.1151 14.227 91.9333
      vertex 55 15 87.4533
      vertex 52.0133 15 91.9333
    endloop
  endfacet
  facet normal 0.770737 0.319251 0.551402
    outer loop
      vertex 52.4135 13.5067 91.9333
      vertex 55 15 87.4533
      vertex 52.1151 14.227 91.9333
    endloop
  endfacet
  facet normal 0.661847 0.507853 0.551402
    outer loop
      vertex 52.8881 12.8881 91.9333
      vertex 55 15 87.4533
      vertex 52.4135 13.5067 91.9333
    endloop
  endfacet
  facet normal 0.507853 0.661847 0.551402
    outer loop
      vertex 53.5067 12.4135 91.9333
      vertex 55 15 87.4533
      vertex 52.8881 12.8881 91.9333
    endloop
  endfacet
  facet normal 0.319251 0.770737 0.551402
    outer loop
      vertex 54.227 12.1151 91.9333
      vertex 55 15 87.4533
      vertex 53.5067 12.4135 91.9333
    endloop
  endfacet
  facet normal 0.108889 0.827103 0.551402
    outer loop
      vertex 55 12.0133 91.9333
      vertex 55 15 87.4533
      vertex 54.227 12.1151 91.9333
    endloop
  endfacet
  facet normal -0.108889 0.827103 0.551402
    outer loop
      vertex 55.773 12.1151 91.9333
      vertex 55 15 87.4533
      vertex 55 12.0133 91.9333
    endloop
  endfacet
  facet normal -0.319251 0.770737 0.551402
    outer loop
      vertex 55.773 12.1151 91.9333
      vertex 56.4933 12.4135 91.9333
      vertex 55 15 87.4533
    endloop
  endfacet
  facet normal -0.507853 0.661847 0.551402
    outer loop
      vertex 56.4933 12.4135 91.9333
      vertex 57.1119 12.8881 91.9333
      vertex 55 15 87.4533
    endloop
  endfacet
  facet normal -0.661847 0.507853 0.551402
    outer loop
      vertex 57.1119 12.8881 91.9333
      vertex 57.5865 13.5067 91.9333
      vertex 55 15 87.4533
    endloop
  endfacet
  facet normal -0.770737 0.319251 0.551402
    outer loop
      vertex 57.5865 13.5067 91.9333
      vertex 57.8849 14.227 91.9333
      vertex 55 15 87.4533
    endloop
  endfacet
  facet normal -0.827103 0.108889 0.551402
    outer loop
      vertex 57.8849 14.227 91.9333
      vertex 57.9867 15 91.9333
      vertex 55 15 87.4533
    endloop
  endfacet
  facet normal -0.827103 -0.108889 0.551402
    outer loop
      vertex 57.9867 15 91.9333
      vertex 57.8849 15.773 91.9333
      vertex 55 15 87.4533
    endloop
  endfacet
  facet normal -0.770737 -0.319251 0.551402
    outer loop
      vertex 57.8849 15.773 91.9333
      vertex 57.5865 16.4933 91.9333
      vertex 55 15 87.4533
    endloop
  endfacet
  facet normal -0.661847 -0.507853 0.551402
    outer loop
      vertex 57.5865 16.4933 91.9333
      vertex 57.1119 17.1119 91.9333
      vertex 55 15 87.4533
    endloop
  endfacet
  facet normal -0.507853 -0.661847 0.551402
    outer loop
      vertex 57.1119 17.1119 91.9333
      vertex 56.4933 17.5865 91.9333
      vertex 55 15 87.4533
    endloop
  endfacet
  facet normal -0.319251 -0.770737 0.551402
    outer loop
      vertex 56.4933 17.5865 91.9333
      vertex 55.773 17.8849 91.9333
      vertex 55 15 87.4533
    endloop
  endfacet
  facet normal -0.108889 -0.827103 0.551402
    outer loop
      vertex 55 15 87.4533
      vertex 55.773 17.8849 91.9333
      vertex 55 17.9867 91.9333
    endloop
  endfacet
  facet normal 0.108889 -0.827103 0.551402
    outer loop
      vertex 55 15 87.4533
      vertex 55 17.9867 91.9333
      vertex 54.227 17.8849 91.9333
    endloop
  endfacet
  facet normal 0.319251 -0.770737 0.551402
    outer loop
      vertex 55 15 87.4533
      vertex 54.227 17.8849 91.9333
      vertex 53.5067 17.5865 91.9333
    endloop
  endfacet
  facet normal 0.507853 -0.661847 0.551402
    outer loop
      vertex 55 15 87.4533
      vertex 53.5067 17.5865 91.9333
      vertex 52.8881 17.1119 91.9333
    endloop
  endfacet
  facet normal 0.661847 -0.507853 0.551402
    outer loop
      vertex 55 15 87.4533
      vertex 52.8881 17.1119 91.9333
      vertex 52.4135 16.4933 91.9333
    endloop
  endfacet
  facet normal 0.770737 -0.319251 0.551402
    outer loop
      vertex 55 15 87.4533
      vertex 52.4135 16.4933 91.9333
      vertex 52.1151 15.773 91.9333
    endloop
  endfacet
  facet normal 0.827103 -0.108889 0.551402
    outer loop
      vertex 55 15 87.4533
      vertex 52.1151 15.773 91.9333
      vertex 52.0133 15 91.9333
    endloop
  endfacet
  facet normal 2.83277e-16 0 -1
    outer loop
      vertex 52 15 80
      vertex 52 19.2 80
      vertex 52.1022 14.2235 80
    endloop
  endfacet
  facet normal 2.83277e-16 0 -1
    outer loop
      vertex 52.1022 14.2235 80
      vertex 52 19.2 80
      vertex 58 19.2 80
    endloop
  endfacet
  facet normal 2.83277e-16 0 -1
    outer loop
      vertex 52.1022 14.2235 80
      vertex 58 19.2 80
      vertex 58 15 80
    endloop
  endfacet
  facet normal 2.83277e-16 0 -1
    outer loop
      vertex 52.1022 14.2235 80
      vertex 58 15 80
      vertex 57.8978 14.2235 80
    endloop
  endfacet
  facet normal 2.83277e-16 0 -1
    outer loop
      vertex 52.1022 14.2235 80
      vertex 57.8978 14.2235 80
      vertex 57.5981 13.5 80
    endloop
  endfacet
  facet normal 2.83277e-16 0 -1
    outer loop
      vertex 52.1022 14.2235 80
      vertex 57.5981 13.5 80
      vertex 57.1213 12.8787 80
    endloop
  endfacet
  facet normal 2.83277e-16 0 -1
    outer loop
      vertex 52.1022 14.2235 80
      vertex 57.1213 12.8787 80
      vertex 56.5 12.4019 80
    endloop
  endfacet
  facet normal 2.83277e-16 0 -1
    outer loop
      vertex 52.1022 14.2235 80
      vertex 56.5 12.4019 80
      vertex 55.7765 12.1022 80
    endloop
  endfacet
  facet normal 2.83277e-16 0 -1
    outer loop
      vertex 52.1022 14.2235 80
      vertex 55.7765 12.1022 80
      vertex 55 12 80
    endloop
  endfacet
  facet normal 2.83277e-16 0 -1
    outer loop
      vertex 52.1022 14.2235 80
      vertex 55 12 80
      vertex 54.2235 12.1022 80
    endloop
  endfacet
  facet normal 2.83277e-16 0 -1
    outer loop
      vertex 52.1022 14.2235 80
      vertex 54.2235 12.1022 80
      vertex 53.5 12.4019 80
    endloop
  endfacet
  facet normal 2.83277e-16 0 -1
    outer loop
      vertex 52.1022 14.2235 80
      vertex 53.5 12.4019 80
      vertex 52.8787 12.8787 80
    endloop
  endfacet
  facet normal 2.83277e-16 0 -1
    outer loop
      vertex 52.1022 14.2235 80
      vertex 52.8787 12.8787 80
      vertex 52.4019 13.5 80
    endloop
  endfacet
  facet normal -1 0 0
    outer loop
      vertex 0 0 0
      vertex 0 0 200
      vertex 0 1 0
    endloop
  endfacet
  facet normal -1 0 0
    outer loop
      vertex 0 1 0
      vertex 0 0 200
      vertex 0 1 200
    endloop
  endfacet
  facet normal 0 -1 0
    outer loop
      vertex 0 0 200
      vertex 0 0 0
      vertex 300 0 0
    endloop
  endfacet
  facet normal 0 -1 0
    outer loop
      vertex 300 0 200
      vertex 0 0 200
      vertex 300 0 0
    endloop
  endfacet
  facet normal 0 0 -1
    outer loop
      vertex 0 0 0
      vertex 0 1 0
      vertex 300 0 0
    endloop
  endfacet
  facet normal 0 0 -1
    outer loop
      vertex 300 0 0
      vertex 0 1 0
      vertex 300 1 0
    endloop
  endfacet
  facet normal 0 1 0
    outer loop
      vertex 57 1 140
      vertex 0 1 200
      vertex 300 1 0
    endloop
  endfacet
  facet normal 0 1 0
    outer loop
      vertex 300 1 0
      vertex 0 1 200
      vertex 300 1 200
    endloop
  endfacet
  facet normal 0 1 0
    outer loop
      vertex 0 1 0
      vertex 0 1 200
      vertex 50 1 140
    endloop
  endfacet
  facet normal 0 1 0
    outer loop
      vertex 0 1 0
      vertex 50 1 140
      vertex 50 1 10
    endloop
  endfacet
  facet normal 0 1 0
    outer loop
      vertex 0 1 0
      vertex 50 1 10
      vertex 300 1 0
    endloop
  endfacet
  facet normal 0 1 0
    outer loop
      vertex 50 1 10
      vertex 57 1 10
      vertex 300 1 0
    endloop
  endfacet
  facet normal 0 1 0
    outer loop
      vertex 50 1 140
      vertex 0 1 200
      vertex 57 1 140
    endloop
  endfacet
  facet normal 0 1 0
    outer loop
      vertex 57 1 140
      vertex 300 1 0
      vertex 57 1 10
    endloop
  endfacet
  facet normal 0 0 1
    outer loop
      vertex 0 1 200
      vertex 0 0 200
      vertex 300 0 200
    endloop
  endfacet
  facet normal 0 0 1
    outer loop
      vertex 300 1 200
      vertex 0 1 200
      vertex 300 0 200
    endloop
  endfacet
  facet normal 1 0 0
    outer loop
      vertex 300 0 200
      vertex 300 0 0
      vertex 300 1 0
    endloop
  endfacet
  facet normal 1 0 0
    outer loop
      vertex 300 1 200
      vertex 300 0 200
      vertex 300 1 0
    endloop
  endfacet
  facet normal -1 0 0
    outer loop
      vertex 50 1 10
      vertex 50 1 140
      vertex 50 7 10
    endloop
  endfacet
  facet normal -1 0 0
    outer loop
      vertex 50 7 10
      vertex 50 1 140
      vertex 50 7 140
    endloop
  endfacet
  facet normal 0 0 1
    outer loop
      vertex 50 7 140
      vertex 50 1 140
      vertex 57 1 140
    endloop
  endfacet
  facet normal 0 0 1
    outer loop
      vertex 57 7 140
      vertex 50 7 140
      vertex 57 1 140
    endloop
  endfacet
  facet normal 1 0 0
    outer loop
      vertex 57 2.8 80
      vertex 57 1 10
      vertex 57 7 10
    endloop
  endfacet
  facet normal 1 0 0
    outer loop
      vertex 57 2.8 120
      vertex 57 7 120
      vertex 57 1 140
    endloop
  endfacet
  facet normal 1 0 0
    outer loop
      vertex 57 1 140
      vertex 57 1 10
      vertex 57 2.8 80
    endloop
  endfacet
  facet normal 1 0 0
    outer loop
      vertex 57 7 140
      vertex 57 1 140
      vertex 57 7 120
    endloop
  endfacet
  facet normal 1 0 0
    outer loop
      vertex 57 2.8 80
      vertex 57 2.8 120
      vertex 57 1 140
    endloop
  endfacet
  facet normal 1 0 0
    outer loop
      vertex 57 7 80
      vertex 57 2.8 80
      vertex 57 7 10
    endloop
  endfacet
  facet normal 0 0 -1
    outer loop
      vertex 50 1 10
      vertex 50 7 10
      vertex 57 1 10
    endloop
  endfacet
  facet normal 0 0 -1
    outer loop
      vertex 57 1 10
      vertex 50 7 10
      vertex 57 7 10
    endloop
  endfacet
  facet normal 0 1 0
    outer loop
      vertex 57 7 80
      vertex 57 7 10
      vertex 52 7 80
    endloop
  endfacet
  facet normal 0 1 0
    outer loop
      vertex 57 7 120
      vertex 50 7 140
      vertex 57 7 140
    endloop
  endfacet
  facet normal 0 1 0
    outer loop
      vertex 52 7 120
      vertex 50 7 140
      vertex 57 7 120
    endloop
  endfacet
  facet normal 0 1 0
    outer loop
      vertex 50 7 10
      vertex 50 7 140
      vertex 52 7 80
    endloop
  endfacet
  facet normal 0 1 0
    outer loop
      vertex 50 7 10
      vertex 52 7 80
      vertex 57 7 10
    endloop
  endfacet
  facet normal 0 1 0
    outer loop
      vertex 52 7 80
      vertex 50 7 140
      vertex 52 7 120
    endloop
  endfacet
  facet normal -2.22045e-16 0 1
    outer loop
      vertex 52 10.8 120
      vertex 52 7 120
      vertex 57 7 120
    endloop
  endfacet
  facet normal -2.22045e-16 0 1
    outer loop
      vertex 58 10.8 120
      vertex 52 10.8 120
      vertex 57 7 120
    endloop
  endfacet
  facet normal -2.22045e-16 0 1
    outer loop
      vertex 57 2.8 120
      vertex 58 2.8 120
      vertex 57 7 120
    endloop
  endfacet
  facet normal -2.22045e-16 0 1
    outer loop
      vertex 58 2.8 120
      vertex 58 10.8 120
      vertex 57 7 120
    endloop
  endfacet
  facet normal 0 -1 0
    outer loop
      vertex 57 2.8 120
      vertex 57 2.8 80
      vertex 58 2.8 80
    endloop
  endfacet
  facet normal 0 -1 0
    outer loop
      vertex 58 2.8 120
      vertex 57 2.8 120
      vertex 58 2.8 80
    endloop
  endfacet
  facet normal 2.22045e-16 0 -1
    outer loop
      vertex 52 7 80
      vertex 52 10.8 80
      vertex 57 7 80
    endloop
  endfacet
  facet normal 2.22045e-16 0 -1
    outer loop
      vertex 57 7 80
      vertex 52 10.8 80
      vertex 58 10.8 80
    endloop
  endfacet
  facet normal 2.22045e-16 0 -1
    outer loop
      vertex 57 7 80
      vertex 58 10.8 80
      vertex 58 2.8 80
    endloop
  endfacet
  facet normal 2.22045e-16 0 -1
    outer loop
      vertex 57 7 80
      vertex 58 2.8 80
      vertex 57 2.8 80
    endloop
  endfacet
  facet normal -1 0 -2.22045e-16
    outer loop
      vertex 52 7 120
      vertex 52 10.8 120
      vertex 52 7 80
    endloop
  endfacet
  facet normal -1 0 -2.22045e-16
    outer loop
      vertex 52 7 80
      vertex 52 10.8 120
      vertex 52 10.8 80
    endloop
  endfacet
  facet normal 0 1 0
    outer loop
      vertex 52 10.8 120
      vertex 58 10.8 120
      vertex 52 10.8 106.667
    endloop
  endfacet
  facet normal 0 1 0
    outer loop
      vertex 52 10.8 120
      vertex 52 10.8 106.667
      vertex 52 10.8 80
    endloop
  endfacet
  facet normal 0 1 0
    outer loop
      vertex 58 10.8 93.3333
      vertex 52 10.8 80
      vertex 52 10.8 93.3333
    endloop
  endfacet
  facet normal 0 1 0
    outer loop
      vertex 52 10.8 106.667
      vertex 52 10.8 93.3333
      vertex 52 10.8 80
    endloop
  endfacet
  facet normal 0 1 0
    outer loop
      vertex 52 10.8 80
      vertex 58 10.8 93.3333
      vertex 58 10.8 80
    endloop
  endfacet
  facet normal 0 1 0
    outer loop
      vertex 52 10.8 106.667
      vertex 58 10.8 120
      vertex 58 10.8 106.667
    endloop
  endfacet
  facet normal 1 0 2.22045e-16
    outer loop
      vertex 58 10.8 120
      vertex 58 2.8 120
      vertex 58 2.8 80
    endloop
  endfacet
  facet normal 1 0 2.22045e-16
    outer loop
      vertex 58 10.8 106.667
      vertex 58 10.8 120
      vertex 58 2.8 80
    endloop
  endfacet
  facet normal 1 0 2.22045e-16
    outer loop
      vertex 58 10.8 80
      vertex 58 10.8 93.3333
      vertex 58 2.8 80
    endloop
  endfacet
  facet normal 1 0 2.22045e-16
    outer loop
      vertex 58 10.8 93.3333
      vertex 58 10.8 106.667
      vertex 58 2.8 80
    endloop
  endfacet
  facet normal 2.83277e-16 0 -1
    outer loop
      vertex 52 10.8 93.3333
      vertex 52 15 93.3333
      vertex 52.1022 14.2235 93.3333
    endloop
  endfacet
  facet normal 2.83277e-16 0 -1
    outer loop
      vertex 52 10.8 93.3333
      vertex 52.1022 14.2235 93.3333
      vertex 52.4019 13.5 93.3333
    endloop
  endfacet
  facet normal 2.83277e-16 0 -1
    outer loop
      vertex 52 10.8 93.3333
      vertex 52.4019 13.5 93.3333
      vertex 52.8787 12.8787 93.3333
    endloop
  endfacet
  facet normal 2.83277e-16 0 -1
    outer loop
      vertex 52 10.8 93.3333
      vertex 52.8787 12.8787 93.3333
      vertex 53.5 12.4019 93.3333
    endloop
  endfacet
  facet normal 2.83277e-16 0 -1
    outer loop
      vertex 52 10.8 93.3333
      vertex 53.5 12.4019 93.3333
      vertex 54.2235 12.1022 93.3333
    endloop
  endfacet
  facet normal 2.83277e-16 0 -1
    outer loop
      vertex 52 10.8 93.3333
      vertex 54.2235 12.1022 93.3333
      vertex 58 10.8 93.3333
    endloop
  endfacet
  facet normal 2.83277e-16 0 -1
    outer loop
      vertex 55.7765 12.1022 93.3333
      vertex 58 10.8 93.3333
      vertex 55 12 93.3333
    endloop
  endfacet
  facet normal 2.83277e-16 0 -1
    outer loop
      vertex 55 12 93.3333
      vertex 58 10.8 93.3333
      vertex 54.2235 12.1022 93.3333
    endloop
  endfacet
  facet normal 2.83277e-16 0 -1
    outer loop
      vertex 56.5 12.4019 93.3333
      vertex 58 10.8 93.3333
      vertex 55.7765 12.1022 93.3333
    endloop
  endfacet
  facet normal 2.83277e-16 0 -1
    outer loop
      vertex 57.1213 12.8787 93.3333
      vertex 58 10.8 93.3333
      vertex 56.5 12.4019 93.3333
    endloop
  endfacet
  facet normal 2.83277e-16 0 -1
    outer loop
      vertex 57.5981 13.5 93.3333
      vertex 58 10.8 93.3333
      vertex 57.1213 12.8787 93.3333
    endloop
  endfacet
  facet normal 2.83277e-16 0 -1
    outer loop
      vertex 57.8978 14.2235 93.3333
      vertex 58 10.8 93.3333
      vertex 57.5981 13.5 93.3333
    endloop
  endfacet
  facet normal 2.83277e-16 0 -1
    outer loop
      vertex 58 15 93.3333
      vertex 58 10.8 93.3333
      vertex 57.8978 14.2235 93.3333
    endloop
  endfacet
  facet normal -1 0 -2.83277e-16
    outer loop
      vertex 52 10.8 106.667
      vertex 52 15 106.667
      vertex 52 10.8 93.3333
    endloop
  endfacet
  facet normal -1 0 -2.83277e-16
    outer loop
      vertex 52 10.8 93.3333
      vertex 52 15 106.667
      vertex 52 15 93.3333
    endloop
  endfacet
  facet normal -2.83277e-16 0 1
    outer loop
      vertex 55.7765 12.1022 106.667
      vertex 52 10.8 106.667
      vertex 58 10.8 106.667
    endloop
  endfacet
  facet normal -2.83277e-16 0 1
    outer loop
      vertex 58 15 106.667
      vertex 57.8978 14.2235 106.667
      vertex 58 10.8 106.667
    endloop
  endfacet
  facet normal -2.83277e-16 0 1
    outer loop
      vertex 57.8978 14.2235 106.667
      vertex 57.5981 13.5 106.667
      vertex 58 10.8 106.667
    endloop
  endfacet
  facet normal -2.83277e-16 0 1
    outer loop
      vertex 57.5981 13.5 106.667
      vertex 57.1213 12.8787 106.667
      vertex 58 10.8 106.667
    endloop
  endfacet
  facet normal -2.83277e-16 0 1
    outer loop
      vertex 57.1213 12.8787 106.667
      vertex 56.5 12.4019 106.667
      vertex 58 10.8 106.667
    endloop
  endfacet
  facet normal -2.83277e-16 0 1
    outer loop
      vertex 55 12 106.667
      vertex 52 10.8 106.667
      vertex 55.7765 12.1022 106.667
    endloop
  endfacet
  facet normal -2.83277e-16 0 1
    outer loop
      vertex 54.2235 12.1022 106.667
      vertex 52 10.8 106.667
      vertex 55 12 106.667
    endloop
  endfacet
  facet normal -2.83277e-16 0 1
    outer loop
      vertex 53.5 12.4019 106.667
      vertex 52 10.8 106.667
      vertex 54.2235 12.1022 106.667
    endloop
  endfacet
  facet normal -2.83277e-16 0 1
    outer loop
      vertex 52.8787 12.8787 106.667
      vertex 52 10.8 106.667
      vertex 53.5 12.4019 106.667
    endloop
  endfacet
  facet normal -2.83277e-16 0 1
    outer loop
      vertex 52.4019 13.5 106.667
      vertex 52 10.8 106.667
      vertex 52.8787 12.8787 106.667
    endloop
  endfacet
  facet normal -2.83277e-16 0 1
    outer loop
      vertex 52.1022 14.2235 106.667
      vertex 52 10.8 106.667
      vertex 52.4019 13.5 106.667
    endloop
  endfacet
  facet normal -2.83277e-16 0 1
    outer loop
      vertex 52 15 106.667
      vertex 52 10.8 106.667
      vertex 52.1022 14.2235 106.667
    endloop
  endfacet
  facet normal -2.83277e-16 0 1
    outer loop
      vertex 56.5 12.4019 106.667
      vertex 55.7765 12.1022 106.667
      vertex 58 10.8 106.667
    endloop
  endfacet
  facet normal 1 0 2.83277e-16
    outer loop
      vertex 58 15 106.667
      vertex 58 10.8 106.667
      vertex 58 10.8 93.3333
    endloop
  endfacet
  facet normal 1 0 2.83277e-16
    outer loop
      vertex 58 15 93.3333
      vertex 58 15 106.667
      vertex 58 10.8 93.3333
    endloop
  endfacet
  facet normal 0.991445 0.130525 2.80854e-16
    outer loop
      vertex 57.8978 15.7765 93.3333
      vertex 57.8978 15.7765 106.667
      vertex 58 15 106.667
    endloop
  endfacet
  facet normal 0.991445 0.130525 2.80854e-16
    outer loop
      vertex 58 15 93.3333
      vertex 57.8978 15.7765 93.3333
      vertex 58 15 106.667
    endloop
  endfacet
  facet normal 0.923879 0.382685 2.61714e-16
    outer loop
      vertex 57.5981 16.5 93.3333
      vertex 57.5981 16.5 106.667
      vertex 57.8978 15.7765 106.667
    endloop
  endfacet
  facet normal 0.923879 0.382685 2.61714e-16
    outer loop
      vertex 57.8978 15.7765 93.3333
      vertex 57.5981 16.5 93.3333
      vertex 57.8978 15.7765 106.667
    endloop
  endfacet
  facet normal 0.793353 0.608762 2.24739e-16
    outer loop
      vertex 57.1213 17.1213 93.3333
      vertex 57.1213 17.1213 106.667
      vertex 57.5981 16.5 106.667
    endloop
  endfacet
  facet normal 0.793353 0.608762 2.24739e-16
    outer loop
      vertex 57.5981 16.5 93.3333
      vertex 57.1213 17.1213 93.3333
      vertex 57.5981 16.5 106.667
    endloop
  endfacet
  facet normal 0.608762 0.793353 1.72448e-16
    outer loop
      vertex 56.5 17.5981 106.667
      vertex 57.1213 17.1213 106.667
      vertex 56.5 17.5981 93.3333
    endloop
  endfacet
  facet normal 0.608762 0.793353 1.72448e-16
    outer loop
      vertex 56.5 17.5981 93.3333
      vertex 57.1213 17.1213 106.667
      vertex 57.1213 17.1213 93.3333
    endloop
  endfacet
  facet normal 0.382685 0.923879 1.08406e-16
    outer loop
      vertex 55.7765 17.8978 106.667
      vertex 56.5 17.5981 106.667
      vertex 55.7765 17.8978 93.3333
    endloop
  endfacet
  facet normal 0.382685 0.923879 1.08406e-16
    outer loop
      vertex 55.7765 17.8978 93.3333
      vertex 56.5 17.5981 106.667
      vertex 56.5 17.5981 93.3333
    endloop
  endfacet
  facet normal 0.130525 0.991445 3.69748e-17
    outer loop
      vertex 55 18 106.667
      vertex 55.7765 17.8978 106.667
      vertex 55 18 93.3333
    endloop
  endfacet
  facet normal 0.130525 0.991445 3.69748e-17
    outer loop
      vertex 55 18 93.3333
      vertex 55.7765 17.8978 106.667
      vertex 55.7765 17.8978 93.3333
    endloop
  endfacet
  facet normal -0.130525 0.991445 -3.69748e-17
    outer loop
      vertex 54.2235 17.8978 106.667
      vertex 55 18 106.667
      vertex 54.2235 17.8978 93.3333
    endloop
  endfacet
  facet normal -0.130525 0.991445 -3.69748e-17
    outer loop
      vertex 54.2235 17.8978 93.3333
      vertex 55 18 106.667
      vertex 55 18 93.3333
    endloop
  endfacet
  facet normal -0.382685 0.923879 -1.08406e-16
    outer loop
      vertex 53.5 17.5981 106.667
      vertex 54.2235 17.8978 106.667
      vertex 53.5 17.5981 93.3333
    endloop
  endfacet
  facet normal -0.382685 0.923879 -1.08406e-16
    outer loop
      vertex 53.5 17.5981 93.3333
      vertex 54.2235 17.8978 106.667
      vertex 54.2235 17.8978 93.3333
    endloop
  endfacet
  facet normal -0.608762 0.793353 -1.72448e-16
    outer loop
      vertex 52.8787 17.1213 106.667
      vertex 53.5 17.5981 106.667
      vertex 52.8787 17.1213 93.3333
    endloop
  endfacet
  facet normal -0.608762 0.793353 -1.72448e-16
    outer loop
      vertex 52.8787 17.1213 93.3333
      vertex 53.5 17.5981 106.667
      vertex 53.5 17.5981 93.3333
    endloop
  endfacet
  facet normal -0.793353 0.608762 -2.24739e-16
    outer loop
      vertex 52.4019 16.5 106.667
      vertex 52.8787 17.1213 106.667
      vertex 52.4019 16.5 93.3333
    endloop
  endfacet
  facet normal -0.793353 0.608762 -2.24739e-16
    outer loop
      vertex 52.4019 16.5 93.3333
      vertex 52.8787 17.1213 106.667
      vertex 52.8787 17.1213 93.3333
    endloop
  endfacet
  facet normal -0.923879 0.382685 -2.61714e-16
    outer loop
      vertex 52.1022 15.7765 106.667
      vertex 52.4019 16.5 106.667
      vertex 52.1022 15.7765 93.3333
    endloop
  endfacet
  facet normal -0.923879 0.382685 -2.61714e-16
    outer loop
      vertex 52.1022 15.7765 93.3333
      vertex 52.4019 16.5 106.667
      vertex 52.4019 16.5 93.3333
    endloop
  endfacet
  facet normal -0.991445 0.130525 -2.80854e-16
    outer loop
      vertex 52 15 106.667
      vertex 52.1022 15.7765 106.667
      vertex 52 15 93.3333
    endloop
  endfacet
  facet normal -0.991445 0.130525 -2.80854e-16
    outer loop
      vertex 52 15 93.3333
      vertex 52.1022 15.7765 106.667
      vertex 52.1022 15.7765 93.3333
    endloop
  endfacet
  facet normal -0.827103 -0.108889 -0.551402
    outer loop
      vertex 52.1022 14.2235 93.3333
      vertex 52 15 93.3333
      vertex 55 15 88.8333
    endloop
  endfacet
  facet normal -0.827103 0.108889 -0.551402
    outer loop
      vertex 55 15 88.8333
      vertex 52 15 93.3333
      vertex 52.1022 15.7765 93.3333
    endloop
  endfacet
  facet normal -0.770737 0.319251 -0.551402
    outer loop
      vertex 55 15 88.8333
      vertex 52.1022 15.7765 93.3333
      vertex 52.4019 16.5 93.3333
    endloop
  endfacet
  facet normal -0.661847 0.507853 -0.551402
    outer loop
      vertex 55 15 88.8333
      vertex 52.4019 16.5 93.3333
      vertex 52.8787 17.1213 93.3333
    endloop
  endfacet
  facet normal -0.507853 0.661847 -0.551402
    outer loop
      vertex 55 15 88.8333
      vertex 52.8787 17.1213 93.3333
      vertex 53.5 17.5981 93.3333
    endloop
  endfacet
  facet normal -0.319251 0.770737 -0.551402
    outer loop
      vertex 55 15 88.8333
      vertex 53.5 17.5981 93.3333
      vertex 54.2235 17.8978 93.3333
    endloop
  endfacet
  facet normal -0.108889 0.827103 -0.551402
    outer loop
      vertex 55 15 88.8333
      vertex 54.2235 17.8978 93.3333
      vertex 55 18 93.3333
    endloop
  endfacet
  facet normal 0.108889 0.827103 -0.551402
    outer loop
      vertex 55 15 88.8333
      vertex 55 18 93.3333
      vertex 55.7765 17.8978 93.3333
    endloop
  endfacet
  facet normal 0.319251 0.770737 -0.551402
    outer loop
      vertex 56.5 17.5981 93.3333
      vertex 55 15 88.8333
      vertex 55.7765 17.8978 93.3333
    endloop
  endfacet
  facet normal 0.507853 0.661847 -0.551402
    outer loop
      vertex 57.1213 17.1213 93.3333
      vertex 55 15 88.8333
      vertex 56.5 17.5981 93.3333
    endloop
  endfacet
  facet normal 0.661847 0.507853 -0.551402
    outer loop
      vertex 57.5981 16.5 93.3333
      vertex 55 15 88.8333
      vertex 57.1213 17.1213 93.3333
    endloop
  endfacet
  facet normal 0.770737 0.319251 -0.551402
    outer loop
      vertex 57.8978 15.7765 93.3333
      vertex 55 15 88.8333
      vertex 57.5981 16.5 93.3333
    endloop
  endfacet
  facet normal 0.827103 0.108889 -0.551402
    outer loop
      vertex 58 15 93.3333
      vertex 55 15 88.8333
      vertex 57.8978 15.7765 93.3333
    endloop
  endfacet
  facet normal 0.827103 -0.108889 -0.551402
    outer loop
      vertex 57.8978 14.2235 93.3333
      vertex 55 15 88.8333
      vertex 58 15 93.3333
    endloop
  endfacet
  facet normal 0.770737 -0.319251 -0.551402
    outer loop
      vertex 57.5981 13.5 93.3333
      vertex 55 15 88.8333
      vertex 57.8978 14.2235 93.3333
    endloop
  endfacet
  facet normal 0.661847 -0.507853 -0.551402
    outer loop
      vertex 57.1213 12.8787 93.3333
      vertex 55 15 88.8333
      vertex 57.5981 13.5 93.3333
    endloop
  endfacet
  facet normal 0.507853 -0.661847 -0.551402
    outer loop
      vertex 56.5 12.4019 93.3333
      vertex 55 15 88.8333
      vertex 57.1213 12.8787 93.3333
    endloop
  endfacet
  facet normal 0.319251 -0.770737 -0.551402
    outer loop
      vertex 55.7765 12.1022 93.3333
      vertex 55 15 88.8333
      vertex 56.5 12.4019 93.3333
    endloop
  endfacet
  facet normal 0.108889 -0.827103 -0.551402
    outer loop
      vertex 55.7765 12.1022 93.3333
      vertex 55 12 93.3333
      vertex 55 15 88.8333
    endloop
  endfacet
  facet normal -0.108889 -0.827103 -0.551402
    outer loop
      vertex 55 12 93.3333
      vertex 54.2235 12.1022 93.3333
      vertex 55 15 88.8333
    endloop
  endfacet
  facet normal -0.319251 -0.770737 -0.551402
    outer loop
      vertex 54.2235 12.1022 93.3333
      vertex 53.5 12.4019 93.3333
      vertex 55 15 88.8333
    endloop
  endfacet
  facet normal -0.507853 -0.661847 -0.551402
    outer loop
      vertex 53.5 12.4019 93.3333
      vertex 52.8787 12.8787 93.3333
      vertex 55 15 88.8333
    endloop
  endfacet
  facet normal -0.661847 -0.507853 -0.551402
    outer loop
      vertex 52.8787 12.8787 93.3333
      vertex 52.4019 13.5 93.3333
      vertex 55 15 88.8333
    endloop
  endfacet
  facet normal -0.770737 -0.319251 -0.551402
    outer loop
      vertex 52.4019 13.5 93.3333
      vertex 52.1022 14.2235 93.3333
      vertex 55 15 88.8333
    endloop
  endfacet
  facet normal -0.827103 0.108889 0.551402
    outer loop
      vertex 52.1022 15.7765 106.667
      vertex 52 15 106.667
      vertex 55 15 111.167
    endloop
  endfacet
  facet normal -0.827103 -0.108889 0.551402
    outer loop
      vertex 55 15 111.167
      vertex 52 15 106.667
      vertex 52.1022 14.2235 106.667
    endloop
  endfacet
  facet normal -0.770737 -0.319251 0.551402
    outer loop
      vertex 55 15 111.167
      vertex 52.1022 14.2235 106.667
      vertex 52.4019 13.5 106.667
    endloop
  endfacet
  facet normal -0.661847 -0.507853 0.551402
    outer loop
      vertex 55 15 111.167
      vertex 52.4019 13.5 106.667
      vertex 52.8787 12.8787 106.667
    endloop
  endfacet
  facet normal -0.507853 -0.661847 0.551402
    outer loop
      vertex 55 15 111.167
      vertex 52.8787 12.8787 106.667
      vertex 53.5 12.4019 106.667
    endloop
  endfacet
  facet normal -0.319251 -0.770737 0.551402
    outer loop
      vertex 55 15 111.167
      vertex 53.5 12.4019 106.667
      vertex 54.2235 12.1022 106.667
    endloop
  endfacet
  facet normal -0.108889 -0.827103 0.551402
    outer loop
      vertex 55 15 111.167
      vertex 54.2235 12.1022 106.667
      vertex 55 12 106.667
    endloop
  endfacet
  facet normal 0.108889 -0.827103 0.551402
    outer loop
      vertex 55.7765 12.1022 106.667
      vertex 55 15 111.167
      vertex 55 12 106.667
    endloop
  endfacet
  facet normal 0.319251 -0.770737 0.551402
    outer loop
      vertex 56.5 12.4019 106.667
      vertex 55 15 111.167
      vertex 55.7765 12.1022 106.667
    endloop
  endfacet
  facet normal 0.507853 -0.661847 0.551402
    outer loop
      vertex 57.1213 12.8787 106.667
      vertex 55 15 111.167
      vertex 56.5 12.4019 106.667
    endloop
  endfacet
  facet normal 0.661847 -0.507853 0.551402
    outer loop
      vertex 57.5981 13.5 106.667
      vertex 55 15 111.167
      vertex 57.1213 12.8787 106.667
    endloop
  endfacet
  facet normal 0.770737 -0.319251 0.551402
    outer loop
      vertex 57.8978 14.2235 106.667
      vertex 55 15 111.167
      vertex 57.5981 13.5 106.667
    endloop
  endfacet
  facet normal 0.827103 -0.108889 0.551402
    outer loop
      vertex 58 15 106.667
      vertex 55 15 111.167
      vertex 57.8978 14.2235 106.667
    endloop
  endfacet
  facet normal 0.827103 0.108889 0.551402
    outer loop
      vertex 57.8978 15.7765 106.667
      vertex 55 15 111.167
      vertex 58 15 106.667
    endloop
  endfacet
  facet normal 0.770737 0.319251 0.551402
    outer loop
      vertex 57.5981 16.5 106.667
      vertex 55 15 111.167
      vertex 57.8978 15.7765 106.667
    endloop
  endfacet
  facet normal 0.661847 0.507853 0.551402
    outer loop
      vertex 57.1213 17.1213 106.667
      vertex 55 15 111.167
      vertex 57.5981 16.5 106.667
    endloop
  endfacet
  facet normal 0.507853 0.661847 0.551402
    outer loop
      vertex 56.5 17.5981 106.667
      vertex 55 15 111.167
      vertex 57.1213 17.1213 106.667
    endloop
  endfacet
  facet normal 0.319251 0.770737 0.551402
    outer loop
      vertex 55.7765 17.8978 106.667
      vertex 55 15 111.167
      vertex 56.5 17.5981 106.667
    endloop
  endfacet
  facet normal 0.108889 0.827103 0.551402
    outer loop
      vertex 55 18 106.667
      vertex 55 15 111.167
      vertex 55.7765 17.8978 106.667
    endloop
  endfacet
  facet normal -0.108889 0.827103 0.551402
    outer loop
      vertex 55 18 106.667
      vertex 54.2235 17.8978 106.667
      vertex 55 15 111.167
    endloop
  endfacet
  facet normal -0.319251 0.770737 0.551402
    outer loop
      vertex 54.2235 17.8978 106.667
      vertex 53.5 17.5981 106.667
      vertex 55 15 111.167
    endloop
  endfacet
  facet normal -0.507853 0.661847 0.551402
    outer loop
      vertex 53.5 17.5981 106.667
      vertex 52.8787 17.1213 106.667
      vertex 55 15 111.167
    endloop
  endfacet
  facet normal -0.661847 0.507853 0.551402
    outer loop
      vertex 52.8787 17.1213 106.667
      vertex 52.4019 16.5 106.667
      vertex 55 15 111.167
    endloop
  endfacet
  facet normal -0.770737 0.319251 0.551402
    outer loop
      vertex 52.4019 16.5 106.667
      vertex 52.1022 15.7765 106.667
      vertex 55 15 111.167
    endloop
  endfacet
endsolid OpenSCAD_Model
