solid OpenSCAD_Model
  facet normal -1 0 0
    outer loop
      vertex 0 5 1
      vertex 0 6 0
      vertex 0 1 1
    endloop
  endfacet
  facet normal -1 0 0
    outer loop
      vertex 0 0 0
      vertex 0 0 3
      vertex 0 1 1
    endloop
  endfacet
  facet normal -1 0 0
    outer loop
      vertex 0 0 0
      vertex 0 1 1
      vertex 0 6 0
    endloop
  endfacet
  facet normal -1 0 0
    outer loop
      vertex 0 6 0
      vertex 0 5 1
      vertex 0 5 3
    endloop
  endfacet
  facet normal -1 0 0
    outer loop
      vertex 0 6 0
      vertex 0 5 3
      vertex 0 6 3
    endloop
  endfacet
  facet normal -1 0 0
    outer loop
      vertex 0 1 1
      vertex 0 0 3
      vertex 0 1 3
    endloop
  endfacet
  facet normal 0 -1 0
    outer loop
      vertex 0 0 3
      vertex 0 0 0
      vertex 6 0 0
    endloop
  endfacet
  facet normal 0 -1 0
    outer loop
      vertex 6 0 3
      vertex 0 0 3
      vertex 6 0 0
    endloop
  endfacet
  facet normal 0 0 -1
    outer loop
      vertex 0 0 0
      vertex 0 6 0
      vertex 6 0 0
    endloop
  endfacet
  facet normal 0 0 -1
    outer loop
      vertex 6 0 0
      vertex 0 6 0
      vertex 6 6 0
    endloop
  endfacet
  facet normal 0 1 0
    outer loop
      vertex 0 6 0
      vertex 0 6 3
      vertex 6 6 0
    endloop
  endfacet
  facet normal 0 1 0
    outer loop
      vertex 6 6 0
      vertex 0 6 3
      vertex 6 6 3
    endloop
  endfacet
  facet normal 0 0 1
    outer loop
      vertex 0 1 3
      vertex 0 0 3
      vertex 6 0 3
    endloop
  endfacet
  facet normal 0 0 1
    outer loop
      vertex 2 1 3
      vertex 0 1 3
      vertex 6 0 3
    endloop
  endfacet
  facet normal 0 0 1
    outer loop
      vertex 5 1 3
      vertex 2 1 3
      vertex 6 0 3
    endloop
  endfacet
  facet normal 0 0 1
    outer loop
      vertex 6 1 3
      vertex 5 1 3
      vertex 6 0 3
    endloop
  endfacet
  facet normal 0 0 1
    outer loop
      vertex 6 5 3
      vertex 6 6 3
      vertex 5 5 3
    endloop
  endfacet
  facet normal 0 0 1
    outer loop
      vertex 6 6 3
      vertex 0 6 3
      vertex 0 5 3
    endloop
  endfacet
  facet normal 0 0 1
    outer loop
      vertex 6 6 3
      vertex 0 5 3
      vertex 2 5 3
    endloop
  endfacet
  facet normal 0 0 1
    outer loop
      vertex 5 5 3
      vertex 2 1 3
      vertex 5 1 3
    endloop
  endfacet
  facet normal 0 0 1
    outer loop
      vertex 2 5 3
      vertex 5 5 3
      vertex 6 6 3
    endloop
  endfacet
  facet normal 0 0 1
    outer loop
      vertex 2 5 3
      vertex 2 1 3
      vertex 5 5 3
    endloop
  endfacet
  facet normal 0 -1 0
    outer loop
      vertex 2 5 2
      vertex 0 5 1
      vertex 6 5 1
    endloop
  endfacet
  facet normal 0 -1 0
    outer loop
      vertex 2 5 2
      vertex 2 5 3
      vertex 0 5 3
    endloop
  endfacet
  facet normal 0 -1 0
    outer loop
      vertex 6 5 3
      vertex 5 5 3
      vertex 6 5 1
    endloop
  endfacet
  facet normal 0 -1 0
    outer loop
      vertex 5 5 3
      vertex 5 5 2
      vertex 6 5 1
    endloop
  endfacet
  facet normal 0 -1 0
    outer loop
      vertex 0 5 3
      vertex 0 5 1
      vertex 2 5 2
    endloop
  endfacet
  facet normal 0 -1 0
    outer loop
      vertex 5 5 2
      vertex 2 5 2
      vertex 6 5 1
    endloop
  endfacet
  facet normal 0 0 1
    outer loop
      vertex 0 5 1
      vertex 0 1 1
      vertex 6 1 1
    endloop
  endfacet
  facet normal 0 0 1
    outer loop
      vertex 6 5 1
      vertex 0 5 1
      vertex 6 1 1
    endloop
  endfacet
  facet normal 0 1 0
    outer loop
      vertex 5 1 2
      vertex 6 1 1
      vertex 2 1 2
    endloop
  endfacet
  facet normal 0 1 0
    outer loop
      vertex 0 1 1
      vertex 0 1 3
      vertex 2 1 2
    endloop
  endfacet
  facet normal 0 1 0
    outer loop
      vertex 0 1 1
      vertex 2 1 2
      vertex 6 1 1
    endloop
  endfacet
  facet normal 0 1 0
    outer loop
      vertex 6 1 1
      vertex 5 1 2
      vertex 5 1 3
    endloop
  endfacet
  facet normal 0 1 0
    outer loop
      vertex 6 1 1
      vertex 5 1 3
      vertex 6 1 3
    endloop
  endfacet
  facet normal 0 1 0
    outer loop
      vertex 2 1 2
      vertex 0 1 3
      vertex 2 1 3
    endloop
  endfacet
  facet normal 1 0 0
    outer loop
      vertex 6 1 1
      vertex 6 0 0
      vertex 6 6 0
    endloop
  endfacet
  facet normal 1 0 0
    outer loop
      vertex 6 1 1
      vertex 6 1 3
      vertex 6 0 3
    endloop
  endfacet
  facet normal 1 0 0
    outer loop
      vertex 6 6 3
      vertex 6 5 3
      vertex 6 6 0
    endloop
  endfacet
  facet normal 1 0 0
    outer loop
      vertex 6 5 3
      vertex 6 5 1
      vertex 6 6 0
    endloop
  endfacet
  facet normal 1 0 0
    outer loop
      vertex 6 0 3
      vertex 6 0 0
      vertex 6 1 1
    endloop
  endfacet
  facet normal 1 0 0
    outer loop
      vertex 6 5 1
      vertex 6 1 1
      vertex 6 6 0
    endloop
  endfacet
  facet normal -1 0 0
    outer loop
      vertex 2 1 2
      vertex 2 1 3
      vertex 2 5 2
    endloop
  endfacet
  facet normal -1 0 0
    outer loop
      vertex 2 5 2
      vertex 2 1 3
      vertex 2 5 3
    endloop
  endfacet
  facet normal 1 0 0
    outer loop
      vertex 5 1 3
      vertex 5 1 2
      vertex 5 5 2
    endloop
  endfacet
  facet normal 1 0 0
    outer loop
      vertex 5 5 3
      vertex 5 1 3
      vertex 5 5 2
    endloop
  endfacet
  facet normal 0 0 -1
    outer loop
      vertex 2 1 2
      vertex 2 5 2
      vertex 5 1 2
    endloop
  endfacet
  facet normal 0 0 -1
    outer loop
      vertex 5 1 2
      vertex 2 5 2
      vertex 5 5 2
    endloop
  endfacet
  facet normal -1 0 0
    outer loop
      vertex -1 1.1 1.1
      vertex -1 1.1 3.1
      vertex -1 4.9 1.1
    endloop
  endfacet
  facet normal -1 0 0
    outer loop
      vertex -1 4.9 1.1
      vertex -1 1.1 3.1
      vertex -1 4.9 3.1
    endloop
  endfacet
  facet normal 0 -1 0
    outer loop
      vertex 0 1.1 1.8
      vertex -1 1.1 1.1
      vertex 11 1.1 1.1
    endloop
  endfacet
  facet normal 0 -1 0
    outer loop
      vertex 0 1.1 1.8
      vertex 0 1.1 3.1
      vertex -1 1.1 3.1
    endloop
  endfacet
  facet normal 0 -1 0
    outer loop
      vertex -1 1.1 3.1
      vertex -1 1.1 1.1
      vertex 0 1.1 1.8
    endloop
  endfacet
  facet normal 0 -1 0
    outer loop
      vertex 11 1.1 1.8
      vertex 0 1.1 1.8
      vertex 11 1.1 1.1
    endloop
  endfacet
  facet normal 0 0 -1
    outer loop
      vertex -1 1.1 1.1
      vertex -1 4.9 1.1
      vertex 11 1.1 1.1
    endloop
  endfacet
  facet normal 0 0 -1
    outer loop
      vertex 11 1.1 1.1
      vertex -1 4.9 1.1
      vertex 11 4.9 1.1
    endloop
  endfacet
  facet normal 0 1 0
    outer loop
      vertex 11 4.9 1.8
      vertex 11 4.9 1.1
      vertex 0 4.9 1.8
    endloop
  endfacet
  facet normal 0 1 0
    outer loop
      vertex -1 4.9 1.1
      vertex -1 4.9 3.1
      vertex 0 4.9 1.8
    endloop
  endfacet
  facet normal 0 1 0
    outer loop
      vertex -1 4.9 1.1
      vertex 0 4.9 1.8
      vertex 11 4.9 1.1
    endloop
  endfacet
  facet normal 0 1 0
    outer loop
      vertex 0 4.9 1.8
      vertex -1 4.9 3.1
      vertex 0 4.9 3.1
    endloop
  endfacet
  facet normal 0 0 1
    outer loop
      vertex -1 4.9 3.1
      vertex -1 1.1 3.1
      vertex 0 1.1 3.1
    endloop
  endfacet
  facet normal 0 0 1
    outer loop
      vertex 0 4.9 3.1
      vertex -1 4.9 3.1
      vertex 0 1.1 3.1
    endloop
  endfacet
  facet normal 1 0 0
    outer loop
      vertex 0 1.1 3.1
      vertex 0 1.1 1.8
      vertex 0 4.9 1.8
    endloop
  endfacet
  facet normal 1 0 0
    outer loop
      vertex 0 4.9 3.1
      vertex 0 1.1 3.1
      vertex 0 4.9 1.8
    endloop
  endfacet
  facet normal 0 0 1
    outer loop
      vertex 0 4.9 1.8
      vertex 0 1.1 1.8
      vertex 11 1.1 1.8
    endloop
  endfacet
  facet normal 0 0 1
    outer loop
      vertex 11 4.9 1.8
      vertex 0 4.9 1.8
      vertex 11 1.1 1.8
    endloop
  endfacet
  facet normal 1 0 0
    outer loop
      vertex 11 1.1 1.8
      vertex 11 1.1 1.1
      vertex 11 4.9 1.1
    endloop
  endfacet
  facet normal 1 0 0
    outer loop
      vertex 11 4.9 1.8
      vertex 11 1.1 1.8
      vertex 11 4.9 1.1
    endloop
  endfacet
endsolid OpenSCAD_Model
