solid OpenSCAD_Model
  facet normal -1 0 0
    outer loop
      vertex 0 0 0
      vertex 0 0 1
      vertex 0 10 0
    endloop
  endfacet
  facet normal -1 0 0
    outer loop
      vertex 0 10 0
      vertex 0 0 1
      vertex 0 10 1
    endloop
  endfacet
  facet normal 0 -1 0
    outer loop
      vertex 0 0 1
      vertex 0 0 0
      vertex 20 0 0
    endloop
  endfacet
  facet normal 0 -1 0
    outer loop
      vertex 20 0 1
      vertex 0 0 1
      vertex 20 0 0
    endloop
  endfacet
  facet normal 0 0 -1
    outer loop
      vertex 0 0 0
      vertex 0 10 0
      vertex 20 0 0
    endloop
  endfacet
  facet normal 0 0 -1
    outer loop
      vertex 20 0 0
      vertex 0 10 0
      vertex 20 10 0
    endloop
  endfacet
  facet normal 0 1 0
    outer loop
      vertex 0 10 0
      vertex 0 10 1
      vertex 20 10 0
    endloop
  endfacet
  facet normal 0 1 0
    outer loop
      vertex 20 10 0
      vertex 0 10 1
      vertex 20 10 1
    endloop
  endfacet
  facet normal 0 0 1
    outer loop
      vertex 1.40451 4.70611 1
      vertex 0 0 1
      vertex 20 0 1
    endloop
  endfacet
  facet normal 0 0 1
    outer loop
      vertex 20 10 1
      vertex 0 10 1
      vertex 20 0 1
    endloop
  endfacet
  facet normal 0 0 1
    outer loop
      vertex 0 10 1
      vertex 0 0 1
      vertex 0.503943 4.93733 1
    endloop
  endfacet
  facet normal 0 0 1
    outer loop
      vertex 1.43815 4.75912 1
      vertex 1.40451 4.70611 1
      vertex 20 0 1
    endloop
  endfacet
  facet normal 0 0 1
    outer loop
      vertex 0 10 1
      vertex 0.503943 4.93733 1
      vertex 0.5 5 1
    endloop
  endfacet
  facet normal 0 0 1
    outer loop
      vertex 0 10 1
      vertex 0.5 5 1
      vertex 0.503943 5.06267 1
    endloop
  endfacet
  facet normal 0 0 1
    outer loop
      vertex 0 10 1
      vertex 0.503943 5.06267 1
      vertex 0.515708 5.12434 1
    endloop
  endfacet
  facet normal 0 0 1
    outer loop
      vertex 1.48429 4.87565 1
      vertex 1.46489 4.81594 1
      vertex 20 0 1
    endloop
  endfacet
  facet normal 0 0 1
    outer loop
      vertex 0 10 1
      vertex 0.515708 5.12434 1
      vertex 0.535112 5.18406 1
    endloop
  endfacet
  facet normal 0 0 1
    outer loop
      vertex 1.49606 4.93733 1
      vertex 1.48429 4.87565 1
      vertex 20 0 1
    endloop
  endfacet
  facet normal 0 0 1
    outer loop
      vertex 0 10 1
      vertex 0.535112 5.18406 1
      vertex 0.561847 5.24088 1
    endloop
  endfacet
  facet normal 0 0 1
    outer loop
      vertex 1.5 5 1
      vertex 1.49606 4.93733 1
      vertex 20 0 1
    endloop
  endfacet
  facet normal 0 0 1
    outer loop
      vertex 0 10 1
      vertex 0.561847 5.24088 1
      vertex 0.595492 5.29389 1
    endloop
  endfacet
  facet normal 0 0 1
    outer loop
      vertex 1.49606 5.06267 1
      vertex 1.5 5 1
      vertex 20 0 1
    endloop
  endfacet
  facet normal 0 0 1
    outer loop
      vertex 0 10 1
      vertex 0.595492 5.29389 1
      vertex 0.635516 5.34227 1
    endloop
  endfacet
  facet normal 0 0 1
    outer loop
      vertex 1.48429 5.12434 1
      vertex 1.49606 5.06267 1
      vertex 20 0 1
    endloop
  endfacet
  facet normal 0 0 1
    outer loop
      vertex 0 10 1
      vertex 0.635516 5.34227 1
      vertex 0.681288 5.38526 1
    endloop
  endfacet
  facet normal 0 0 1
    outer loop
      vertex 1.46489 5.18406 1
      vertex 1.48429 5.12434 1
      vertex 20 0 1
    endloop
  endfacet
  facet normal 0 0 1
    outer loop
      vertex 0 10 1
      vertex 0.681288 5.38526 1
      vertex 0.732087 5.42216 1
    endloop
  endfacet
  facet normal 0 0 1
    outer loop
      vertex 1.43815 5.24088 1
      vertex 1.46489 5.18406 1
      vertex 20 0 1
    endloop
  endfacet
  facet normal 0 0 1
    outer loop
      vertex 0 10 1
      vertex 0.732087 5.42216 1
      vertex 0.78711 5.45241 1
    endloop
  endfacet
  facet normal 0 0 1
    outer loop
      vertex 1.40451 5.29389 1
      vertex 1.43815 5.24088 1
      vertex 20 0 1
    endloop
  endfacet
  facet normal 0 0 1
    outer loop
      vertex 0 10 1
      vertex 0.78711 5.45241 1
      vertex 0.845492 5.47553 1
    endloop
  endfacet
  facet normal 0 0 1
    outer loop
      vertex 1.36448 5.34227 1
      vertex 1.40451 5.29389 1
      vertex 20 0 1
    endloop
  endfacet
  facet normal 0 0 1
    outer loop
      vertex 0 10 1
      vertex 0.845492 5.47553 1
      vertex 0.906309 5.49114 1
    endloop
  endfacet
  facet normal 0 0 1
    outer loop
      vertex 1.31871 5.38526 1
      vertex 1.36448 5.34227 1
      vertex 20 0 1
    endloop
  endfacet
  facet normal 0 0 1
    outer loop
      vertex 0 10 1
      vertex 0.906309 5.49114 1
      vertex 0.968605 5.49901 1
    endloop
  endfacet
  facet normal 0 0 1
    outer loop
      vertex 1.26791 5.42216 1
      vertex 1.31871 5.38526 1
      vertex 20 0 1
    endloop
  endfacet
  facet normal 0 0 1
    outer loop
      vertex 0 10 1
      vertex 0.968605 5.49901 1
      vertex 1.03139 5.49901 1
    endloop
  endfacet
  facet normal 0 0 1
    outer loop
      vertex 1.21289 5.45241 1
      vertex 1.26791 5.42216 1
      vertex 20 0 1
    endloop
  endfacet
  facet normal 0 0 1
    outer loop
      vertex 0 10 1
      vertex 1.03139 5.49901 1
      vertex 1.09369 5.49114 1
    endloop
  endfacet
  facet normal 0 0 1
    outer loop
      vertex 0 10 1
      vertex 1.15451 5.47553 1
      vertex 20 0 1
    endloop
  endfacet
  facet normal 0 0 1
    outer loop
      vertex 0 10 1
      vertex 1.09369 5.49114 1
      vertex 1.15451 5.47553 1
    endloop
  endfacet
  facet normal 0 0 1
    outer loop
      vertex 1.36448 4.65773 1
      vertex 0 0 1
      vertex 1.40451 4.70611 1
    endloop
  endfacet
  facet normal 0 0 1
    outer loop
      vertex 1.31871 4.61474 1
      vertex 0 0 1
      vertex 1.36448 4.65773 1
    endloop
  endfacet
  facet normal 0 0 1
    outer loop
      vertex 1.26791 4.57784 1
      vertex 0 0 1
      vertex 1.31871 4.61474 1
    endloop
  endfacet
  facet normal 0 0 1
    outer loop
      vertex 1.21289 4.54759 1
      vertex 0 0 1
      vertex 1.26791 4.57784 1
    endloop
  endfacet
  facet normal 0 0 1
    outer loop
      vertex 1.15451 4.52447 1
      vertex 0 0 1
      vertex 1.21289 4.54759 1
    endloop
  endfacet
  facet normal 0 0 1
    outer loop
      vertex 1.09369 4.50886 1
      vertex 0 0 1
      vertex 1.15451 4.52447 1
    endloop
  endfacet
  facet normal 0 0 1
    outer loop
      vertex 1.03139 4.50099 1
      vertex 0 0 1
      vertex 1.09369 4.50886 1
    endloop
  endfacet
  facet normal 0 0 1
    outer loop
      vertex 0.968605 4.50099 1
      vertex 0 0 1
      vertex 1.03139 4.50099 1
    endloop
  endfacet
  facet normal 0 0 1
    outer loop
      vertex 0.906309 4.50886 1
      vertex 0 0 1
      vertex 0.968605 4.50099 1
    endloop
  endfacet
  facet normal 0 0 1
    outer loop
      vertex 0.845492 4.52447 1
      vertex 0 0 1
      vertex 0.906309 4.50886 1
    endloop
  endfacet
  facet normal 0 0 1
    outer loop
      vertex 0.78711 4.54759 1
      vertex 0 0 1
      vertex 0.845492 4.52447 1
    endloop
  endfacet
  facet normal 0 0 1
    outer loop
      vertex 0.732087 4.57784 1
      vertex 0 0 1
      vertex 0.78711 4.54759 1
    endloop
  endfacet
  facet normal 0 0 1
    outer loop
      vertex 0.681288 4.61474 1
      vertex 0 0 1
      vertex 0.732087 4.57784 1
    endloop
  endfacet
  facet normal 0 0 1
    outer loop
      vertex 0.635516 4.65773 1
      vertex 0 0 1
      vertex 0.681288 4.61474 1
    endloop
  endfacet
  facet normal 0 0 1
    outer loop
      vertex 0.595492 4.70611 1
      vertex 0 0 1
      vertex 0.635516 4.65773 1
    endloop
  endfacet
  facet normal 0 0 1
    outer loop
      vertex 0.561847 4.75912 1
      vertex 0 0 1
      vertex 0.595492 4.70611 1
    endloop
  endfacet
  facet normal 0 0 1
    outer loop
      vertex 0.535112 4.81594 1
      vertex 0 0 1
      vertex 0.561847 4.75912 1
    endloop
  endfacet
  facet normal 0 0 1
    outer loop
      vertex 0.515708 4.87565 1
      vertex 0 0 1
      vertex 0.535112 4.81594 1
    endloop
  endfacet
  facet normal 0 0 1
    outer loop
      vertex 0.503943 4.93733 1
      vertex 0 0 1
      vertex 0.515708 4.87565 1
    endloop
  endfacet
  facet normal 0 0 1
    outer loop
      vertex 1.15451 5.47553 1
      vertex 1.21289 5.45241 1
      vertex 20 0 1
    endloop
  endfacet
  facet normal 0 0 1
    outer loop
      vertex 1.46489 4.81594 1
      vertex 1.43815 4.75912 1
      vertex 20 0 1
    endloop
  endfacet
  facet normal 1 0 0
    outer loop
      vertex 20 0 1
      vertex 20 0 0
      vertex 20 10 0
    endloop
  endfacet
  facet normal 1 0 0
    outer loop
      vertex 20 10 1
      vertex 20 0 1
      vertex 20 10 0
    endloop
  endfacet
  facet normal -0.998026 -0.0627957 0
    outer loop
      vertex 0.5 5 1
      vertex 0.503943 4.93733 1
      vertex 0.5 5 3
    endloop
  endfacet
  facet normal -0.998026 -0.0627957 0
    outer loop
      vertex 0.5 5 3
      vertex 0.503943 4.93733 1
      vertex 0.503943 4.93733 3
    endloop
  endfacet
  facet normal -0.982289 -0.18737 0
    outer loop
      vertex 0.503943 4.93733 1
      vertex 0.515708 4.87565 1
      vertex 0.503943 4.93733 3
    endloop
  endfacet
  facet normal -0.982289 -0.18737 0
    outer loop
      vertex 0.503943 4.93733 3
      vertex 0.515708 4.87565 1
      vertex 0.515708 4.87565 3
    endloop
  endfacet
  facet normal -0.951053 -0.309028 0
    outer loop
      vertex 0.515708 4.87565 1
      vertex 0.535112 4.81594 1
      vertex 0.515708 4.87565 3
    endloop
  endfacet
  facet normal -0.951053 -0.309028 0
    outer loop
      vertex 0.515708 4.87565 3
      vertex 0.535112 4.81594 1
      vertex 0.535112 4.81594 3
    endloop
  endfacet
  facet normal -0.904828 -0.425778 0
    outer loop
      vertex 0.535112 4.81594 1
      vertex 0.561847 4.75912 1
      vertex 0.535112 4.81594 3
    endloop
  endfacet
  facet normal -0.904828 -0.425778 0
    outer loop
      vertex 0.535112 4.81594 3
      vertex 0.561847 4.75912 1
      vertex 0.561847 4.75912 3
    endloop
  endfacet
  facet normal -0.844328 -0.535827 0
    outer loop
      vertex 0.561847 4.75912 1
      vertex 0.595492 4.70611 1
      vertex 0.561847 4.75912 3
    endloop
  endfacet
  facet normal -0.844328 -0.535827 0
    outer loop
      vertex 0.561847 4.75912 3
      vertex 0.595492 4.70611 1
      vertex 0.595492 4.70611 3
    endloop
  endfacet
  facet normal -0.770515 -0.637422 0
    outer loop
      vertex 0.595492 4.70611 1
      vertex 0.635516 4.65773 1
      vertex 0.595492 4.70611 3
    endloop
  endfacet
  facet normal -0.770515 -0.637422 0
    outer loop
      vertex 0.595492 4.70611 3
      vertex 0.635516 4.65773 1
      vertex 0.635516 4.65773 3
    endloop
  endfacet
  facet normal -0.684549 -0.728967 0
    outer loop
      vertex 0.635516 4.65773 3
      vertex 0.635516 4.65773 1
      vertex 0.681288 4.61474 1
    endloop
  endfacet
  facet normal -0.684549 -0.728967 0
    outer loop
      vertex 0.681288 4.61474 3
      vertex 0.635516 4.65773 3
      vertex 0.681288 4.61474 1
    endloop
  endfacet
  facet normal -0.587779 -0.809022 0
    outer loop
      vertex 0.681288 4.61474 3
      vertex 0.681288 4.61474 1
      vertex 0.732087 4.57784 1
    endloop
  endfacet
  facet normal -0.587779 -0.809022 0
    outer loop
      vertex 0.732087 4.57784 3
      vertex 0.681288 4.61474 3
      vertex 0.732087 4.57784 1
    endloop
  endfacet
  facet normal -0.481764 -0.876301 0
    outer loop
      vertex 0.732087 4.57784 3
      vertex 0.732087 4.57784 1
      vertex 0.78711 4.54759 1
    endloop
  endfacet
  facet normal -0.481764 -0.876301 0
    outer loop
      vertex 0.78711 4.54759 3
      vertex 0.732087 4.57784 3
      vertex 0.78711 4.54759 1
    endloop
  endfacet
  facet normal -0.36811 -0.929782 0
    outer loop
      vertex 0.78711 4.54759 3
      vertex 0.78711 4.54759 1
      vertex 0.845492 4.52447 1
    endloop
  endfacet
  facet normal -0.36811 -0.929782 0
    outer loop
      vertex 0.845492 4.52447 3
      vertex 0.78711 4.54759 3
      vertex 0.845492 4.52447 1
    endloop
  endfacet
  facet normal -0.248703 -0.96858 0
    outer loop
      vertex 0.845492 4.52447 3
      vertex 0.845492 4.52447 1
      vertex 0.906309 4.50886 1
    endloop
  endfacet
  facet normal -0.248703 -0.96858 0
    outer loop
      vertex 0.906309 4.50886 3
      vertex 0.845492 4.52447 3
      vertex 0.906309 4.50886 1
    endloop
  endfacet
  facet normal -0.12532 -0.992116 0
    outer loop
      vertex 0.906309 4.50886 3
      vertex 0.906309 4.50886 1
      vertex 0.968605 4.50099 1
    endloop
  endfacet
  facet normal -0.12532 -0.992116 0
    outer loop
      vertex 0.968605 4.50099 3
      vertex 0.906309 4.50886 3
      vertex 0.968605 4.50099 1
    endloop
  endfacet
  facet normal 0 -1 0
    outer loop
      vertex 0.968605 4.50099 3
      vertex 0.968605 4.50099 1
      vertex 1.03139 4.50099 1
    endloop
  endfacet
  facet normal 0 -1 0
    outer loop
      vertex 1.03139 4.50099 3
      vertex 0.968605 4.50099 3
      vertex 1.03139 4.50099 1
    endloop
  endfacet
  facet normal 0.12532 -0.992116 0
    outer loop
      vertex 1.03139 4.50099 3
      vertex 1.03139 4.50099 1
      vertex 1.09369 4.50886 1
    endloop
  endfacet
  facet normal 0.12532 -0.992116 0
    outer loop
      vertex 1.09369 4.50886 3
      vertex 1.03139 4.50099 3
      vertex 1.09369 4.50886 1
    endloop
  endfacet
  facet normal 0.248703 -0.96858 0
    outer loop
      vertex 1.09369 4.50886 3
      vertex 1.09369 4.50886 1
      vertex 1.15451 4.52447 1
    endloop
  endfacet
  facet normal 0.248703 -0.96858 0
    outer loop
      vertex 1.15451 4.52447 3
      vertex 1.09369 4.50886 3
      vertex 1.15451 4.52447 1
    endloop
  endfacet
  facet normal 0.36811 -0.929782 0
    outer loop
      vertex 1.15451 4.52447 3
      vertex 1.15451 4.52447 1
      vertex 1.21289 4.54759 1
    endloop
  endfacet
  facet normal 0.36811 -0.929782 0
    outer loop
      vertex 1.21289 4.54759 3
      vertex 1.15451 4.52447 3
      vertex 1.21289 4.54759 1
    endloop
  endfacet
  facet normal 0.481764 -0.876301 0
    outer loop
      vertex 1.21289 4.54759 3
      vertex 1.21289 4.54759 1
      vertex 1.26791 4.57784 1
    endloop
  endfacet
  facet normal 0.481764 -0.876301 0
    outer loop
      vertex 1.26791 4.57784 3
      vertex 1.21289 4.54759 3
      vertex 1.26791 4.57784 1
    endloop
  endfacet
  facet normal 0.587779 -0.809022 0
    outer loop
      vertex 1.26791 4.57784 3
      vertex 1.26791 4.57784 1
      vertex 1.31871 4.61474 1
    endloop
  endfacet
  facet normal 0.587779 -0.809022 0
    outer loop
      vertex 1.31871 4.61474 3
      vertex 1.26791 4.57784 3
      vertex 1.31871 4.61474 1
    endloop
  endfacet
  facet normal 0.684549 -0.728967 0
    outer loop
      vertex 1.31871 4.61474 3
      vertex 1.31871 4.61474 1
      vertex 1.36448 4.65773 1
    endloop
  endfacet
  facet normal 0.684549 -0.728967 0
    outer loop
      vertex 1.36448 4.65773 3
      vertex 1.31871 4.61474 3
      vertex 1.36448 4.65773 1
    endloop
  endfacet
  facet normal 0.770515 -0.637422 0
    outer loop
      vertex 1.36448 4.65773 3
      vertex 1.36448 4.65773 1
      vertex 1.40451 4.70611 1
    endloop
  endfacet
  facet normal 0.770515 -0.637422 0
    outer loop
      vertex 1.40451 4.70611 3
      vertex 1.36448 4.65773 3
      vertex 1.40451 4.70611 1
    endloop
  endfacet
  facet normal 0.844328 -0.535827 0
    outer loop
      vertex 1.40451 4.70611 3
      vertex 1.40451 4.70611 1
      vertex 1.43815 4.75912 1
    endloop
  endfacet
  facet normal 0.844328 -0.535827 0
    outer loop
      vertex 1.43815 4.75912 3
      vertex 1.40451 4.70611 3
      vertex 1.43815 4.75912 1
    endloop
  endfacet
  facet normal 0.904828 -0.425778 0
    outer loop
      vertex 1.43815 4.75912 3
      vertex 1.43815 4.75912 1
      vertex 1.46489 4.81594 1
    endloop
  endfacet
  facet normal 0.904828 -0.425778 0
    outer loop
      vertex 1.46489 4.81594 3
      vertex 1.43815 4.75912 3
      vertex 1.46489 4.81594 1
    endloop
  endfacet
  facet normal 0.951053 -0.309028 0
    outer loop
      vertex 1.46489 4.81594 3
      vertex 1.46489 4.81594 1
      vertex 1.48429 4.87565 1
    endloop
  endfacet
  facet normal 0.951053 -0.309028 0
    outer loop
      vertex 1.48429 4.87565 3
      vertex 1.46489 4.81594 3
      vertex 1.48429 4.87565 1
    endloop
  endfacet
  facet normal 0.982289 -0.18737 0
    outer loop
      vertex 1.48429 4.87565 3
      vertex 1.48429 4.87565 1
      vertex 1.49606 4.93733 1
    endloop
  endfacet
  facet normal 0.982289 -0.18737 0
    outer loop
      vertex 1.49606 4.93733 3
      vertex 1.48429 4.87565 3
      vertex 1.49606 4.93733 1
    endloop
  endfacet
  facet normal 0.998026 -0.0627957 0
    outer loop
      vertex 1.49606 4.93733 3
      vertex 1.49606 4.93733 1
      vertex 1.5 5 1
    endloop
  endfacet
  facet normal 0.998026 -0.0627957 0
    outer loop
      vertex 1.5 5 3
      vertex 1.49606 4.93733 3
      vertex 1.5 5 1
    endloop
  endfacet
  facet normal 0.998026 0.0627957 0
    outer loop
      vertex 1.5 5 1
      vertex 1.49606 5.06267 1
      vertex 1.49606 5.06267 3
    endloop
  endfacet
  facet normal 0.998026 0.0627957 0
    outer loop
      vertex 1.5 5 3
      vertex 1.5 5 1
      vertex 1.49606 5.06267 3
    endloop
  endfacet
  facet normal 0.982289 0.18737 0
    outer loop
      vertex 1.49606 5.06267 1
      vertex 1.48429 5.12434 1
      vertex 1.48429 5.12434 3
    endloop
  endfacet
  facet normal 0.982289 0.18737 0
    outer loop
      vertex 1.49606 5.06267 3
      vertex 1.49606 5.06267 1
      vertex 1.48429 5.12434 3
    endloop
  endfacet
  facet normal 0.951053 0.309028 0
    outer loop
      vertex 1.48429 5.12434 1
      vertex 1.46489 5.18406 1
      vertex 1.46489 5.18406 3
    endloop
  endfacet
  facet normal 0.951053 0.309028 0
    outer loop
      vertex 1.48429 5.12434 3
      vertex 1.48429 5.12434 1
      vertex 1.46489 5.18406 3
    endloop
  endfacet
  facet normal 0.904828 0.425778 0
    outer loop
      vertex 1.46489 5.18406 1
      vertex 1.43815 5.24088 1
      vertex 1.43815 5.24088 3
    endloop
  endfacet
  facet normal 0.904828 0.425778 0
    outer loop
      vertex 1.46489 5.18406 3
      vertex 1.46489 5.18406 1
      vertex 1.43815 5.24088 3
    endloop
  endfacet
  facet normal 0.844328 0.535827 0
    outer loop
      vertex 1.43815 5.24088 1
      vertex 1.40451 5.29389 1
      vertex 1.40451 5.29389 3
    endloop
  endfacet
  facet normal 0.844328 0.535827 0
    outer loop
      vertex 1.43815 5.24088 3
      vertex 1.43815 5.24088 1
      vertex 1.40451 5.29389 3
    endloop
  endfacet
  facet normal 0.770515 0.637422 0
    outer loop
      vertex 1.40451 5.29389 1
      vertex 1.36448 5.34227 1
      vertex 1.36448 5.34227 3
    endloop
  endfacet
  facet normal 0.770515 0.637422 0
    outer loop
      vertex 1.40451 5.29389 3
      vertex 1.40451 5.29389 1
      vertex 1.36448 5.34227 3
    endloop
  endfacet
  facet normal 0.684549 0.728967 0
    outer loop
      vertex 1.31871 5.38526 1
      vertex 1.31871 5.38526 3
      vertex 1.36448 5.34227 1
    endloop
  endfacet
  facet normal 0.684549 0.728967 0
    outer loop
      vertex 1.36448 5.34227 1
      vertex 1.31871 5.38526 3
      vertex 1.36448 5.34227 3
    endloop
  endfacet
  facet normal 0.587779 0.809022 0
    outer loop
      vertex 1.26791 5.42216 1
      vertex 1.26791 5.42216 3
      vertex 1.31871 5.38526 1
    endloop
  endfacet
  facet normal 0.587779 0.809022 0
    outer loop
      vertex 1.31871 5.38526 1
      vertex 1.26791 5.42216 3
      vertex 1.31871 5.38526 3
    endloop
  endfacet
  facet normal 0.481764 0.876301 0
    outer loop
      vertex 1.21289 5.45241 1
      vertex 1.21289 5.45241 3
      vertex 1.26791 5.42216 1
    endloop
  endfacet
  facet normal 0.481764 0.876301 0
    outer loop
      vertex 1.26791 5.42216 1
      vertex 1.21289 5.45241 3
      vertex 1.26791 5.42216 3
    endloop
  endfacet
  facet normal 0.36811 0.929782 0
    outer loop
      vertex 1.15451 5.47553 1
      vertex 1.15451 5.47553 3
      vertex 1.21289 5.45241 1
    endloop
  endfacet
  facet normal 0.36811 0.929782 0
    outer loop
      vertex 1.21289 5.45241 1
      vertex 1.15451 5.47553 3
      vertex 1.21289 5.45241 3
    endloop
  endfacet
  facet normal 0.248703 0.96858 0
    outer loop
      vertex 1.09369 5.49114 1
      vertex 1.09369 5.49114 3
      vertex 1.15451 5.47553 1
    endloop
  endfacet
  facet normal 0.248703 0.96858 0
    outer loop
      vertex 1.15451 5.47553 1
      vertex 1.09369 5.49114 3
      vertex 1.15451 5.47553 3
    endloop
  endfacet
  facet normal 0.12532 0.992116 0
    outer loop
      vertex 1.03139 5.49901 1
      vertex 1.03139 5.49901 3
      vertex 1.09369 5.49114 1
    endloop
  endfacet
  facet normal 0.12532 0.992116 0
    outer loop
      vertex 1.09369 5.49114 1
      vertex 1.03139 5.49901 3
      vertex 1.09369 5.49114 3
    endloop
  endfacet
  facet normal 0 1 0
    outer loop
      vertex 0.968605 5.49901 1
      vertex 0.968605 5.49901 3
      vertex 1.03139 5.49901 1
    endloop
  endfacet
  facet normal 0 1 0
    outer loop
      vertex 1.03139 5.49901 1
      vertex 0.968605 5.49901 3
      vertex 1.03139 5.49901 3
    endloop
  endfacet
  facet normal -0.12532 0.992116 0
    outer loop
      vertex 0.906309 5.49114 1
      vertex 0.906309 5.49114 3
      vertex 0.968605 5.49901 1
    endloop
  endfacet
  facet normal -0.12532 0.992116 0
    outer loop
      vertex 0.968605 5.49901 1
      vertex 0.906309 5.49114 3
      vertex 0.968605 5.49901 3
    endloop
  endfacet
  facet normal -0.248703 0.96858 0
    outer loop
      vertex 0.845492 5.47553 1
      vertex 0.845492 5.47553 3
      vertex 0.906309 5.49114 1
    endloop
  endfacet
  facet normal -0.248703 0.96858 0
    outer loop
      vertex 0.906309 5.49114 1
      vertex 0.845492 5.47553 3
      vertex 0.906309 5.49114 3
    endloop
  endfacet
  facet normal -0.36811 0.929782 0
    outer loop
      vertex 0.78711 5.45241 1
      vertex 0.78711 5.45241 3
      vertex 0.845492 5.47553 1
    endloop
  endfacet
  facet normal -0.36811 0.929782 0
    outer loop
      vertex 0.845492 5.47553 1
      vertex 0.78711 5.45241 3
      vertex 0.845492 5.47553 3
    endloop
  endfacet
  facet normal -0.481764 0.876301 0
    outer loop
      vertex 0.732087 5.42216 1
      vertex 0.732087 5.42216 3
      vertex 0.78711 5.45241 1
    endloop
  endfacet
  facet normal -0.481764 0.876301 0
    outer loop
      vertex 0.78711 5.45241 1
      vertex 0.732087 5.42216 3
      vertex 0.78711 5.45241 3
    endloop
  endfacet
  facet normal -0.587779 0.809022 0
    outer loop
      vertex 0.681288 5.38526 1
      vertex 0.681288 5.38526 3
      vertex 0.732087 5.42216 1
    endloop
  endfacet
  facet normal -0.587779 0.809022 0
    outer loop
      vertex 0.732087 5.42216 1
      vertex 0.681288 5.38526 3
      vertex 0.732087 5.42216 3
    endloop
  endfacet
  facet normal -0.684549 0.728967 0
    outer loop
      vertex 0.635516 5.34227 1
      vertex 0.635516 5.34227 3
      vertex 0.681288 5.38526 1
    endloop
  endfacet
  facet normal -0.684549 0.728967 0
    outer loop
      vertex 0.681288 5.38526 1
      vertex 0.635516 5.34227 3
      vertex 0.681288 5.38526 3
    endloop
  endfacet
  facet normal -0.770515 0.637422 0
    outer loop
      vertex 0.595492 5.29389 1
      vertex 0.595492 5.29389 3
      vertex 0.635516 5.34227 1
    endloop
  endfacet
  facet normal -0.770515 0.637422 0
    outer loop
      vertex 0.635516 5.34227 1
      vertex 0.595492 5.29389 3
      vertex 0.635516 5.34227 3
    endloop
  endfacet
  facet normal -0.844328 0.535827 0
    outer loop
      vertex 0.561847 5.24088 1
      vertex 0.561847 5.24088 3
      vertex 0.595492 5.29389 1
    endloop
  endfacet
  facet normal -0.844328 0.535827 0
    outer loop
      vertex 0.595492 5.29389 1
      vertex 0.561847 5.24088 3
      vertex 0.595492 5.29389 3
    endloop
  endfacet
  facet normal -0.904828 0.425778 0
    outer loop
      vertex 0.535112 5.18406 1
      vertex 0.535112 5.18406 3
      vertex 0.561847 5.24088 1
    endloop
  endfacet
  facet normal -0.904828 0.425778 0
    outer loop
      vertex 0.561847 5.24088 1
      vertex 0.535112 5.18406 3
      vertex 0.561847 5.24088 3
    endloop
  endfacet
  facet normal -0.951053 0.309028 0
    outer loop
      vertex 0.515708 5.12434 1
      vertex 0.515708 5.12434 3
      vertex 0.535112 5.18406 1
    endloop
  endfacet
  facet normal -0.951053 0.309028 0
    outer loop
      vertex 0.535112 5.18406 1
      vertex 0.515708 5.12434 3
      vertex 0.535112 5.18406 3
    endloop
  endfacet
  facet normal -0.982289 0.18737 0
    outer loop
      vertex 0.503943 5.06267 1
      vertex 0.503943 5.06267 3
      vertex 0.515708 5.12434 1
    endloop
  endfacet
  facet normal -0.982289 0.18737 0
    outer loop
      vertex 0.515708 5.12434 1
      vertex 0.503943 5.06267 3
      vertex 0.515708 5.12434 3
    endloop
  endfacet
  facet normal -0.998026 0.0627957 0
    outer loop
      vertex 0.5 5 1
      vertex 0.5 5 3
      vertex 0.503943 5.06267 1
    endloop
  endfacet
  facet normal -0.998026 0.0627957 0
    outer loop
      vertex 0.503943 5.06267 1
      vertex 0.5 5 3
      vertex 0.503943 5.06267 3
    endloop
  endfacet
  facet normal 0 0 1
    outer loop
      vertex 0.503943 5.06267 3
      vertex 0.5 5 3
      vertex 0.503943 4.93733 3
    endloop
  endfacet
  facet normal 0 0 1
    outer loop
      vertex 0.535112 4.81594 3
      vertex 0.503943 5.06267 3
      vertex 0.515708 4.87565 3
    endloop
  endfacet
  facet normal 0 0 1
    outer loop
      vertex 0.515708 4.87565 3
      vertex 0.503943 5.06267 3
      vertex 0.503943 4.93733 3
    endloop
  endfacet
  facet normal 0 0 1
    outer loop
      vertex 0.561847 4.75912 3
      vertex 0.503943 5.06267 3
      vertex 0.535112 4.81594 3
    endloop
  endfacet
  facet normal 0 0 1
    outer loop
      vertex 0.595492 4.70611 3
      vertex 0.503943 5.06267 3
      vertex 0.561847 4.75912 3
    endloop
  endfacet
  facet normal 0 0 1
    outer loop
      vertex 0.635516 4.65773 3
      vertex 0.503943 5.06267 3
      vertex 0.595492 4.70611 3
    endloop
  endfacet
  facet normal 0 0 1
    outer loop
      vertex 0.681288 4.61474 3
      vertex 0.503943 5.06267 3
      vertex 0.635516 4.65773 3
    endloop
  endfacet
  facet normal 0 0 1
    outer loop
      vertex 0.732087 4.57784 3
      vertex 0.503943 5.06267 3
      vertex 0.681288 4.61474 3
    endloop
  endfacet
  facet normal 0 0 1
    outer loop
      vertex 0.78711 4.54759 3
      vertex 0.503943 5.06267 3
      vertex 0.732087 4.57784 3
    endloop
  endfacet
  facet normal 0 0 1
    outer loop
      vertex 0.845492 4.52447 3
      vertex 0.503943 5.06267 3
      vertex 0.78711 4.54759 3
    endloop
  endfacet
  facet normal 0 0 1
    outer loop
      vertex 0.906309 4.50886 3
      vertex 0.503943 5.06267 3
      vertex 0.845492 4.52447 3
    endloop
  endfacet
  facet normal 0 0 1
    outer loop
      vertex 0.968605 4.50099 3
      vertex 0.503943 5.06267 3
      vertex 0.906309 4.50886 3
    endloop
  endfacet
  facet normal 0 0 1
    outer loop
      vertex 1.03139 4.50099 3
      vertex 0.503943 5.06267 3
      vertex 0.968605 4.50099 3
    endloop
  endfacet
  facet normal 0 0 1
    outer loop
      vertex 1.09369 4.50886 3
      vertex 0.503943 5.06267 3
      vertex 1.03139 4.50099 3
    endloop
  endfacet
  facet normal 0 0 1
    outer loop
      vertex 1.15451 4.52447 3
      vertex 0.503943 5.06267 3
      vertex 1.09369 4.50886 3
    endloop
  endfacet
  facet normal 0 0 1
    outer loop
      vertex 1.21289 4.54759 3
      vertex 0.503943 5.06267 3
      vertex 1.15451 4.52447 3
    endloop
  endfacet
  facet normal 0 0 1
    outer loop
      vertex 1.26791 4.57784 3
      vertex 0.503943 5.06267 3
      vertex 1.21289 4.54759 3
    endloop
  endfacet
  facet normal 0 0 1
    outer loop
      vertex 1.31871 4.61474 3
      vertex 0.503943 5.06267 3
      vertex 1.26791 4.57784 3
    endloop
  endfacet
  facet normal 0 0 1
    outer loop
      vertex 1.36448 4.65773 3
      vertex 0.503943 5.06267 3
      vertex 1.31871 4.61474 3
    endloop
  endfacet
  facet normal 0 0 1
    outer loop
      vertex 1.40451 4.70611 3
      vertex 0.503943 5.06267 3
      vertex 1.36448 4.65773 3
    endloop
  endfacet
  facet normal 0 0 1
    outer loop
      vertex 1.43815 4.75912 3
      vertex 0.503943 5.06267 3
      vertex 1.40451 4.70611 3
    endloop
  endfacet
  facet normal 0 0 1
    outer loop
      vertex 1.46489 4.81594 3
      vertex 0.503943 5.06267 3
      vertex 1.43815 4.75912 3
    endloop
  endfacet
  facet normal 0 0 1
    outer loop
      vertex 1.48429 4.87565 3
      vertex 0.503943 5.06267 3
      vertex 1.46489 4.81594 3
    endloop
  endfacet
  facet normal 0 0 1
    outer loop
      vertex 1.49606 4.93733 3
      vertex 0.503943 5.06267 3
      vertex 1.48429 4.87565 3
    endloop
  endfacet
  facet normal 0 0 1
    outer loop
      vertex 1.5 5 3
      vertex 0.503943 5.06267 3
      vertex 1.49606 4.93733 3
    endloop
  endfacet
  facet normal 0 0 1
    outer loop
      vertex 1.49606 5.06267 3
      vertex 0.503943 5.06267 3
      vertex 1.5 5 3
    endloop
  endfacet
  facet normal 0 0 1
    outer loop
      vertex 1.48429 5.12434 3
      vertex 0.503943 5.06267 3
      vertex 1.49606 5.06267 3
    endloop
  endfacet
  facet normal 0 0 1
    outer loop
      vertex 1.46489 5.18406 3
      vertex 0.503943 5.06267 3
      vertex 1.48429 5.12434 3
    endloop
  endfacet
  facet normal 0 0 1
    outer loop
      vertex 1.43815 5.24088 3
      vertex 0.503943 5.06267 3
      vertex 1.46489 5.18406 3
    endloop
  endfacet
  facet normal 0 0 1
    outer loop
      vertex 1.40451 5.29389 3
      vertex 0.503943 5.06267 3
      vertex 1.43815 5.24088 3
    endloop
  endfacet
  facet normal 0 0 1
    outer loop
      vertex 1.36448 5.34227 3
      vertex 0.503943 5.06267 3
      vertex 1.40451 5.29389 3
    endloop
  endfacet
  facet normal 0 0 1
    outer loop
      vertex 1.31871 5.38526 3
      vertex 0.503943 5.06267 3
      vertex 1.36448 5.34227 3
    endloop
  endfacet
  facet normal 0 0 1
    outer loop
      vertex 1.26791 5.42216 3
      vertex 0.503943 5.06267 3
      vertex 1.31871 5.38526 3
    endloop
  endfacet
  facet normal 0 0 1
    outer loop
      vertex 1.21289 5.45241 3
      vertex 0.503943 5.06267 3
      vertex 1.26791 5.42216 3
    endloop
  endfacet
  facet normal 0 0 1
    outer loop
      vertex 1.15451 5.47553 3
      vertex 0.503943 5.06267 3
      vertex 1.21289 5.45241 3
    endloop
  endfacet
  facet normal 0 0 1
    outer loop
      vertex 1.09369 5.49114 3
      vertex 0.503943 5.06267 3
      vertex 1.15451 5.47553 3
    endloop
  endfacet
  facet normal 0 0 1
    outer loop
      vertex 1.03139 5.49901 3
      vertex 0.503943 5.06267 3
      vertex 1.09369 5.49114 3
    endloop
  endfacet
  facet normal 0 0 1
    outer loop
      vertex 0.968605 5.49901 3
      vertex 0.503943 5.06267 3
      vertex 1.03139 5.49901 3
    endloop
  endfacet
  facet normal 0 0 1
    outer loop
      vertex 0.906309 5.49114 3
      vertex 0.503943 5.06267 3
      vertex 0.968605 5.49901 3
    endloop
  endfacet
  facet normal 0 0 1
    outer loop
      vertex 0.845492 5.47553 3
      vertex 0.503943 5.06267 3
      vertex 0.906309 5.49114 3
    endloop
  endfacet
  facet normal 0 0 1
    outer loop
      vertex 0.78711 5.45241 3
      vertex 0.503943 5.06267 3
      vertex 0.845492 5.47553 3
    endloop
  endfacet
  facet normal 0 0 1
    outer loop
      vertex 0.732087 5.42216 3
      vertex 0.503943 5.06267 3
      vertex 0.78711 5.45241 3
    endloop
  endfacet
  facet normal 0 0 1
    outer loop
      vertex 0.681288 5.38526 3
      vertex 0.503943 5.06267 3
      vertex 0.732087 5.42216 3
    endloop
  endfacet
  facet normal 0 0 1
    outer loop
      vertex 0.635516 5.34227 3
      vertex 0.503943 5.06267 3
      vertex 0.681288 5.38526 3
    endloop
  endfacet
  facet normal 0 0 1
    outer loop
      vertex 0.595492 5.29389 3
      vertex 0.503943 5.06267 3
      vertex 0.635516 5.34227 3
    endloop
  endfacet
  facet normal 0 0 1
    outer loop
      vertex 0.561847 5.24088 3
      vertex 0.503943 5.06267 3
      vertex 0.595492 5.29389 3
    endloop
  endfacet
  facet normal 0 0 1
    outer loop
      vertex 0.535112 5.18406 3
      vertex 0.503943 5.06267 3
      vertex 0.561847 5.24088 3
    endloop
  endfacet
  facet normal 0 0 1
    outer loop
      vertex 0.515708 5.12434 3
      vertex 0.503943 5.06267 3
      vertex 0.535112 5.18406 3
    endloop
  endfacet
  facet normal 0 0 -1
    outer loop
      vertex 0 13 0
      vertex 0.007885 13.1253 0
      vertex 0.007885 12.8747 0
    endloop
  endfacet
  facet normal 0 0 -1
    outer loop
      vertex 0.007885 12.8747 0
      vertex 0.007885 13.1253 0
      vertex 0.031417 13.2487 0
    endloop
  endfacet
  facet normal 0 0 -1
    outer loop
      vertex 0.007885 12.8747 0
      vertex 0.031417 13.2487 0
      vertex 0.070224 13.3681 0
    endloop
  endfacet
  facet normal 0 0 -1
    outer loop
      vertex 0.007885 12.8747 0
      vertex 0.070224 13.3681 0
      vertex 0.123693 13.4818 0
    endloop
  endfacet
  facet normal 0 0 -1
    outer loop
      vertex 0.007885 12.8747 0
      vertex 0.123693 13.4818 0
      vertex 0.190983 13.5878 0
    endloop
  endfacet
  facet normal 0 0 -1
    outer loop
      vertex 0.007885 12.8747 0
      vertex 0.190983 13.5878 0
      vertex 0.271031 13.6845 0
    endloop
  endfacet
  facet normal 0 0 -1
    outer loop
      vertex 0.007885 12.8747 0
      vertex 0.271031 13.6845 0
      vertex 0.362576 13.7705 0
    endloop
  endfacet
  facet normal 0 0 -1
    outer loop
      vertex 0.007885 12.8747 0
      vertex 0.362576 13.7705 0
      vertex 0.464173 13.8443 0
    endloop
  endfacet
  facet normal 0 0 -1
    outer loop
      vertex 0.007885 12.8747 0
      vertex 0.464173 13.8443 0
      vertex 0.574221 13.9048 0
    endloop
  endfacet
  facet normal 0 0 -1
    outer loop
      vertex 0.007885 12.8747 0
      vertex 0.574221 13.9048 0
      vertex 0.690983 13.9511 0
    endloop
  endfacet
  facet normal 0 0 -1
    outer loop
      vertex 0.007885 12.8747 0
      vertex 0.690983 13.9511 0
      vertex 0.812619 13.9823 0
    endloop
  endfacet
  facet normal 0 0 -1
    outer loop
      vertex 0.553803 13.5394 0
      vertex 0.812619 13.9823 0
      vertex 0.937209 13.998 0
    endloop
  endfacet
  facet normal 0 0 -1
    outer loop
      vertex 0.701954 13.6334 0
      vertex 0.937209 13.998 0
      vertex 1.06279 13.998 0
    endloop
  endfacet
  facet normal 0 0 -1
    outer loop
      vertex 0.868833 13.6876 0
      vertex 1.06279 13.998 0
      vertex 1.18738 13.9823 0
    endloop
  endfacet
  facet normal 0 0 -1
    outer loop
      vertex 0.956047 13.6986 0
      vertex 1.18738 13.9823 0
      vertex 1.30902 13.9511 0
    endloop
  endfacet
  facet normal 0 0 -1
    outer loop
      vertex 1.04395 13.6986 0
      vertex 1.30902 13.9511 0
      vertex 1.42578 13.9048 0
    endloop
  endfacet
  facet normal 0 0 -1
    outer loop
      vertex 1.21631 13.6657 0
      vertex 1.42578 13.9048 0
      vertex 1.53583 13.8443 0
    endloop
  endfacet
  facet normal 0 0 -1
    outer loop
      vertex 1.29805 13.6334 0
      vertex 1.53583 13.8443 0
      vertex 1.63742 13.7705 0
    endloop
  endfacet
  facet normal 0 0 -1
    outer loop
      vertex 1.37508 13.591 0
      vertex 1.63742 13.7705 0
      vertex 1.72897 13.6845 0
    endloop
  endfacet
  facet normal 0 0 -1
    outer loop
      vertex 1.51028 13.4792 0
      vertex 1.72897 13.6845 0
      vertex 1.80902 13.5878 0
    endloop
  endfacet
  facet normal 0 0 -1
    outer loop
      vertex 1.56631 13.4114 0
      vertex 1.80902 13.5878 0
      vertex 1.86473 13.5 0
    endloop
  endfacet
  facet normal 0 0 -1
    outer loop
      vertex 1.7 13 0
      vertex 1.86473 13.5 0
      vertex 16 13.5 0
    endloop
  endfacet
  facet normal 0 0 -1
    outer loop
      vertex 16 13.5 0
      vertex 16 15.5 0
      vertex 19 15.5 0
    endloop
  endfacet
  facet normal 0 0 -1
    outer loop
      vertex 16 13.5 0
      vertex 19 15.5 0
      vertex 19 10.5 0
    endloop
  endfacet
  facet normal 0 0 -1
    outer loop
      vertex 1.86473 12.5 0
      vertex 1.61341 12.6628 0
      vertex 1.65084 12.7423 0
    endloop
  endfacet
  facet normal 0 0 -1
    outer loop
      vertex 16 13.5 0
      vertex 19 10.5 0
      vertex 16 12.5 0
    endloop
  endfacet
  facet normal 0 0 -1
    outer loop
      vertex 1.51028 12.5208 0
      vertex 1.80902 12.4122 0
      vertex 1.4462 12.4606 0
    endloop
  endfacet
  facet normal 0 0 -1
    outer loop
      vertex 0.3 13 0
      vertex 0.007885 12.8747 0
      vertex 0.30552 13.0877 0
    endloop
  endfacet
  facet normal 0 0 -1
    outer loop
      vertex 1.51028 12.5208 0
      vertex 1.86473 12.5 0
      vertex 1.80902 12.4122 0
    endloop
  endfacet
  facet normal 0 0 -1
    outer loop
      vertex 1.4462 12.4606 0
      vertex 1.80902 12.4122 0
      vertex 1.72897 12.3155 0
    endloop
  endfacet
  facet normal 0 0 -1
    outer loop
      vertex 1.29805 12.3666 0
      vertex 1.72897 12.3155 0
      vertex 1.63742 12.2295 0
    endloop
  endfacet
  facet normal 0 0 -1
    outer loop
      vertex 1.21631 12.3343 0
      vertex 1.63742 12.2295 0
      vertex 1.53583 12.1557 0
    endloop
  endfacet
  facet normal 0 0 -1
    outer loop
      vertex 1.13117 12.3124 0
      vertex 1.53583 12.1557 0
      vertex 1.42578 12.0952 0
    endloop
  endfacet
  facet normal 0 0 -1
    outer loop
      vertex 0.956047 12.3014 0
      vertex 1.42578 12.0952 0
      vertex 1.30902 12.0489 0
    endloop
  endfacet
  facet normal 0 0 -1
    outer loop
      vertex 0.783688 12.3343 0
      vertex 1.30902 12.0489 0
      vertex 1.18738 12.0177 0
    endloop
  endfacet
  facet normal 0 0 -1
    outer loop
      vertex 0.624921 12.409 0
      vertex 1.18738 12.0177 0
      vertex 1.06279 12.002 0
    endloop
  endfacet
  facet normal 0 0 -1
    outer loop
      vertex 0.007885 12.8747 0
      vertex 1.06279 12.002 0
      vertex 0.937209 12.002 0
    endloop
  endfacet
  facet normal 0 0 -1
    outer loop
      vertex 0.007885 12.8747 0
      vertex 0.937209 12.002 0
      vertex 0.812619 12.0177 0
    endloop
  endfacet
  facet normal 0 0 -1
    outer loop
      vertex 0.007885 12.8747 0
      vertex 0.812619 12.0177 0
      vertex 0.690983 12.0489 0
    endloop
  endfacet
  facet normal 0 0 -1
    outer loop
      vertex 0.007885 12.8747 0
      vertex 0.690983 12.0489 0
      vertex 0.574221 12.0952 0
    endloop
  endfacet
  facet normal 0 0 -1
    outer loop
      vertex 0.007885 12.8747 0
      vertex 0.574221 12.0952 0
      vertex 0.464173 12.1557 0
    endloop
  endfacet
  facet normal 0 0 -1
    outer loop
      vertex 0.007885 12.8747 0
      vertex 0.464173 12.1557 0
      vertex 0.362576 12.2295 0
    endloop
  endfacet
  facet normal 0 0 -1
    outer loop
      vertex 0.007885 12.8747 0
      vertex 0.362576 12.2295 0
      vertex 0.271031 12.3155 0
    endloop
  endfacet
  facet normal 0 0 -1
    outer loop
      vertex 0.007885 12.8747 0
      vertex 0.271031 12.3155 0
      vertex 0.190983 12.4122 0
    endloop
  endfacet
  facet normal 0 0 -1
    outer loop
      vertex 0.007885 12.8747 0
      vertex 0.190983 12.4122 0
      vertex 0.123693 12.5182 0
    endloop
  endfacet
  facet normal 0 0 -1
    outer loop
      vertex 0.007885 12.8747 0
      vertex 0.123693 12.5182 0
      vertex 0.070224 12.6319 0
    endloop
  endfacet
  facet normal 0 0 -1
    outer loop
      vertex 0.007885 12.8747 0
      vertex 0.070224 12.6319 0
      vertex 0.031417 12.7513 0
    endloop
  endfacet
  facet normal 0 0 -1
    outer loop
      vertex 0.30552 12.9123 0
      vertex 0.007885 12.8747 0
      vertex 0.3 13 0
    endloop
  endfacet
  facet normal 0 0 -1
    outer loop
      vertex 0.321992 12.8259 0
      vertex 0.007885 12.8747 0
      vertex 0.30552 12.9123 0
    endloop
  endfacet
  facet normal 0 0 -1
    outer loop
      vertex 0.386585 12.6628 0
      vertex 0.007885 12.8747 0
      vertex 0.349156 12.7423 0
    endloop
  endfacet
  facet normal 0 0 -1
    outer loop
      vertex 0.433688 12.5885 0
      vertex 0.007885 12.8747 0
      vertex 0.386585 12.6628 0
    endloop
  endfacet
  facet normal 0 0 -1
    outer loop
      vertex 0.489722 12.5208 0
      vertex 0.007885 12.8747 0
      vertex 0.433688 12.5885 0
    endloop
  endfacet
  facet normal 0 0 -1
    outer loop
      vertex 0.624921 12.409 0
      vertex 1.06279 12.002 0
      vertex 0.553803 12.4606 0
    endloop
  endfacet
  facet normal 0 0 -1
    outer loop
      vertex 0.007885 12.8747 0
      vertex 0.489722 12.5208 0
      vertex 0.553803 12.4606 0
    endloop
  endfacet
  facet normal 0 0 -1
    outer loop
      vertex 0.007885 12.8747 0
      vertex 0.553803 12.4606 0
      vertex 1.06279 12.002 0
    endloop
  endfacet
  facet normal 0 0 -1
    outer loop
      vertex 0.701954 12.3666 0
      vertex 1.18738 12.0177 0
      vertex 0.624921 12.409 0
    endloop
  endfacet
  facet normal 0 0 -1
    outer loop
      vertex 0.783688 12.3343 0
      vertex 1.18738 12.0177 0
      vertex 0.701954 12.3666 0
    endloop
  endfacet
  facet normal 0 0 -1
    outer loop
      vertex 0.868833 12.3124 0
      vertex 1.30902 12.0489 0
      vertex 0.783688 12.3343 0
    endloop
  endfacet
  facet normal 0 0 -1
    outer loop
      vertex 0.956047 12.3014 0
      vertex 1.30902 12.0489 0
      vertex 0.868833 12.3124 0
    endloop
  endfacet
  facet normal 0 0 -1
    outer loop
      vertex 1.04395 12.3014 0
      vertex 1.42578 12.0952 0
      vertex 0.956047 12.3014 0
    endloop
  endfacet
  facet normal 0 0 -1
    outer loop
      vertex 1.13117 12.3124 0
      vertex 1.42578 12.0952 0
      vertex 1.04395 12.3014 0
    endloop
  endfacet
  facet normal 0 0 -1
    outer loop
      vertex 1.37508 12.409 0
      vertex 1.72897 12.3155 0
      vertex 1.29805 12.3666 0
    endloop
  endfacet
  facet normal 0 0 -1
    outer loop
      vertex 1.4462 12.4606 0
      vertex 1.72897 12.3155 0
      vertex 1.37508 12.409 0
    endloop
  endfacet
  facet normal 0 0 -1
    outer loop
      vertex 1.29805 12.3666 0
      vertex 1.63742 12.2295 0
      vertex 1.21631 12.3343 0
    endloop
  endfacet
  facet normal 0 0 -1
    outer loop
      vertex 1.21631 12.3343 0
      vertex 1.53583 12.1557 0
      vertex 1.13117 12.3124 0
    endloop
  endfacet
  facet normal 0 0 -1
    outer loop
      vertex 1.04395 13.6986 0
      vertex 1.42578 13.9048 0
      vertex 1.13117 13.6876 0
    endloop
  endfacet
  facet normal 0 0 -1
    outer loop
      vertex 1.69448 12.9123 0
      vertex 16 12.5 0
      vertex 1.67801 12.8259 0
    endloop
  endfacet
  facet normal 0 0 -1
    outer loop
      vertex 1.86473 12.5 0
      vertex 1.56631 12.5885 0
      vertex 1.61341 12.6628 0
    endloop
  endfacet
  facet normal 0 0 -1
    outer loop
      vertex 1.21631 13.6657 0
      vertex 1.53583 13.8443 0
      vertex 1.29805 13.6334 0
    endloop
  endfacet
  facet normal 0 0 -1
    outer loop
      vertex 0.349156 12.7423 0
      vertex 0.007885 12.8747 0
      vertex 0.321992 12.8259 0
    endloop
  endfacet
  facet normal 0 0 -1
    outer loop
      vertex 1.56631 12.5885 0
      vertex 1.86473 12.5 0
      vertex 1.51028 12.5208 0
    endloop
  endfacet
  facet normal 0 0 -1
    outer loop
      vertex 16 12.5 0
      vertex 1.65084 12.7423 0
      vertex 1.67801 12.8259 0
    endloop
  endfacet
  facet normal 0 0 -1
    outer loop
      vertex 16 13.5 0
      vertex 16 12.5 0
      vertex 1.69448 12.9123 0
    endloop
  endfacet
  facet normal 0 0 -1
    outer loop
      vertex 1.69448 13.0877 0
      vertex 1.86473 13.5 0
      vertex 1.7 13 0
    endloop
  endfacet
  facet normal 0 0 -1
    outer loop
      vertex 1.56631 13.4114 0
      vertex 1.86473 13.5 0
      vertex 1.61341 13.3372 0
    endloop
  endfacet
  facet normal 0 0 -1
    outer loop
      vertex 1.67801 13.1741 0
      vertex 1.86473 13.5 0
      vertex 1.69448 13.0877 0
    endloop
  endfacet
  facet normal 0 0 -1
    outer loop
      vertex 1.65084 13.2577 0
      vertex 1.86473 13.5 0
      vertex 1.67801 13.1741 0
    endloop
  endfacet
  facet normal 0 0 -1
    outer loop
      vertex 1.61341 13.3372 0
      vertex 1.86473 13.5 0
      vertex 1.65084 13.2577 0
    endloop
  endfacet
  facet normal 0 0 -1
    outer loop
      vertex 1.7 13 0
      vertex 16 13.5 0
      vertex 1.69448 12.9123 0
    endloop
  endfacet
  facet normal 0 0 -1
    outer loop
      vertex 1.4462 13.5394 0
      vertex 1.72897 13.6845 0
      vertex 1.51028 13.4792 0
    endloop
  endfacet
  facet normal 0 0 -1
    outer loop
      vertex 1.37508 13.591 0
      vertex 1.72897 13.6845 0
      vertex 1.4462 13.5394 0
    endloop
  endfacet
  facet normal 0 0 -1
    outer loop
      vertex 1.51028 13.4792 0
      vertex 1.80902 13.5878 0
      vertex 1.56631 13.4114 0
    endloop
  endfacet
  facet normal 0 0 -1
    outer loop
      vertex 1.13117 13.6876 0
      vertex 1.42578 13.9048 0
      vertex 1.21631 13.6657 0
    endloop
  endfacet
  facet normal 0 0 -1
    outer loop
      vertex 0.956047 13.6986 0
      vertex 1.30902 13.9511 0
      vertex 1.04395 13.6986 0
    endloop
  endfacet
  facet normal 0 0 -1
    outer loop
      vertex 0.868833 13.6876 0
      vertex 1.18738 13.9823 0
      vertex 0.956047 13.6986 0
    endloop
  endfacet
  facet normal 0 0 -1
    outer loop
      vertex 0.783688 13.6657 0
      vertex 1.06279 13.998 0
      vertex 0.868833 13.6876 0
    endloop
  endfacet
  facet normal 0 0 -1
    outer loop
      vertex 0.701954 13.6334 0
      vertex 1.06279 13.998 0
      vertex 0.783688 13.6657 0
    endloop
  endfacet
  facet normal 0 0 -1
    outer loop
      vertex 0.624921 13.591 0
      vertex 0.937209 13.998 0
      vertex 0.701954 13.6334 0
    endloop
  endfacet
  facet normal 0 0 -1
    outer loop
      vertex 0.553803 13.5394 0
      vertex 0.937209 13.998 0
      vertex 0.624921 13.591 0
    endloop
  endfacet
  facet normal 0 0 -1
    outer loop
      vertex 0.489722 13.4792 0
      vertex 0.812619 13.9823 0
      vertex 0.553803 13.5394 0
    endloop
  endfacet
  facet normal 0 0 -1
    outer loop
      vertex 0.386585 13.3372 0
      vertex 0.007885 12.8747 0
      vertex 0.433688 13.4114 0
    endloop
  endfacet
  facet normal 0 0 -1
    outer loop
      vertex 0.433688 13.4114 0
      vertex 0.812619 13.9823 0
      vertex 0.489722 13.4792 0
    endloop
  endfacet
  facet normal 0 0 -1
    outer loop
      vertex 0.007885 12.8747 0
      vertex 0.812619 13.9823 0
      vertex 0.433688 13.4114 0
    endloop
  endfacet
  facet normal 0 0 -1
    outer loop
      vertex 0.349156 13.2577 0
      vertex 0.007885 12.8747 0
      vertex 0.386585 13.3372 0
    endloop
  endfacet
  facet normal 0 0 -1
    outer loop
      vertex 0.321992 13.1741 0
      vertex 0.007885 12.8747 0
      vertex 0.349156 13.2577 0
    endloop
  endfacet
  facet normal 0 0 -1
    outer loop
      vertex 0.30552 13.0877 0
      vertex 0.007885 12.8747 0
      vertex 0.321992 13.1741 0
    endloop
  endfacet
  facet normal 0 0 -1
    outer loop
      vertex 16 12.5 0
      vertex 19 10.5 0
      vertex 16 10.5 0
    endloop
  endfacet
  facet normal 0 0 -1
    outer loop
      vertex 1.29805 13.6334 0
      vertex 1.63742 13.7705 0
      vertex 1.37508 13.591 0
    endloop
  endfacet
  facet normal 0 0 -1
    outer loop
      vertex 1.86473 12.5 0
      vertex 1.65084 12.7423 0
      vertex 16 12.5 0
    endloop
  endfacet
  facet normal -0.998027 0.0627883 0
    outer loop
      vertex 0 13 0
      vertex 0 13 1
      vertex 0.007885 13.1253 0
    endloop
  endfacet
  facet normal -0.998027 0.0627883 0
    outer loop
      vertex 0.007885 13.1253 0
      vertex 0 13 1
      vertex 0.007885 13.1253 1
    endloop
  endfacet
  facet normal -0.998027 -0.0627883 0
    outer loop
      vertex 0 13 0
      vertex 0.007885 12.8747 0
      vertex 0 13 1
    endloop
  endfacet
  facet normal -0.998027 -0.0627883 0
    outer loop
      vertex 0 13 1
      vertex 0.007885 12.8747 0
      vertex 0.007885 12.8747 1
    endloop
  endfacet
  facet normal -0.982287 -0.187384 0
    outer loop
      vertex 0.007885 12.8747 0
      vertex 0.031417 12.7513 0
      vertex 0.007885 12.8747 1
    endloop
  endfacet
  facet normal -0.982287 -0.187384 0
    outer loop
      vertex 0.007885 12.8747 1
      vertex 0.031417 12.7513 0
      vertex 0.031417 12.7513 1
    endloop
  endfacet
  facet normal -0.951056 -0.309019 0
    outer loop
      vertex 0.031417 12.7513 0
      vertex 0.070224 12.6319 0
      vertex 0.031417 12.7513 1
    endloop
  endfacet
  facet normal -0.951056 -0.309019 0
    outer loop
      vertex 0.031417 12.7513 1
      vertex 0.070224 12.6319 0
      vertex 0.070224 12.6319 1
    endloop
  endfacet
  facet normal -0.904829 -0.425774 0
    outer loop
      vertex 0.070224 12.6319 0
      vertex 0.123693 12.5182 0
      vertex 0.070224 12.6319 1
    endloop
  endfacet
  facet normal -0.904829 -0.425774 0
    outer loop
      vertex 0.070224 12.6319 1
      vertex 0.123693 12.5182 0
      vertex 0.123693 12.5182 1
    endloop
  endfacet
  facet normal -0.844325 -0.535831 0
    outer loop
      vertex 0.123693 12.5182 0
      vertex 0.190983 12.4122 0
      vertex 0.123693 12.5182 1
    endloop
  endfacet
  facet normal -0.844325 -0.535831 0
    outer loop
      vertex 0.123693 12.5182 1
      vertex 0.190983 12.4122 0
      vertex 0.190983 12.4122 1
    endloop
  endfacet
  facet normal -0.770515 -0.637422 0
    outer loop
      vertex 0.190983 12.4122 0
      vertex 0.271031 12.3155 0
      vertex 0.190983 12.4122 1
    endloop
  endfacet
  facet normal -0.770515 -0.637422 0
    outer loop
      vertex 0.190983 12.4122 1
      vertex 0.271031 12.3155 0
      vertex 0.271031 12.3155 1
    endloop
  endfacet
  facet normal -0.684545 -0.728971 0
    outer loop
      vertex 0.271031 12.3155 1
      vertex 0.271031 12.3155 0
      vertex 0.362576 12.2295 0
    endloop
  endfacet
  facet normal -0.684545 -0.728971 0
    outer loop
      vertex 0.362576 12.2295 1
      vertex 0.271031 12.3155 1
      vertex 0.362576 12.2295 0
    endloop
  endfacet
  facet normal -0.587788 -0.809015 0
    outer loop
      vertex 0.362576 12.2295 1
      vertex 0.362576 12.2295 0
      vertex 0.464173 12.1557 0
    endloop
  endfacet
  facet normal -0.587788 -0.809015 0
    outer loop
      vertex 0.464173 12.1557 1
      vertex 0.362576 12.2295 1
      vertex 0.464173 12.1557 0
    endloop
  endfacet
  facet normal -0.481751 -0.876308 0
    outer loop
      vertex 0.464173 12.1557 1
      vertex 0.464173 12.1557 0
      vertex 0.574221 12.0952 0
    endloop
  endfacet
  facet normal -0.481751 -0.876308 0
    outer loop
      vertex 0.574221 12.0952 1
      vertex 0.464173 12.1557 1
      vertex 0.574221 12.0952 0
    endloop
  endfacet
  facet normal -0.368129 -0.929775 0
    outer loop
      vertex 0.574221 12.0952 1
      vertex 0.574221 12.0952 0
      vertex 0.690983 12.0489 0
    endloop
  endfacet
  facet normal -0.368129 -0.929775 0
    outer loop
      vertex 0.690983 12.0489 1
      vertex 0.574221 12.0952 1
      vertex 0.690983 12.0489 0
    endloop
  endfacet
  facet normal -0.248684 -0.968585 0
    outer loop
      vertex 0.690983 12.0489 1
      vertex 0.690983 12.0489 0
      vertex 0.812619 12.0177 0
    endloop
  endfacet
  facet normal -0.248684 -0.968585 0
    outer loop
      vertex 0.812619 12.0177 1
      vertex 0.690983 12.0489 1
      vertex 0.812619 12.0177 0
    endloop
  endfacet
  facet normal -0.125338 -0.992114 0
    outer loop
      vertex 0.812619 12.0177 1
      vertex 0.812619 12.0177 0
      vertex 0.937209 12.002 0
    endloop
  endfacet
  facet normal -0.125338 -0.992114 0
    outer loop
      vertex 0.937209 12.002 1
      vertex 0.812619 12.0177 1
      vertex 0.937209 12.002 0
    endloop
  endfacet
  facet normal 0 -1 0
    outer loop
      vertex 0.937209 12.002 1
      vertex 0.937209 12.002 0
      vertex 1.06279 12.002 0
    endloop
  endfacet
  facet normal 0 -1 0
    outer loop
      vertex 1.06279 12.002 1
      vertex 0.937209 12.002 1
      vertex 1.06279 12.002 0
    endloop
  endfacet
  facet normal 0.125338 -0.992114 0
    outer loop
      vertex 1.06279 12.002 1
      vertex 1.06279 12.002 0
      vertex 1.18738 12.0177 0
    endloop
  endfacet
  facet normal 0.125338 -0.992114 0
    outer loop
      vertex 1.18738 12.0177 1
      vertex 1.06279 12.002 1
      vertex 1.18738 12.0177 0
    endloop
  endfacet
  facet normal 0.248684 -0.968585 0
    outer loop
      vertex 1.18738 12.0177 1
      vertex 1.18738 12.0177 0
      vertex 1.30902 12.0489 0
    endloop
  endfacet
  facet normal 0.248684 -0.968585 0
    outer loop
      vertex 1.30902 12.0489 1
      vertex 1.18738 12.0177 1
      vertex 1.30902 12.0489 0
    endloop
  endfacet
  facet normal 0.368129 -0.929775 0
    outer loop
      vertex 1.30902 12.0489 1
      vertex 1.30902 12.0489 0
      vertex 1.42578 12.0952 0
    endloop
  endfacet
  facet normal 0.368129 -0.929775 0
    outer loop
      vertex 1.42578 12.0952 1
      vertex 1.30902 12.0489 1
      vertex 1.42578 12.0952 0
    endloop
  endfacet
  facet normal 0.481751 -0.876308 0
    outer loop
      vertex 1.42578 12.0952 1
      vertex 1.42578 12.0952 0
      vertex 1.53583 12.1557 0
    endloop
  endfacet
  facet normal 0.481751 -0.876308 0
    outer loop
      vertex 1.53583 12.1557 1
      vertex 1.42578 12.0952 1
      vertex 1.53583 12.1557 0
    endloop
  endfacet
  facet normal 0.587788 -0.809015 0
    outer loop
      vertex 1.53583 12.1557 1
      vertex 1.53583 12.1557 0
      vertex 1.63742 12.2295 0
    endloop
  endfacet
  facet normal 0.587788 -0.809015 0
    outer loop
      vertex 1.63742 12.2295 1
      vertex 1.53583 12.1557 1
      vertex 1.63742 12.2295 0
    endloop
  endfacet
  facet normal 0.684545 -0.728971 0
    outer loop
      vertex 1.63742 12.2295 1
      vertex 1.63742 12.2295 0
      vertex 1.72897 12.3155 0
    endloop
  endfacet
  facet normal 0.684545 -0.728971 0
    outer loop
      vertex 1.72897 12.3155 1
      vertex 1.63742 12.2295 1
      vertex 1.72897 12.3155 0
    endloop
  endfacet
  facet normal 0.770515 -0.637422 0
    outer loop
      vertex 1.72897 12.3155 1
      vertex 1.72897 12.3155 0
      vertex 1.80902 12.4122 0
    endloop
  endfacet
  facet normal 0.770515 -0.637422 0
    outer loop
      vertex 1.80902 12.4122 1
      vertex 1.72897 12.3155 1
      vertex 1.80902 12.4122 0
    endloop
  endfacet
  facet normal 0.844325 -0.535831 0
    outer loop
      vertex 1.80902 12.4122 1
      vertex 1.80902 12.4122 0
      vertex 1.86473 12.5 0
    endloop
  endfacet
  facet normal 0.844325 -0.535831 0
    outer loop
      vertex 1.86473 12.5 1
      vertex 1.80902 12.4122 1
      vertex 1.86473 12.5 0
    endloop
  endfacet
  facet normal 0 -1 0
    outer loop
      vertex 1.86473 12.5 1
      vertex 1.86473 12.5 0
      vertex 16 12.5 0
    endloop
  endfacet
  facet normal 0 -1 0
    outer loop
      vertex 16 12.5 1
      vertex 1.86473 12.5 1
      vertex 16 12.5 0
    endloop
  endfacet
  facet normal -1 0 0
    outer loop
      vertex 16 10.5 0
      vertex 16 10.5 1
      vertex 16 12.5 0
    endloop
  endfacet
  facet normal -1 0 0
    outer loop
      vertex 16 12.5 0
      vertex 16 10.5 1
      vertex 16 12.5 1
    endloop
  endfacet
  facet normal 0 -1 0
    outer loop
      vertex 16 10.5 1
      vertex 16 10.5 0
      vertex 19 10.5 0
    endloop
  endfacet
  facet normal 0 -1 0
    outer loop
      vertex 19 10.5 1
      vertex 16 10.5 1
      vertex 19 10.5 0
    endloop
  endfacet
  facet normal 1 0 0
    outer loop
      vertex 19 10.5 1
      vertex 19 10.5 0
      vertex 19 15.5 0
    endloop
  endfacet
  facet normal 1 0 0
    outer loop
      vertex 19 15.5 1
      vertex 19 10.5 1
      vertex 19 15.5 0
    endloop
  endfacet
  facet normal 0 1 0
    outer loop
      vertex 16 15.5 0
      vertex 16 15.5 1
      vertex 19 15.5 0
    endloop
  endfacet
  facet normal 0 1 0
    outer loop
      vertex 19 15.5 0
      vertex 16 15.5 1
      vertex 19 15.5 1
    endloop
  endfacet
  facet normal -1 0 0
    outer loop
      vertex 16 13.5 0
      vertex 16 13.5 1
      vertex 16 15.5 0
    endloop
  endfacet
  facet normal -1 0 0
    outer loop
      vertex 16 15.5 0
      vertex 16 13.5 1
      vertex 16 15.5 1
    endloop
  endfacet
  facet normal 0 1 0
    outer loop
      vertex 1.86473 13.5 0
      vertex 1.86473 13.5 1
      vertex 16 13.5 0
    endloop
  endfacet
  facet normal 0 1 0
    outer loop
      vertex 16 13.5 0
      vertex 1.86473 13.5 1
      vertex 16 13.5 1
    endloop
  endfacet
  facet normal 0.844325 0.535831 0
    outer loop
      vertex 1.86473 13.5 0
      vertex 1.80902 13.5878 0
      vertex 1.80902 13.5878 1
    endloop
  endfacet
  facet normal 0.844325 0.535831 0
    outer loop
      vertex 1.86473 13.5 1
      vertex 1.86473 13.5 0
      vertex 1.80902 13.5878 1
    endloop
  endfacet
  facet normal 0.770515 0.637422 0
    outer loop
      vertex 1.80902 13.5878 0
      vertex 1.72897 13.6845 0
      vertex 1.72897 13.6845 1
    endloop
  endfacet
  facet normal 0.770515 0.637422 0
    outer loop
      vertex 1.80902 13.5878 1
      vertex 1.80902 13.5878 0
      vertex 1.72897 13.6845 1
    endloop
  endfacet
  facet normal 0.684545 0.728971 0
    outer loop
      vertex 1.63742 13.7705 0
      vertex 1.63742 13.7705 1
      vertex 1.72897 13.6845 0
    endloop
  endfacet
  facet normal 0.684545 0.728971 0
    outer loop
      vertex 1.72897 13.6845 0
      vertex 1.63742 13.7705 1
      vertex 1.72897 13.6845 1
    endloop
  endfacet
  facet normal 0.587788 0.809015 0
    outer loop
      vertex 1.53583 13.8443 0
      vertex 1.53583 13.8443 1
      vertex 1.63742 13.7705 0
    endloop
  endfacet
  facet normal 0.587788 0.809015 0
    outer loop
      vertex 1.63742 13.7705 0
      vertex 1.53583 13.8443 1
      vertex 1.63742 13.7705 1
    endloop
  endfacet
  facet normal 0.481751 0.876308 0
    outer loop
      vertex 1.42578 13.9048 0
      vertex 1.42578 13.9048 1
      vertex 1.53583 13.8443 0
    endloop
  endfacet
  facet normal 0.481751 0.876308 0
    outer loop
      vertex 1.53583 13.8443 0
      vertex 1.42578 13.9048 1
      vertex 1.53583 13.8443 1
    endloop
  endfacet
  facet normal 0.368129 0.929775 0
    outer loop
      vertex 1.30902 13.9511 0
      vertex 1.30902 13.9511 1
      vertex 1.42578 13.9048 0
    endloop
  endfacet
  facet normal 0.368129 0.929775 0
    outer loop
      vertex 1.42578 13.9048 0
      vertex 1.30902 13.9511 1
      vertex 1.42578 13.9048 1
    endloop
  endfacet
  facet normal 0.248684 0.968585 0
    outer loop
      vertex 1.18738 13.9823 0
      vertex 1.18738 13.9823 1
      vertex 1.30902 13.9511 0
    endloop
  endfacet
  facet normal 0.248684 0.968585 0
    outer loop
      vertex 1.30902 13.9511 0
      vertex 1.18738 13.9823 1
      vertex 1.30902 13.9511 1
    endloop
  endfacet
  facet normal 0.125338 0.992114 0
    outer loop
      vertex 1.06279 13.998 0
      vertex 1.06279 13.998 1
      vertex 1.18738 13.9823 0
    endloop
  endfacet
  facet normal 0.125338 0.992114 0
    outer loop
      vertex 1.18738 13.9823 0
      vertex 1.06279 13.998 1
      vertex 1.18738 13.9823 1
    endloop
  endfacet
  facet normal 0 1 0
    outer loop
      vertex 0.937209 13.998 0
      vertex 0.937209 13.998 1
      vertex 1.06279 13.998 0
    endloop
  endfacet
  facet normal 0 1 0
    outer loop
      vertex 1.06279 13.998 0
      vertex 0.937209 13.998 1
      vertex 1.06279 13.998 1
    endloop
  endfacet
  facet normal -0.125338 0.992114 0
    outer loop
      vertex 0.812619 13.9823 0
      vertex 0.812619 13.9823 1
      vertex 0.937209 13.998 0
    endloop
  endfacet
  facet normal -0.125338 0.992114 0
    outer loop
      vertex 0.937209 13.998 0
      vertex 0.812619 13.9823 1
      vertex 0.937209 13.998 1
    endloop
  endfacet
  facet normal -0.248684 0.968585 0
    outer loop
      vertex 0.690983 13.9511 0
      vertex 0.690983 13.9511 1
      vertex 0.812619 13.9823 0
    endloop
  endfacet
  facet normal -0.248684 0.968585 0
    outer loop
      vertex 0.812619 13.9823 0
      vertex 0.690983 13.9511 1
      vertex 0.812619 13.9823 1
    endloop
  endfacet
  facet normal -0.368129 0.929775 0
    outer loop
      vertex 0.574221 13.9048 0
      vertex 0.574221 13.9048 1
      vertex 0.690983 13.9511 0
    endloop
  endfacet
  facet normal -0.368129 0.929775 0
    outer loop
      vertex 0.690983 13.9511 0
      vertex 0.574221 13.9048 1
      vertex 0.690983 13.9511 1
    endloop
  endfacet
  facet normal -0.481751 0.876308 0
    outer loop
      vertex 0.464173 13.8443 0
      vertex 0.464173 13.8443 1
      vertex 0.574221 13.9048 0
    endloop
  endfacet
  facet normal -0.481751 0.876308 0
    outer loop
      vertex 0.574221 13.9048 0
      vertex 0.464173 13.8443 1
      vertex 0.574221 13.9048 1
    endloop
  endfacet
  facet normal -0.587788 0.809015 0
    outer loop
      vertex 0.362576 13.7705 0
      vertex 0.362576 13.7705 1
      vertex 0.464173 13.8443 0
    endloop
  endfacet
  facet normal -0.587788 0.809015 0
    outer loop
      vertex 0.464173 13.8443 0
      vertex 0.362576 13.7705 1
      vertex 0.464173 13.8443 1
    endloop
  endfacet
  facet normal -0.684545 0.728971 0
    outer loop
      vertex 0.271031 13.6845 0
      vertex 0.271031 13.6845 1
      vertex 0.362576 13.7705 0
    endloop
  endfacet
  facet normal -0.684545 0.728971 0
    outer loop
      vertex 0.362576 13.7705 0
      vertex 0.271031 13.6845 1
      vertex 0.362576 13.7705 1
    endloop
  endfacet
  facet normal -0.770515 0.637422 0
    outer loop
      vertex 0.190983 13.5878 0
      vertex 0.190983 13.5878 1
      vertex 0.271031 13.6845 0
    endloop
  endfacet
  facet normal -0.770515 0.637422 0
    outer loop
      vertex 0.271031 13.6845 0
      vertex 0.190983 13.5878 1
      vertex 0.271031 13.6845 1
    endloop
  endfacet
  facet normal -0.844325 0.535831 0
    outer loop
      vertex 0.123693 13.4818 0
      vertex 0.123693 13.4818 1
      vertex 0.190983 13.5878 0
    endloop
  endfacet
  facet normal -0.844325 0.535831 0
    outer loop
      vertex 0.190983 13.5878 0
      vertex 0.123693 13.4818 1
      vertex 0.190983 13.5878 1
    endloop
  endfacet
  facet normal -0.904829 0.425774 0
    outer loop
      vertex 0.070224 13.3681 0
      vertex 0.070224 13.3681 1
      vertex 0.123693 13.4818 0
    endloop
  endfacet
  facet normal -0.904829 0.425774 0
    outer loop
      vertex 0.123693 13.4818 0
      vertex 0.070224 13.3681 1
      vertex 0.123693 13.4818 1
    endloop
  endfacet
  facet normal -0.951056 0.309019 0
    outer loop
      vertex 0.031417 13.2487 0
      vertex 0.031417 13.2487 1
      vertex 0.070224 13.3681 0
    endloop
  endfacet
  facet normal -0.951056 0.309019 0
    outer loop
      vertex 0.070224 13.3681 0
      vertex 0.031417 13.2487 1
      vertex 0.070224 13.3681 1
    endloop
  endfacet
  facet normal -0.982287 0.187384 0
    outer loop
      vertex 0.007885 13.1253 0
      vertex 0.007885 13.1253 1
      vertex 0.031417 13.2487 0
    endloop
  endfacet
  facet normal -0.982287 0.187384 0
    outer loop
      vertex 0.031417 13.2487 0
      vertex 0.007885 13.1253 1
      vertex 0.031417 13.2487 1
    endloop
  endfacet
  facet normal 0.998027 -0.062794 0
    outer loop
      vertex 0.30552 13.0877 0
      vertex 0.30552 13.0877 1
      vertex 0.3 13 1
    endloop
  endfacet
  facet normal 0.998027 -0.062794 0
    outer loop
      vertex 0.3 13 0
      vertex 0.30552 13.0877 0
      vertex 0.3 13 1
    endloop
  endfacet
  facet normal 0.998027 0.062794 0
    outer loop
      vertex 0.3 13 1
      vertex 0.30552 12.9123 1
      vertex 0.30552 12.9123 0
    endloop
  endfacet
  facet normal 0.998027 0.062794 0
    outer loop
      vertex 0.3 13 0
      vertex 0.3 13 1
      vertex 0.30552 12.9123 0
    endloop
  endfacet
  facet normal 0.982288 -0.18738 0
    outer loop
      vertex 0.321992 13.1741 0
      vertex 0.321992 13.1741 1
      vertex 0.30552 13.0877 1
    endloop
  endfacet
  facet normal 0.982288 -0.18738 0
    outer loop
      vertex 0.30552 13.0877 0
      vertex 0.321992 13.1741 0
      vertex 0.30552 13.0877 1
    endloop
  endfacet
  facet normal 0.951058 -0.309011 0
    outer loop
      vertex 0.349156 13.2577 0
      vertex 0.349156 13.2577 1
      vertex 0.321992 13.1741 1
    endloop
  endfacet
  facet normal 0.951058 -0.309011 0
    outer loop
      vertex 0.321992 13.1741 0
      vertex 0.349156 13.2577 0
      vertex 0.321992 13.1741 1
    endloop
  endfacet
  facet normal 0.904828 -0.425778 0
    outer loop
      vertex 0.386585 13.3372 0
      vertex 0.386585 13.3372 1
      vertex 0.349156 13.2577 1
    endloop
  endfacet
  facet normal 0.904828 -0.425778 0
    outer loop
      vertex 0.349156 13.2577 0
      vertex 0.386585 13.3372 0
      vertex 0.349156 13.2577 1
    endloop
  endfacet
  facet normal 0.844326 -0.535829 0
    outer loop
      vertex 0.433688 13.4114 0
      vertex 0.433688 13.4114 1
      vertex 0.386585 13.3372 1
    endloop
  endfacet
  facet normal 0.844326 -0.535829 0
    outer loop
      vertex 0.386585 13.3372 0
      vertex 0.433688 13.4114 0
      vertex 0.386585 13.3372 1
    endloop
  endfacet
  facet normal 0.770511 -0.637427 0
    outer loop
      vertex 0.489722 13.4792 0
      vertex 0.489722 13.4792 1
      vertex 0.433688 13.4114 1
    endloop
  endfacet
  facet normal 0.770511 -0.637427 0
    outer loop
      vertex 0.433688 13.4114 0
      vertex 0.489722 13.4792 0
      vertex 0.433688 13.4114 1
    endloop
  endfacet
  facet normal 0.684547 -0.728969 0
    outer loop
      vertex 0.553803 13.5394 0
      vertex 0.553803 13.5394 1
      vertex 0.489722 13.4792 1
    endloop
  endfacet
  facet normal 0.684547 -0.728969 0
    outer loop
      vertex 0.489722 13.4792 0
      vertex 0.553803 13.5394 0
      vertex 0.489722 13.4792 1
    endloop
  endfacet
  facet normal 0.587791 -0.809013 0
    outer loop
      vertex 0.624921 13.591 0
      vertex 0.624921 13.591 1
      vertex 0.553803 13.5394 1
    endloop
  endfacet
  facet normal 0.587791 -0.809013 0
    outer loop
      vertex 0.553803 13.5394 0
      vertex 0.624921 13.591 0
      vertex 0.553803 13.5394 1
    endloop
  endfacet
  facet normal 0.481751 -0.876308 0
    outer loop
      vertex 0.701954 13.6334 0
      vertex 0.701954 13.6334 1
      vertex 0.624921 13.591 1
    endloop
  endfacet
  facet normal 0.481751 -0.876308 0
    outer loop
      vertex 0.624921 13.591 0
      vertex 0.701954 13.6334 0
      vertex 0.624921 13.591 1
    endloop
  endfacet
  facet normal 0.368127 -0.929776 0
    outer loop
      vertex 0.783688 13.6657 0
      vertex 0.783688 13.6657 1
      vertex 0.701954 13.6334 1
    endloop
  endfacet
  facet normal 0.368127 -0.929776 0
    outer loop
      vertex 0.701954 13.6334 0
      vertex 0.783688 13.6657 0
      vertex 0.701954 13.6334 1
    endloop
  endfacet
  facet normal 0.248684 -0.968585 0
    outer loop
      vertex 0.868833 13.6876 0
      vertex 0.868833 13.6876 1
      vertex 0.783688 13.6657 1
    endloop
  endfacet
  facet normal 0.248684 -0.968585 0
    outer loop
      vertex 0.783688 13.6657 0
      vertex 0.868833 13.6876 0
      vertex 0.783688 13.6657 1
    endloop
  endfacet
  facet normal 0.125337 -0.992114 0
    outer loop
      vertex 0.956047 13.6986 0
      vertex 0.956047 13.6986 1
      vertex 0.868833 13.6876 1
    endloop
  endfacet
  facet normal 0.125337 -0.992114 0
    outer loop
      vertex 0.868833 13.6876 0
      vertex 0.956047 13.6986 0
      vertex 0.868833 13.6876 1
    endloop
  endfacet
  facet normal 0 -1 0
    outer loop
      vertex 1.04395 13.6986 0
      vertex 1.04395 13.6986 1
      vertex 0.956047 13.6986 1
    endloop
  endfacet
  facet normal 0 -1 0
    outer loop
      vertex 0.956047 13.6986 0
      vertex 1.04395 13.6986 0
      vertex 0.956047 13.6986 1
    endloop
  endfacet
  facet normal -0.125337 -0.992114 0
    outer loop
      vertex 1.13117 13.6876 0
      vertex 1.13117 13.6876 1
      vertex 1.04395 13.6986 1
    endloop
  endfacet
  facet normal -0.125337 -0.992114 0
    outer loop
      vertex 1.04395 13.6986 0
      vertex 1.13117 13.6876 0
      vertex 1.04395 13.6986 1
    endloop
  endfacet
  facet normal -0.248684 -0.968585 0
    outer loop
      vertex 1.21631 13.6657 0
      vertex 1.21631 13.6657 1
      vertex 1.13117 13.6876 1
    endloop
  endfacet
  facet normal -0.248684 -0.968585 0
    outer loop
      vertex 1.13117 13.6876 0
      vertex 1.21631 13.6657 0
      vertex 1.13117 13.6876 1
    endloop
  endfacet
  facet normal -0.368127 -0.929776 0
    outer loop
      vertex 1.29805 13.6334 0
      vertex 1.29805 13.6334 1
      vertex 1.21631 13.6657 1
    endloop
  endfacet
  facet normal -0.368127 -0.929776 0
    outer loop
      vertex 1.21631 13.6657 0
      vertex 1.29805 13.6334 0
      vertex 1.21631 13.6657 1
    endloop
  endfacet
  facet normal -0.481751 -0.876308 0
    outer loop
      vertex 1.37508 13.591 0
      vertex 1.37508 13.591 1
      vertex 1.29805 13.6334 1
    endloop
  endfacet
  facet normal -0.481751 -0.876308 0
    outer loop
      vertex 1.29805 13.6334 0
      vertex 1.37508 13.591 0
      vertex 1.29805 13.6334 1
    endloop
  endfacet
  facet normal -0.587791 -0.809013 0
    outer loop
      vertex 1.4462 13.5394 0
      vertex 1.4462 13.5394 1
      vertex 1.37508 13.591 1
    endloop
  endfacet
  facet normal -0.587791 -0.809013 0
    outer loop
      vertex 1.37508 13.591 0
      vertex 1.4462 13.5394 0
      vertex 1.37508 13.591 1
    endloop
  endfacet
  facet normal -0.684547 -0.728969 0
    outer loop
      vertex 1.51028 13.4792 0
      vertex 1.51028 13.4792 1
      vertex 1.4462 13.5394 1
    endloop
  endfacet
  facet normal -0.684547 -0.728969 0
    outer loop
      vertex 1.4462 13.5394 0
      vertex 1.51028 13.4792 0
      vertex 1.4462 13.5394 1
    endloop
  endfacet
  facet normal -0.770511 -0.637427 0
    outer loop
      vertex 1.56631 13.4114 1
      vertex 1.51028 13.4792 1
      vertex 1.56631 13.4114 0
    endloop
  endfacet
  facet normal -0.770511 -0.637427 0
    outer loop
      vertex 1.56631 13.4114 0
      vertex 1.51028 13.4792 1
      vertex 1.51028 13.4792 0
    endloop
  endfacet
  facet normal -0.844326 -0.535829 0
    outer loop
      vertex 1.61341 13.3372 1
      vertex 1.56631 13.4114 1
      vertex 1.61341 13.3372 0
    endloop
  endfacet
  facet normal -0.844326 -0.535829 0
    outer loop
      vertex 1.61341 13.3372 0
      vertex 1.56631 13.4114 1
      vertex 1.56631 13.4114 0
    endloop
  endfacet
  facet normal -0.904828 -0.425778 0
    outer loop
      vertex 1.65084 13.2577 1
      vertex 1.61341 13.3372 1
      vertex 1.65084 13.2577 0
    endloop
  endfacet
  facet normal -0.904828 -0.425778 0
    outer loop
      vertex 1.65084 13.2577 0
      vertex 1.61341 13.3372 1
      vertex 1.61341 13.3372 0
    endloop
  endfacet
  facet normal -0.951058 -0.309011 0
    outer loop
      vertex 1.67801 13.1741 1
      vertex 1.65084 13.2577 1
      vertex 1.67801 13.1741 0
    endloop
  endfacet
  facet normal -0.951058 -0.309011 0
    outer loop
      vertex 1.67801 13.1741 0
      vertex 1.65084 13.2577 1
      vertex 1.65084 13.2577 0
    endloop
  endfacet
  facet normal -0.982288 -0.18738 0
    outer loop
      vertex 1.69448 13.0877 1
      vertex 1.67801 13.1741 1
      vertex 1.69448 13.0877 0
    endloop
  endfacet
  facet normal -0.982288 -0.18738 0
    outer loop
      vertex 1.69448 13.0877 0
      vertex 1.67801 13.1741 1
      vertex 1.67801 13.1741 0
    endloop
  endfacet
  facet normal -0.998027 -0.062794 0
    outer loop
      vertex 1.7 13 1
      vertex 1.69448 13.0877 1
      vertex 1.7 13 0
    endloop
  endfacet
  facet normal -0.998027 -0.062794 0
    outer loop
      vertex 1.7 13 0
      vertex 1.69448 13.0877 1
      vertex 1.69448 13.0877 0
    endloop
  endfacet
  facet normal -0.998027 0.062794 0
    outer loop
      vertex 1.7 13 1
      vertex 1.7 13 0
      vertex 1.69448 12.9123 1
    endloop
  endfacet
  facet normal -0.998027 0.062794 0
    outer loop
      vertex 1.69448 12.9123 1
      vertex 1.7 13 0
      vertex 1.69448 12.9123 0
    endloop
  endfacet
  facet normal -0.982288 0.18738 0
    outer loop
      vertex 1.69448 12.9123 1
      vertex 1.69448 12.9123 0
      vertex 1.67801 12.8259 1
    endloop
  endfacet
  facet normal -0.982288 0.18738 0
    outer loop
      vertex 1.67801 12.8259 1
      vertex 1.69448 12.9123 0
      vertex 1.67801 12.8259 0
    endloop
  endfacet
  facet normal -0.951058 0.309011 0
    outer loop
      vertex 1.67801 12.8259 1
      vertex 1.67801 12.8259 0
      vertex 1.65084 12.7423 1
    endloop
  endfacet
  facet normal -0.951058 0.309011 0
    outer loop
      vertex 1.65084 12.7423 1
      vertex 1.67801 12.8259 0
      vertex 1.65084 12.7423 0
    endloop
  endfacet
  facet normal -0.904828 0.425778 0
    outer loop
      vertex 1.65084 12.7423 1
      vertex 1.65084 12.7423 0
      vertex 1.61341 12.6628 1
    endloop
  endfacet
  facet normal -0.904828 0.425778 0
    outer loop
      vertex 1.61341 12.6628 1
      vertex 1.65084 12.7423 0
      vertex 1.61341 12.6628 0
    endloop
  endfacet
  facet normal -0.844326 0.535829 0
    outer loop
      vertex 1.61341 12.6628 1
      vertex 1.61341 12.6628 0
      vertex 1.56631 12.5885 1
    endloop
  endfacet
  facet normal -0.844326 0.535829 0
    outer loop
      vertex 1.56631 12.5885 1
      vertex 1.61341 12.6628 0
      vertex 1.56631 12.5885 0
    endloop
  endfacet
  facet normal -0.770511 0.637427 0
    outer loop
      vertex 1.56631 12.5885 1
      vertex 1.56631 12.5885 0
      vertex 1.51028 12.5208 1
    endloop
  endfacet
  facet normal -0.770511 0.637427 0
    outer loop
      vertex 1.51028 12.5208 1
      vertex 1.56631 12.5885 0
      vertex 1.51028 12.5208 0
    endloop
  endfacet
  facet normal -0.684547 0.728969 0
    outer loop
      vertex 1.51028 12.5208 1
      vertex 1.51028 12.5208 0
      vertex 1.4462 12.4606 1
    endloop
  endfacet
  facet normal -0.684547 0.728969 0
    outer loop
      vertex 1.4462 12.4606 1
      vertex 1.51028 12.5208 0
      vertex 1.4462 12.4606 0
    endloop
  endfacet
  facet normal -0.587791 0.809013 0
    outer loop
      vertex 1.4462 12.4606 1
      vertex 1.4462 12.4606 0
      vertex 1.37508 12.409 1
    endloop
  endfacet
  facet normal -0.587791 0.809013 0
    outer loop
      vertex 1.37508 12.409 1
      vertex 1.4462 12.4606 0
      vertex 1.37508 12.409 0
    endloop
  endfacet
  facet normal -0.481751 0.876308 0
    outer loop
      vertex 1.37508 12.409 1
      vertex 1.37508 12.409 0
      vertex 1.29805 12.3666 1
    endloop
  endfacet
  facet normal -0.481751 0.876308 0
    outer loop
      vertex 1.29805 12.3666 1
      vertex 1.37508 12.409 0
      vertex 1.29805 12.3666 0
    endloop
  endfacet
  facet normal -0.368127 0.929776 0
    outer loop
      vertex 1.29805 12.3666 1
      vertex 1.29805 12.3666 0
      vertex 1.21631 12.3343 1
    endloop
  endfacet
  facet normal -0.368127 0.929776 0
    outer loop
      vertex 1.21631 12.3343 1
      vertex 1.29805 12.3666 0
      vertex 1.21631 12.3343 0
    endloop
  endfacet
  facet normal -0.248684 0.968585 0
    outer loop
      vertex 1.21631 12.3343 1
      vertex 1.21631 12.3343 0
      vertex 1.13117 12.3124 1
    endloop
  endfacet
  facet normal -0.248684 0.968585 0
    outer loop
      vertex 1.13117 12.3124 1
      vertex 1.21631 12.3343 0
      vertex 1.13117 12.3124 0
    endloop
  endfacet
  facet normal -0.125337 0.992114 0
    outer loop
      vertex 1.13117 12.3124 1
      vertex 1.13117 12.3124 0
      vertex 1.04395 12.3014 1
    endloop
  endfacet
  facet normal -0.125337 0.992114 0
    outer loop
      vertex 1.04395 12.3014 1
      vertex 1.13117 12.3124 0
      vertex 1.04395 12.3014 0
    endloop
  endfacet
  facet normal 0 1 0
    outer loop
      vertex 1.04395 12.3014 1
      vertex 1.04395 12.3014 0
      vertex 0.956047 12.3014 1
    endloop
  endfacet
  facet normal 0 1 0
    outer loop
      vertex 0.956047 12.3014 1
      vertex 1.04395 12.3014 0
      vertex 0.956047 12.3014 0
    endloop
  endfacet
  facet normal 0.125337 0.992114 0
    outer loop
      vertex 0.956047 12.3014 1
      vertex 0.956047 12.3014 0
      vertex 0.868833 12.3124 1
    endloop
  endfacet
  facet normal 0.125337 0.992114 0
    outer loop
      vertex 0.868833 12.3124 1
      vertex 0.956047 12.3014 0
      vertex 0.868833 12.3124 0
    endloop
  endfacet
  facet normal 0.248684 0.968585 0
    outer loop
      vertex 0.868833 12.3124 1
      vertex 0.868833 12.3124 0
      vertex 0.783688 12.3343 1
    endloop
  endfacet
  facet normal 0.248684 0.968585 0
    outer loop
      vertex 0.783688 12.3343 1
      vertex 0.868833 12.3124 0
      vertex 0.783688 12.3343 0
    endloop
  endfacet
  facet normal 0.368127 0.929776 0
    outer loop
      vertex 0.783688 12.3343 1
      vertex 0.783688 12.3343 0
      vertex 0.701954 12.3666 1
    endloop
  endfacet
  facet normal 0.368127 0.929776 0
    outer loop
      vertex 0.701954 12.3666 1
      vertex 0.783688 12.3343 0
      vertex 0.701954 12.3666 0
    endloop
  endfacet
  facet normal 0.481751 0.876308 0
    outer loop
      vertex 0.701954 12.3666 1
      vertex 0.701954 12.3666 0
      vertex 0.624921 12.409 1
    endloop
  endfacet
  facet normal 0.481751 0.876308 0
    outer loop
      vertex 0.624921 12.409 1
      vertex 0.701954 12.3666 0
      vertex 0.624921 12.409 0
    endloop
  endfacet
  facet normal 0.587791 0.809013 0
    outer loop
      vertex 0.624921 12.409 1
      vertex 0.624921 12.409 0
      vertex 0.553803 12.4606 1
    endloop
  endfacet
  facet normal 0.587791 0.809013 0
    outer loop
      vertex 0.553803 12.4606 1
      vertex 0.624921 12.409 0
      vertex 0.553803 12.4606 0
    endloop
  endfacet
  facet normal 0.684547 0.728969 0
    outer loop
      vertex 0.553803 12.4606 1
      vertex 0.553803 12.4606 0
      vertex 0.489722 12.5208 1
    endloop
  endfacet
  facet normal 0.684547 0.728969 0
    outer loop
      vertex 0.489722 12.5208 1
      vertex 0.553803 12.4606 0
      vertex 0.489722 12.5208 0
    endloop
  endfacet
  facet normal 0.770511 0.637427 0
    outer loop
      vertex 0.433688 12.5885 1
      vertex 0.489722 12.5208 1
      vertex 0.489722 12.5208 0
    endloop
  endfacet
  facet normal 0.770511 0.637427 0
    outer loop
      vertex 0.433688 12.5885 0
      vertex 0.433688 12.5885 1
      vertex 0.489722 12.5208 0
    endloop
  endfacet
  facet normal 0.844326 0.535829 0
    outer loop
      vertex 0.386585 12.6628 1
      vertex 0.433688 12.5885 1
      vertex 0.433688 12.5885 0
    endloop
  endfacet
  facet normal 0.844326 0.535829 0
    outer loop
      vertex 0.386585 12.6628 0
      vertex 0.386585 12.6628 1
      vertex 0.433688 12.5885 0
    endloop
  endfacet
  facet normal 0.904828 0.425778 0
    outer loop
      vertex 0.349156 12.7423 1
      vertex 0.386585 12.6628 1
      vertex 0.386585 12.6628 0
    endloop
  endfacet
  facet normal 0.904828 0.425778 0
    outer loop
      vertex 0.349156 12.7423 0
      vertex 0.349156 12.7423 1
      vertex 0.386585 12.6628 0
    endloop
  endfacet
  facet normal 0.951058 0.309011 0
    outer loop
      vertex 0.321992 12.8259 1
      vertex 0.349156 12.7423 1
      vertex 0.349156 12.7423 0
    endloop
  endfacet
  facet normal 0.951058 0.309011 0
    outer loop
      vertex 0.321992 12.8259 0
      vertex 0.321992 12.8259 1
      vertex 0.349156 12.7423 0
    endloop
  endfacet
  facet normal 0.982288 0.18738 0
    outer loop
      vertex 0.30552 12.9123 1
      vertex 0.321992 12.8259 1
      vertex 0.321992 12.8259 0
    endloop
  endfacet
  facet normal 0.982288 0.18738 0
    outer loop
      vertex 0.30552 12.9123 0
      vertex 0.30552 12.9123 1
      vertex 0.321992 12.8259 0
    endloop
  endfacet
  facet normal 0 0 1
    outer loop
      vertex 0.007885 13.1253 1
      vertex 0 13 1
      vertex 0.007885 12.8747 1
    endloop
  endfacet
  facet normal 0 0 1
    outer loop
      vertex 0.070224 12.6319 1
      vertex 0.007885 13.1253 1
      vertex 0.031417 12.7513 1
    endloop
  endfacet
  facet normal 0 0 1
    outer loop
      vertex 0.031417 12.7513 1
      vertex 0.007885 13.1253 1
      vertex 0.007885 12.8747 1
    endloop
  endfacet
  facet normal 0 0 1
    outer loop
      vertex 0.123693 12.5182 1
      vertex 0.007885 13.1253 1
      vertex 0.070224 12.6319 1
    endloop
  endfacet
  facet normal 0 0 1
    outer loop
      vertex 0.190983 12.4122 1
      vertex 0.007885 13.1253 1
      vertex 0.123693 12.5182 1
    endloop
  endfacet
  facet normal 0 0 1
    outer loop
      vertex 0.271031 12.3155 1
      vertex 0.007885 13.1253 1
      vertex 0.190983 12.4122 1
    endloop
  endfacet
  facet normal 0 0 1
    outer loop
      vertex 0.362576 12.2295 1
      vertex 0.007885 13.1253 1
      vertex 0.271031 12.3155 1
    endloop
  endfacet
  facet normal 0 0 1
    outer loop
      vertex 0.464173 12.1557 1
      vertex 0.007885 13.1253 1
      vertex 0.362576 12.2295 1
    endloop
  endfacet
  facet normal 0 0 1
    outer loop
      vertex 0.574221 12.0952 1
      vertex 0.007885 13.1253 1
      vertex 0.464173 12.1557 1
    endloop
  endfacet
  facet normal 0 0 1
    outer loop
      vertex 0.690983 12.0489 1
      vertex 0.007885 13.1253 1
      vertex 0.574221 12.0952 1
    endloop
  endfacet
  facet normal 0 0 1
    outer loop
      vertex 0.812619 12.0177 1
      vertex 0.007885 13.1253 1
      vertex 0.690983 12.0489 1
    endloop
  endfacet
  facet normal 0 0 1
    outer loop
      vertex 0.433688 12.5885 1
      vertex 0.007885 13.1253 1
      vertex 0.812619 12.0177 1
    endloop
  endfacet
  facet normal 0 0 1
    outer loop
      vertex 0.433688 12.5885 1
      vertex 0.386585 12.6628 1
      vertex 0.007885 13.1253 1
    endloop
  endfacet
  facet normal 0 0 1
    outer loop
      vertex 0.624921 12.409 1
      vertex 0.553803 12.4606 1
      vertex 0.937209 12.002 1
    endloop
  endfacet
  facet normal 0 0 1
    outer loop
      vertex 1.13117 12.3124 1
      vertex 1.04395 12.3014 1
      vertex 1.42578 12.0952 1
    endloop
  endfacet
  facet normal 0 0 1
    outer loop
      vertex 1.61341 12.6628 1
      vertex 1.56631 12.5885 1
      vertex 1.86473 12.5 1
    endloop
  endfacet
  facet normal 0 0 1
    outer loop
      vertex 1.4462 12.4606 1
      vertex 1.37508 12.409 1
      vertex 1.72897 12.3155 1
    endloop
  endfacet
  facet normal 0 0 1
    outer loop
      vertex 1.67801 13.1741 1
      vertex 1.69448 13.0877 1
      vertex 16 13.5 1
    endloop
  endfacet
  facet normal 0 0 1
    outer loop
      vertex 0.321992 13.1741 1
      vertex 0.349156 13.2577 1
      vertex 0.007885 13.1253 1
    endloop
  endfacet
  facet normal 0 0 1
    outer loop
      vertex 19 10.5 1
      vertex 16 12.5 1
      vertex 16 10.5 1
    endloop
  endfacet
  facet normal 0 0 1
    outer loop
      vertex 19 15.5 1
      vertex 16 12.5 1
      vertex 19 10.5 1
    endloop
  endfacet
  facet normal 0 0 1
    outer loop
      vertex 19 15.5 1
      vertex 16 13.5 1
      vertex 16 12.5 1
    endloop
  endfacet
  facet normal 0 0 1
    outer loop
      vertex 1.56631 12.5885 1
      vertex 1.51028 12.5208 1
      vertex 1.80902 12.4122 1
    endloop
  endfacet
  facet normal 0 0 1
    outer loop
      vertex 1.37508 13.591 1
      vertex 1.4462 13.5394 1
      vertex 1.72897 13.6845 1
    endloop
  endfacet
  facet normal 0 0 1
    outer loop
      vertex 0.701954 13.6334 1
      vertex 0.783688 13.6657 1
      vertex 1.18738 13.9823 1
    endloop
  endfacet
  facet normal 0 0 1
    outer loop
      vertex 1.04395 13.6986 1
      vertex 1.13117 13.6876 1
      vertex 1.42578 13.9048 1
    endloop
  endfacet
  facet normal 0 0 1
    outer loop
      vertex 0.937209 13.998 1
      vertex 0.007885 13.1253 1
      vertex 1.06279 13.998 1
    endloop
  endfacet
  facet normal 0 0 1
    outer loop
      vertex 0.812619 13.9823 1
      vertex 0.007885 13.1253 1
      vertex 0.937209 13.998 1
    endloop
  endfacet
  facet normal 0 0 1
    outer loop
      vertex 0.690983 13.9511 1
      vertex 0.007885 13.1253 1
      vertex 0.812619 13.9823 1
    endloop
  endfacet
  facet normal 0 0 1
    outer loop
      vertex 0.574221 13.9048 1
      vertex 0.007885 13.1253 1
      vertex 0.690983 13.9511 1
    endloop
  endfacet
  facet normal 0 0 1
    outer loop
      vertex 0.464173 13.8443 1
      vertex 0.007885 13.1253 1
      vertex 0.574221 13.9048 1
    endloop
  endfacet
  facet normal 0 0 1
    outer loop
      vertex 0.362576 13.7705 1
      vertex 0.007885 13.1253 1
      vertex 0.464173 13.8443 1
    endloop
  endfacet
  facet normal 0 0 1
    outer loop
      vertex 0.271031 13.6845 1
      vertex 0.007885 13.1253 1
      vertex 0.362576 13.7705 1
    endloop
  endfacet
  facet normal 0 0 1
    outer loop
      vertex 0.190983 13.5878 1
      vertex 0.007885 13.1253 1
      vertex 0.271031 13.6845 1
    endloop
  endfacet
  facet normal 0 0 1
    outer loop
      vertex 0.123693 13.4818 1
      vertex 0.007885 13.1253 1
      vertex 0.190983 13.5878 1
    endloop
  endfacet
  facet normal 0 0 1
    outer loop
      vertex 0.070224 13.3681 1
      vertex 0.007885 13.1253 1
      vertex 0.123693 13.4818 1
    endloop
  endfacet
  facet normal 0 0 1
    outer loop
      vertex 0.031417 13.2487 1
      vertex 0.007885 13.1253 1
      vertex 0.070224 13.3681 1
    endloop
  endfacet
  facet normal 0 0 1
    outer loop
      vertex 1.04395 12.3014 1
      vertex 0.956047 12.3014 1
      vertex 1.30902 12.0489 1
    endloop
  endfacet
  facet normal 0 0 1
    outer loop
      vertex 1.37508 12.409 1
      vertex 1.29805 12.3666 1
      vertex 1.63742 12.2295 1
    endloop
  endfacet
  facet normal 0 0 1
    outer loop
      vertex 0.956047 12.3014 1
      vertex 0.868833 12.3124 1
      vertex 1.18738 12.0177 1
    endloop
  endfacet
  facet normal 0 0 1
    outer loop
      vertex 0.349156 13.2577 1
      vertex 0.386585 13.3372 1
      vertex 0.007885 13.1253 1
    endloop
  endfacet
  facet normal 0 0 1
    outer loop
      vertex 1.4462 13.5394 1
      vertex 1.51028 13.4792 1
      vertex 1.80902 13.5878 1
    endloop
  endfacet
  facet normal 0 0 1
    outer loop
      vertex 1.13117 13.6876 1
      vertex 1.21631 13.6657 1
      vertex 1.53583 13.8443 1
    endloop
  endfacet
  facet normal 0 0 1
    outer loop
      vertex 0.433688 13.4114 1
      vertex 0.489722 13.4792 1
      vertex 0.007885 13.1253 1
    endloop
  endfacet
  facet normal 0 0 1
    outer loop
      vertex 1.21631 13.6657 1
      vertex 1.29805 13.6334 1
      vertex 1.63742 13.7705 1
    endloop
  endfacet
  facet normal 0 0 1
    outer loop
      vertex 0.553803 13.5394 1
      vertex 0.624921 13.591 1
      vertex 1.06279 13.998 1
    endloop
  endfacet
  facet normal 0 0 1
    outer loop
      vertex 0.868833 13.6876 1
      vertex 0.956047 13.6986 1
      vertex 1.30902 13.9511 1
    endloop
  endfacet
  facet normal 0 0 1
    outer loop
      vertex 0.553803 13.5394 1
      vertex 0.007885 13.1253 1
      vertex 0.489722 13.4792 1
    endloop
  endfacet
  facet normal 0 0 1
    outer loop
      vertex 1.06279 13.998 1
      vertex 0.007885 13.1253 1
      vertex 0.553803 13.5394 1
    endloop
  endfacet
  facet normal 0 0 1
    outer loop
      vertex 1.06279 13.998 1
      vertex 0.624921 13.591 1
      vertex 1.18738 13.9823 1
    endloop
  endfacet
  facet normal 0 0 1
    outer loop
      vertex 0.624921 13.591 1
      vertex 0.701954 13.6334 1
      vertex 1.18738 13.9823 1
    endloop
  endfacet
  facet normal 0 0 1
    outer loop
      vertex 1.18738 13.9823 1
      vertex 0.783688 13.6657 1
      vertex 1.30902 13.9511 1
    endloop
  endfacet
  facet normal 0 0 1
    outer loop
      vertex 0.783688 13.6657 1
      vertex 0.868833 13.6876 1
      vertex 1.30902 13.9511 1
    endloop
  endfacet
  facet normal 0 0 1
    outer loop
      vertex 1.30902 13.9511 1
      vertex 0.956047 13.6986 1
      vertex 1.42578 13.9048 1
    endloop
  endfacet
  facet normal 0 0 1
    outer loop
      vertex 0.956047 13.6986 1
      vertex 1.04395 13.6986 1
      vertex 1.42578 13.9048 1
    endloop
  endfacet
  facet normal 0 0 1
    outer loop
      vertex 1.42578 13.9048 1
      vertex 1.13117 13.6876 1
      vertex 1.53583 13.8443 1
    endloop
  endfacet
  facet normal 0 0 1
    outer loop
      vertex 0.386585 13.3372 1
      vertex 0.433688 13.4114 1
      vertex 0.007885 13.1253 1
    endloop
  endfacet
  facet normal 0 0 1
    outer loop
      vertex 1.53583 13.8443 1
      vertex 1.21631 13.6657 1
      vertex 1.63742 13.7705 1
    endloop
  endfacet
  facet normal 0 0 1
    outer loop
      vertex 1.63742 13.7705 1
      vertex 1.29805 13.6334 1
      vertex 1.72897 13.6845 1
    endloop
  endfacet
  facet normal 0 0 1
    outer loop
      vertex 1.29805 13.6334 1
      vertex 1.37508 13.591 1
      vertex 1.72897 13.6845 1
    endloop
  endfacet
  facet normal 0 0 1
    outer loop
      vertex 1.72897 13.6845 1
      vertex 1.4462 13.5394 1
      vertex 1.80902 13.5878 1
    endloop
  endfacet
  facet normal 0 0 1
    outer loop
      vertex 1.80902 13.5878 1
      vertex 1.51028 13.4792 1
      vertex 1.86473 13.5 1
    endloop
  endfacet
  facet normal 0 0 1
    outer loop
      vertex 1.51028 13.4792 1
      vertex 1.56631 13.4114 1
      vertex 1.86473 13.5 1
    endloop
  endfacet
  facet normal 0 0 1
    outer loop
      vertex 16 13.5 1
      vertex 1.56631 13.4114 1
      vertex 1.61341 13.3372 1
    endloop
  endfacet
  facet normal 0 0 1
    outer loop
      vertex 0.783688 12.3343 1
      vertex 0.701954 12.3666 1
      vertex 1.06279 12.002 1
    endloop
  endfacet
  facet normal 0 0 1
    outer loop
      vertex 1.65084 13.2577 1
      vertex 1.67801 13.1741 1
      vertex 16 13.5 1
    endloop
  endfacet
  facet normal 0 0 1
    outer loop
      vertex 16 13.5 1
      vertex 1.69448 13.0877 1
      vertex 16 12.5 1
    endloop
  endfacet
  facet normal 0 0 1
    outer loop
      vertex 1.69448 13.0877 1
      vertex 1.7 13 1
      vertex 16 12.5 1
    endloop
  endfacet
  facet normal 0 0 1
    outer loop
      vertex 16 12.5 1
      vertex 1.7 13 1
      vertex 1.86473 12.5 1
    endloop
  endfacet
  facet normal 0 0 1
    outer loop
      vertex 1.7 13 1
      vertex 1.69448 12.9123 1
      vertex 1.86473 12.5 1
    endloop
  endfacet
  facet normal 0 0 1
    outer loop
      vertex 1.69448 12.9123 1
      vertex 1.67801 12.8259 1
      vertex 1.86473 12.5 1
    endloop
  endfacet
  facet normal 0 0 1
    outer loop
      vertex 1.67801 12.8259 1
      vertex 1.65084 12.7423 1
      vertex 1.86473 12.5 1
    endloop
  endfacet
  facet normal 0 0 1
    outer loop
      vertex 1.65084 12.7423 1
      vertex 1.61341 12.6628 1
      vertex 1.86473 12.5 1
    endloop
  endfacet
  facet normal 0 0 1
    outer loop
      vertex 1.86473 12.5 1
      vertex 1.56631 12.5885 1
      vertex 1.80902 12.4122 1
    endloop
  endfacet
  facet normal 0 0 1
    outer loop
      vertex 1.80902 12.4122 1
      vertex 1.51028 12.5208 1
      vertex 1.72897 12.3155 1
    endloop
  endfacet
  facet normal 0 0 1
    outer loop
      vertex 1.51028 12.5208 1
      vertex 1.4462 12.4606 1
      vertex 1.72897 12.3155 1
    endloop
  endfacet
  facet normal 0 0 1
    outer loop
      vertex 1.72897 12.3155 1
      vertex 1.37508 12.409 1
      vertex 1.63742 12.2295 1
    endloop
  endfacet
  facet normal 0 0 1
    outer loop
      vertex 1.29805 12.3666 1
      vertex 1.21631 12.3343 1
      vertex 1.53583 12.1557 1
    endloop
  endfacet
  facet normal 0 0 1
    outer loop
      vertex 1.63742 12.2295 1
      vertex 1.29805 12.3666 1
      vertex 1.53583 12.1557 1
    endloop
  endfacet
  facet normal 0 0 1
    outer loop
      vertex 0.3 13 1
      vertex 0.30552 13.0877 1
      vertex 0.007885 13.1253 1
    endloop
  endfacet
  facet normal 0 0 1
    outer loop
      vertex 1.53583 12.1557 1
      vertex 1.21631 12.3343 1
      vertex 1.42578 12.0952 1
    endloop
  endfacet
  facet normal 0 0 1
    outer loop
      vertex 1.21631 12.3343 1
      vertex 1.13117 12.3124 1
      vertex 1.42578 12.0952 1
    endloop
  endfacet
  facet normal 0 0 1
    outer loop
      vertex 1.42578 12.0952 1
      vertex 1.04395 12.3014 1
      vertex 1.30902 12.0489 1
    endloop
  endfacet
  facet normal 0 0 1
    outer loop
      vertex 1.30902 12.0489 1
      vertex 0.956047 12.3014 1
      vertex 1.18738 12.0177 1
    endloop
  endfacet
  facet normal 0 0 1
    outer loop
      vertex 0.386585 12.6628 1
      vertex 0.349156 12.7423 1
      vertex 0.007885 13.1253 1
    endloop
  endfacet
  facet normal 0 0 1
    outer loop
      vertex 1.18738 12.0177 1
      vertex 0.868833 12.3124 1
      vertex 1.06279 12.002 1
    endloop
  endfacet
  facet normal 0 0 1
    outer loop
      vertex 0.30552 12.9123 1
      vertex 0.3 13 1
      vertex 0.007885 13.1253 1
    endloop
  endfacet
  facet normal 0 0 1
    outer loop
      vertex 0.868833 12.3124 1
      vertex 0.783688 12.3343 1
      vertex 1.06279 12.002 1
    endloop
  endfacet
  facet normal 0 0 1
    outer loop
      vertex 1.06279 12.002 1
      vertex 0.701954 12.3666 1
      vertex 0.937209 12.002 1
    endloop
  endfacet
  facet normal 0 0 1
    outer loop
      vertex 0.701954 12.3666 1
      vertex 0.624921 12.409 1
      vertex 0.937209 12.002 1
    endloop
  endfacet
  facet normal 0 0 1
    outer loop
      vertex 0.937209 12.002 1
      vertex 0.553803 12.4606 1
      vertex 0.812619 12.0177 1
    endloop
  endfacet
  facet normal 0 0 1
    outer loop
      vertex 0.553803 12.4606 1
      vertex 0.489722 12.5208 1
      vertex 0.812619 12.0177 1
    endloop
  endfacet
  facet normal 0 0 1
    outer loop
      vertex 0.489722 12.5208 1
      vertex 0.433688 12.5885 1
      vertex 0.812619 12.0177 1
    endloop
  endfacet
  facet normal 0 0 1
    outer loop
      vertex 0.349156 12.7423 1
      vertex 0.321992 12.8259 1
      vertex 0.007885 13.1253 1
    endloop
  endfacet
  facet normal 0 0 1
    outer loop
      vertex 0.30552 13.0877 1
      vertex 0.321992 13.1741 1
      vertex 0.007885 13.1253 1
    endloop
  endfacet
  facet normal 0 0 1
    outer loop
      vertex 16 13.5 1
      vertex 1.61341 13.3372 1
      vertex 1.65084 13.2577 1
    endloop
  endfacet
  facet normal 0 0 1
    outer loop
      vertex 16 15.5 1
      vertex 16 13.5 1
      vertex 19 15.5 1
    endloop
  endfacet
  facet normal 0 0 1
    outer loop
      vertex 16 13.5 1
      vertex 1.86473 13.5 1
      vertex 1.56631 13.4114 1
    endloop
  endfacet
  facet normal 0 0 1
    outer loop
      vertex 0.321992 12.8259 1
      vertex 0.30552 12.9123 1
      vertex 0.007885 13.1253 1
    endloop
  endfacet
endsolid OpenSCAD_Model
