solid toyhouse
facet normal 0.0 0.0 -1.0
outer loop
vertex 105.3125 85.25 0.0
vertex 0.0 42.625 0.0
vertex 0.0 85.25 0.0
endloop
endfacet
facet normal 0.0 0.0 -1.0
outer loop
vertex 0.0 42.625 0.0
vertex 105.3125 85.25 0.0
vertex 105.3125 42.625 0.0
endloop
endfacet
facet normal 0.0 0.0 1.0
outer loop
vertex 0.0 42.625 2.4375
vertex 6.30996487567799 45.779982437839 2.4375
vertex 0.0 85.25 2.4375
endloop
endfacet
facet normal 0.0 0.0 1.0
outer loop
vertex 6.30996487567799 45.779982437839 2.4375
vertex 0.0 42.625 2.4375
vertex 105.3125 42.625 2.4375
endloop
endfacet
facet normal 0.0 0.0 1.0
outer loop
vertex 6.30996487567799 45.779982437839 2.4375
vertex 105.3125 42.625 2.4375
vertex 39.7070836961221 45.779982437839 2.4375
endloop
endfacet
facet normal 0.0 0.0 1.0
outer loop
vertex 39.7070836961221 45.779982437839 2.4375
vertex 105.3125 42.625 2.4375
vertex 60.2070836961221 45.779982437839 2.4375
endloop
endfacet
facet normal 0.0 0.0 1.0
outer loop
vertex 39.7070836961221 45.779982437839 2.4375
vertex 60.2070836961221 45.779982437839 2.4375
vertex 39.7070836961221 48.436232437839 2.4375
endloop
endfacet
facet normal 0.0 0.0 1.0
outer loop
vertex 60.2070836961221 45.779982437839 2.4375
vertex 105.3125 42.625 2.4375
vertex 99.002535124322 45.779982437839 2.4375
endloop
endfacet
facet normal 0.0 0.0 1.0
outer loop
vertex 99.002535124322 45.779982437839 2.4375
vertex 105.3125 42.625 2.4375
vertex 99.002535124322 82.095017562161 2.4375
endloop
endfacet
facet normal 0.0 0.0 1.0
outer loop
vertex 0.0 85.25 2.4375
vertex 6.30996487567799 82.095017562161 2.4375
vertex 105.3125 85.25 2.4375
endloop
endfacet
facet normal 0.0 0.0 1.0
outer loop
vertex 6.30996487567799 82.095017562161 2.4375
vertex 0.0 85.25 2.4375
vertex 6.30996487567799 45.779982437839 2.4375
endloop
endfacet
facet normal 0.0 0.0 1.0
outer loop
vertex 105.3125 85.25 2.4375
vertex 6.30996487567799 82.095017562161 2.4375
vertex 99.002535124322 82.095017562161 2.4375
endloop
endfacet
facet normal 0.0 0.0 1.0
outer loop
vertex 105.3125 85.25 2.4375
vertex 99.002535124322 82.095017562161 2.4375
vertex 105.3125 42.625 2.4375
endloop
endfacet
facet normal 0.0 0.0 1.0
outer loop
vertex 60.2070836961221 48.436232437839 2.4375
vertex 39.7070836961221 48.436232437839 2.4375
vertex 60.2070836961221 45.779982437839 2.4375
endloop
endfacet
facet normal 1.0 0.0 0.0
outer loop
vertex 105.3125 85.25 0.0
vertex 105.3125 42.625 2.4375
vertex 105.3125 42.625 0.0
endloop
endfacet
facet normal 1.0 0.0 0.0
outer loop
vertex 105.3125 42.625 2.4375
vertex 105.3125 85.25 0.0
vertex 105.3125 85.25 2.4375
endloop
endfacet
facet normal 0.0 -1.0 0.0
outer loop
vertex 105.3125 42.625 2.4375
vertex 0.0 42.625 0.0
vertex 105.3125 42.625 0.0
endloop
endfacet
facet normal 0.0 -1.0 0.0
outer loop
vertex 0.0 42.625 0.0
vertex 105.3125 42.625 2.4375
vertex 0.0 42.625 2.4375
endloop
endfacet
facet normal -1.0 0.0 0.0
outer loop
vertex 0.0 85.25 2.4375
vertex 0.0 42.625 0.0
vertex 0.0 42.625 2.4375
endloop
endfacet
facet normal -1.0 0.0 0.0
outer loop
vertex 0.0 42.625 0.0
vertex 0.0 85.25 2.4375
vertex 0.0 85.25 0.0
endloop
endfacet
facet normal 0.0 1.0 0.0
outer loop
vertex 0.0 85.25 2.4375
vertex 105.3125 85.25 0.0
vertex 0.0 85.25 0.0
endloop
endfacet
facet normal 0.0 1.0 0.0
outer loop
vertex 105.3125 85.25 0.0
vertex 0.0 85.25 2.4375
vertex 105.3125 85.25 2.4375
endloop
endfacet
facet normal -0.0 1.0 -0.0
outer loop
vertex 6.30996487567799 82.095017562161 36.5
vertex 99.002535124322 82.095017562161 2.4375
vertex 6.30996487567799 82.095017562161 2.4375
endloop
endfacet
facet normal -0.0 1.0 -0.0
outer loop
vertex 99.002535124322 82.095017562161 2.4375
vertex 6.30996487567799 82.095017562161 36.5
vertex 99.002535124322 82.095017562161 36.5
endloop
endfacet
facet normal 1.0 0.0 0.0
outer loop
vertex 99.002535124322 82.095017562161 2.4375
vertex 99.002535124322 45.779982437839 36.5
vertex 99.002535124322 45.779982437839 2.4375
endloop
endfacet
facet normal 1.0 0.0 0.0
outer loop
vertex 99.002535124322 45.779982437839 36.5
vertex 99.002535124322 82.095017562161 2.4375
vertex 99.002535124322 82.095017562161 36.5
endloop
endfacet
facet normal 0.0 -1.0 0.0
outer loop
vertex 60.2070836961221 45.779982437839 2.4375
vertex 76.3335033172144 45.779982437839 21.0890599445967
vertex 60.2070836961221 45.779982437839 21.7427324842368
endloop
endfacet
facet normal 0.0 -1.0 0.0
outer loop
vertex 76.3335033172144 45.779982437839 21.0890599445967
vertex 60.2070836961221 45.779982437839 2.4375
vertex 84.7085033172144 45.779982437839 21.0890599445967
endloop
endfacet
facet normal 0.0 -1.0 0.0
outer loop
vertex 60.2070836961221 45.779982437839 21.7427324842368
vertex 76.3335033172144 45.779982437839 21.0890599445967
vertex 76.3335033172144 45.779982437839 35.4015599445967
endloop
endfacet
facet normal 0.0 -1.0 0.0
outer loop
vertex 60.2070836961221 45.779982437839 21.7427324842368
vertex 76.3335033172144 45.779982437839 35.4015599445967
vertex 59.8578234155851 45.779982437839 24.3956276965377
endloop
endfacet
facet normal 0.0 -1.0 0.0
outer loop
vertex 59.8578234155851 45.779982437839 24.3956276965377
vertex 76.3335033172144 45.779982437839 35.4015599445967
vertex 58.8338440849126 45.779982437839 26.8677324842368
endloop
endfacet
facet normal 0.0 -1.0 0.0
outer loop
vertex 58.8338440849126 45.779982437839 26.8677324842368
vertex 76.3335033172144 45.779982437839 35.4015599445967
vertex 57.2049282032842 45.779982437839 28.990576991399
endloop
endfacet
facet normal 0.0 -1.0 0.0
outer loop
vertex 57.2049282032842 45.779982437839 28.990576991399
vertex 76.3335033172144 45.779982437839 35.4015599445967
vertex 55.0820836961221 45.779982437839 30.6194928730273
endloop
endfacet
facet normal 0.0 -1.0 0.0
outer loop
vertex 55.0820836961221 45.779982437839 30.6194928730273
vertex 76.3335033172144 45.779982437839 35.4015599445967
vertex 52.6099789084229 45.779982437839 31.6434722036998
endloop
endfacet
facet normal 0.0 -1.0 0.0
outer loop
vertex 52.6099789084229 45.779982437839 31.6434722036998
vertex 76.3335033172144 45.779982437839 35.4015599445967
vertex 49.9570836961221 45.779982437839 31.9927324842368
endloop
endfacet
facet normal 0.0 -1.0 0.0
outer loop
vertex 99.002535124322 45.779982437839 2.4375
vertex 84.7085033172144 45.779982437839 21.0890599445967
vertex 60.2070836961221 45.779982437839 2.4375
endloop
endfacet
facet normal 0.0 -1.0 0.0
outer loop
vertex 84.7085033172144 45.779982437839 21.0890599445967
vertex 99.002535124322 45.779982437839 2.4375
vertex 99.002535124322 45.779982437839 36.5
endloop
endfacet
facet normal 0.0 -1.0 0.0
outer loop
vertex 84.7085033172144 45.779982437839 21.0890599445967
vertex 99.002535124322 45.779982437839 36.5
vertex 84.7085033172144 45.779982437839 35.4015599445967
endloop
endfacet
facet normal 0.0 -1.0 0.0
outer loop
vertex 84.7085033172144 45.779982437839 35.4015599445967
vertex 99.002535124322 45.779982437839 36.5
vertex 76.3335033172144 45.779982437839 35.4015599445967
endloop
endfacet
facet normal 0.0 -1.0 0.0
outer loop
vertex 76.3335033172144 45.779982437839 35.4015599445967
vertex 99.002535124322 45.779982437839 36.5
vertex 25.8961684712161 45.779982437839 35.4929194853067
endloop
endfacet
facet normal 0.0 -1.0 0.0
outer loop
vertex 25.8961684712161 45.779982437839 35.4929194853067
vertex 99.002535124322 45.779982437839 36.5
vertex 17.5211684712161 45.779982437839 35.4929194853067
endloop
endfacet
facet normal 0.0 -1.0 0.0
outer loop
vertex 6.30996487567799 45.779982437839 2.4375
vertex 17.5211684712161 45.779982437839 21.1804194853067
vertex 6.30996487567799 45.779982437839 36.5
endloop
endfacet
facet normal 0.0 -1.0 0.0
outer loop
vertex 17.5211684712161 45.779982437839 21.1804194853067
vertex 6.30996487567799 45.779982437839 2.4375
vertex 25.8961684712161 45.779982437839 21.1804194853067
endloop
endfacet
facet normal 0.0 -1.0 0.0
outer loop
vertex 6.30996487567799 45.779982437839 36.5
vertex 17.5211684712161 45.779982437839 21.1804194853067
vertex 17.5211684712161 45.779982437839 35.4929194853067
endloop
endfacet
facet normal 0.0 -1.0 0.0
outer loop
vertex 6.30996487567799 45.779982437839 36.5
vertex 17.5211684712161 45.779982437839 35.4929194853067
vertex 99.002535124322 45.779982437839 36.5
endloop
endfacet
facet normal 0.0 -1.0 0.0
outer loop
vertex 39.7070836961221 45.779982437839 21.7427324842368
vertex 6.30996487567799 45.779982437839 2.4375
vertex 39.7070836961221 45.779982437839 2.4375
endloop
endfacet
facet normal 0.0 -1.0 0.0
outer loop
vertex 6.30996487567799 45.779982437839 2.4375
vertex 39.7070836961221 45.779982437839 21.7427324842368
vertex 25.8961684712161 45.779982437839 21.1804194853067
endloop
endfacet
facet normal 0.0 -1.0 0.0
outer loop
vertex 25.8961684712161 45.779982437839 21.1804194853067
vertex 39.7070836961221 45.779982437839 21.7427324842368
vertex 25.8961684712161 45.779982437839 35.4929194853067
endloop
endfacet
facet normal 0.0 -1.0 0.0
outer loop
vertex 25.8961684712161 45.779982437839 35.4929194853067
vertex 39.7070836961221 45.779982437839 21.7427324842368
vertex 40.0563439766592 45.779982437839 24.3956276965377
endloop
endfacet
facet normal 0.0 -1.0 0.0
outer loop
vertex 25.8961684712161 45.779982437839 35.4929194853067
vertex 40.0563439766592 45.779982437839 24.3956276965377
vertex 41.0803233073316 45.779982437839 26.8677324842368
endloop
endfacet
facet normal 0.0 -1.0 0.0
outer loop
vertex 25.8961684712161 45.779982437839 35.4929194853067
vertex 41.0803233073316 45.779982437839 26.8677324842368
vertex 42.70923918896 45.779982437839 28.990576991399
endloop
endfacet
facet normal 0.0 -1.0 0.0
outer loop
vertex 25.8961684712161 45.779982437839 35.4929194853067
vertex 42.70923918896 45.779982437839 28.990576991399
vertex 44.8320836961221 45.779982437839 30.6194928730273
endloop
endfacet
facet normal 0.0 -1.0 0.0
outer loop
vertex 25.8961684712161 45.779982437839 35.4929194853067
vertex 44.8320836961221 45.779982437839 30.6194928730273
vertex 47.3041884838213 45.779982437839 31.6434722036998
endloop
endfacet
facet normal 0.0 -1.0 0.0
outer loop
vertex 25.8961684712161 45.779982437839 35.4929194853067
vertex 47.3041884838213 45.779982437839 31.6434722036998
vertex 49.9570836961221 45.779982437839 31.9927324842368
endloop
endfacet
facet normal 0.0 -1.0 0.0
outer loop
vertex 25.8961684712161 45.779982437839 35.4929194853067
vertex 49.9570836961221 45.779982437839 31.9927324842368
vertex 76.3335033172144 45.779982437839 35.4015599445967
endloop
endfacet
facet normal 0.0 0.0 1.0
outer loop
vertex 99.002535124322 45.779982437839 36.5
vertex 6.30996487567799 82.095017562161 36.5
vertex 6.30996487567799 45.779982437839 36.5
endloop
endfacet
facet normal 0.0 0.0 1.0
outer loop
vertex 6.30996487567799 82.095017562161 36.5
vertex 99.002535124322 45.779982437839 36.5
vertex 99.002535124322 82.095017562161 36.5
endloop
endfacet
facet normal -1.0 0.0 0.0
outer loop
vertex 6.30996487567799 82.095017562161 36.5
vertex 6.30996487567799 45.779982437839 2.4375
vertex 6.30996487567799 45.779982437839 36.5
endloop
endfacet
facet normal -1.0 0.0 0.0
outer loop
vertex 6.30996487567799 45.779982437839 2.4375
vertex 6.30996487567799 82.095017562161 36.5
vertex 6.30996487567799 82.095017562161 2.4375
endloop
endfacet
facet normal 0.0 0.0 -1.0
outer loop
vertex 99.002535124322 82.095017562161 36.5
vertex 6.30996487567799 45.779982437839 36.5
vertex 6.30996487567799 82.095017562161 36.5
endloop
endfacet
facet normal 0.0 0.0 -1.0
outer loop
vertex 6.30996487567799 45.779982437839 36.5
vertex 99.002535124322 82.095017562161 36.5
vertex 99.002535124322 45.779982437839 36.5
endloop
endfacet
facet normal 0.0 1.0 0.0
outer loop
vertex 6.30996487567799 82.095017562161 43.6875
vertex 99.002535124322 82.095017562161 36.5
vertex 6.30996487567799 82.095017562161 36.5
endloop
endfacet
facet normal 0.0 1.0 0.0
outer loop
vertex 99.002535124322 82.095017562161 36.5
vertex 6.30996487567799 82.095017562161 43.6875
vertex 99.002535124322 82.095017562161 43.6875
endloop
endfacet
facet normal 0.0 1.0 0.0
outer loop
vertex 99.002535124322 82.095017562161 43.6875
vertex 6.30996487567799 82.095017562161 43.6875
vertex 52.65625 82.095017562161 77.1875
endloop
endfacet
facet normal 0.58580865125256 0.0 0.810449396395393
outer loop
vertex 99.002535124322 45.779982437839 43.6875
vertex 52.65625 82.095017562161 77.1875
vertex 52.65625 45.779982437839 77.1875
endloop
endfacet
facet normal 0.58580865125256 0.0 0.810449396395393
outer loop
vertex 52.65625 82.095017562161 77.1875
vertex 99.002535124322 45.779982437839 43.6875
vertex 99.002535124322 82.095017562161 43.6875
endloop
endfacet
facet normal -0.58580865125256 0.0 0.810449396395393
outer loop
vertex 52.65625 45.779982437839 77.1875
vertex 6.30996487567799 82.095017562161 43.6875
vertex 6.30996487567799 45.779982437839 43.6875
endloop
endfacet
facet normal -0.58580865125256 0.0 0.810449396395393
outer loop
vertex 6.30996487567799 82.095017562161 43.6875
vertex 52.65625 45.779982437839 77.1875
vertex 52.65625 82.095017562161 77.1875
endloop
endfacet
facet normal -1.0 0.0 0.0
outer loop
vertex 6.30996487567799 82.095017562161 43.6875
vertex 6.30996487567799 45.779982437839 36.5
vertex 6.30996487567799 45.779982437839 43.6875
endloop
endfacet
facet normal -1.0 0.0 0.0
outer loop
vertex 6.30996487567799 45.779982437839 36.5
vertex 6.30996487567799 82.095017562161 43.6875
vertex 6.30996487567799 82.095017562161 36.5
endloop
endfacet
facet normal 0.0 -1.0 0.0
outer loop
vertex 99.002535124322 45.779982437839 43.6875
vertex 6.30996487567799 45.779982437839 36.5
vertex 99.002535124322 45.779982437839 36.5
endloop
endfacet
facet normal 0.0 -1.0 0.0
outer loop
vertex 6.30996487567799 45.779982437839 36.5
vertex 99.002535124322 45.779982437839 43.6875
vertex 6.30996487567799 45.779982437839 43.6875
endloop
endfacet
facet normal 0.0 -1.0 0.0
outer loop
vertex 6.30996487567799 45.779982437839 43.6875
vertex 99.002535124322 45.779982437839 43.6875
vertex 52.65625 45.779982437839 77.1875
endloop
endfacet
facet normal 1.0 0.0 0.0
outer loop
vertex 99.002535124322 82.095017562161 36.5
vertex 99.002535124322 45.779982437839 43.6875
vertex 99.002535124322 45.779982437839 36.5
endloop
endfacet
facet normal 1.0 0.0 0.0
outer loop
vertex 99.002535124322 45.779982437839 43.6875
vertex 99.002535124322 82.095017562161 36.5
vertex 99.002535124322 82.095017562161 43.6875
endloop
endfacet
facet normal 0.0 -1.0 0.0
outer loop
vertex 60.2070836961221 48.436232437839 21.7427324842368
vertex 39.7070836961221 48.436232437839 2.4375
vertex 60.2070836961221 48.436232437839 2.4375
endloop
endfacet
facet normal 0.0 -1.0 0.0
outer loop
vertex 39.7070836961221 48.436232437839 2.4375
vertex 60.2070836961221 48.436232437839 21.7427324842368
vertex 39.7070836961221 48.436232437839 21.7427324842368
endloop
endfacet
facet normal 0.0 -1.0 0.0
outer loop
vertex 39.7070836961221 48.436232437839 21.7427324842368
vertex 60.2070836961221 48.436232437839 21.7427324842368
vertex 40.0563439766592 48.436232437839 24.3956276965377
endloop
endfacet
facet normal 0.0 -1.0 0.0
outer loop
vertex 40.0563439766592 48.436232437839 24.3956276965377
vertex 60.2070836961221 48.436232437839 21.7427324842368
vertex 59.8578234155851 48.436232437839 24.3956276965377
endloop
endfacet
facet normal 0.0 -1.0 0.0
outer loop
vertex 40.0563439766592 48.436232437839 24.3956276965377
vertex 59.8578234155851 48.436232437839 24.3956276965377
vertex 41.0803233073316 48.436232437839 26.8677324842368
endloop
endfacet
facet normal 0.0 -1.0 0.0
outer loop
vertex 41.0803233073316 48.436232437839 26.8677324842368
vertex 59.8578234155851 48.436232437839 24.3956276965377
vertex 58.8338440849126 48.436232437839 26.8677324842368
endloop
endfacet
facet normal 0.0 -1.0 0.0
outer loop
vertex 41.0803233073316 48.436232437839 26.8677324842368
vertex 58.8338440849126 48.436232437839 26.8677324842368
vertex 42.70923918896 48.436232437839 28.990576991399
endloop
endfacet
facet normal 0.0 -1.0 0.0
outer loop
vertex 42.70923918896 48.436232437839 28.990576991399
vertex 58.8338440849126 48.436232437839 26.8677324842368
vertex 57.2049282032842 48.436232437839 28.990576991399
endloop
endfacet
facet normal 0.0 -1.0 0.0
outer loop
vertex 42.70923918896 48.436232437839 28.990576991399
vertex 57.2049282032842 48.436232437839 28.990576991399
vertex 44.8320836961221 48.436232437839 30.6194928730273
endloop
endfacet
facet normal 0.0 -1.0 0.0
outer loop
vertex 44.8320836961221 48.436232437839 30.6194928730273
vertex 57.2049282032842 48.436232437839 28.990576991399
vertex 55.0820836961221 48.436232437839 30.6194928730273
endloop
endfacet
facet normal 0.0 -1.0 0.0
outer loop
vertex 44.8320836961221 48.436232437839 30.6194928730273
vertex 55.0820836961221 48.436232437839 30.6194928730273
vertex 47.3041884838213 48.436232437839 31.6434722036998
endloop
endfacet
facet normal 0.0 -1.0 0.0
outer loop
vertex 47.3041884838213 48.436232437839 31.6434722036998
vertex 55.0820836961221 48.436232437839 30.6194928730273
vertex 52.6099789084229 48.436232437839 31.6434722036998
endloop
endfacet
facet normal 0.0 -1.0 0.0
outer loop
vertex 47.3041884838213 48.436232437839 31.6434722036998
vertex 52.6099789084229 48.436232437839 31.6434722036998
vertex 49.9570836961221 48.436232437839 31.9927324842368
endloop
endfacet
facet normal 0.99144486137381 0.0 -0.130526192220052
outer loop
vertex 39.7070836961221 48.436232437839 21.7427324842368
vertex 40.0563439766592 45.779982437839 24.3956276965377
vertex 39.7070836961221 45.779982437839 21.7427324842368
endloop
endfacet
facet normal 0.965925826289069 0.0 -0.25881904510252
outer loop
vertex 40.0563439766592 45.779982437839 24.3956276965377
vertex 39.7070836961221 48.436232437839 21.7427324842368
vertex 40.0563439766592 48.436232437839 24.3956276965377
endloop
endfacet
facet normal 1.0 0.0 0.0
outer loop
vertex 39.7070836961221 48.436232437839 2.4375
vertex 39.7070836961221 45.779982437839 21.7427324842368
vertex 39.7070836961221 45.779982437839 2.4375
endloop
endfacet
facet normal 1.0 0.0 0.0
outer loop
vertex 39.7070836961221 45.779982437839 21.7427324842368
vertex 39.7070836961221 48.436232437839 2.4375
vertex 39.7070836961221 48.436232437839 21.7427324842368
endloop
endfacet
facet normal -1.0 0.0 0.0
outer loop
vertex 60.2070836961221 48.436232437839 21.7427324842368
vertex 60.2070836961221 45.779982437839 2.4375
vertex 60.2070836961221 45.779982437839 21.7427324842368
endloop
endfacet
facet normal -1.0 0.0 0.0
outer loop
vertex 60.2070836961221 45.779982437839 2.4375
vertex 60.2070836961221 48.436232437839 21.7427324842368
vertex 60.2070836961221 48.436232437839 2.4375
endloop
endfacet
facet normal -0.965925826289068 0.0 -0.258819045102521
outer loop
vertex 59.8578234155851 48.436232437839 24.3956276965377
vertex 60.2070836961221 45.779982437839 21.7427324842368
vertex 59.8578234155851 45.779982437839 24.3956276965377
endloop
endfacet
facet normal -0.99144486137381 0.0 -0.130526192220052
outer loop
vertex 60.2070836961221 45.779982437839 21.7427324842368
vertex 59.8578234155851 48.436232437839 24.3956276965377
vertex 60.2070836961221 48.436232437839 21.7427324842368
endloop
endfacet
facet normal -0.866025403784439 0.0 -0.499999999999999
outer loop
vertex 58.8338440849126 48.436232437839 26.8677324842368
vertex 59.8578234155851 45.779982437839 24.3956276965377
vertex 58.8338440849126 45.779982437839 26.8677324842368
endloop
endfacet
facet normal -0.965925826289068 0.0 -0.258819045102521
outer loop
vertex 59.8578234155851 45.779982437839 24.3956276965377
vertex 58.8338440849126 48.436232437839 26.8677324842368
vertex 59.8578234155851 48.436232437839 24.3956276965377
endloop
endfacet
facet normal -0.707106781186548 0.0 -0.707106781186547
outer loop
vertex 57.2049282032842 48.436232437839 28.990576991399
vertex 58.8338440849126 45.779982437839 26.8677324842368
vertex 57.2049282032842 45.779982437839 28.990576991399
endloop
endfacet
facet normal -0.866025403784439 0.0 -0.499999999999999
outer loop
vertex 58.8338440849126 45.779982437839 26.8677324842368
vertex 57.2049282032842 48.436232437839 28.990576991399
vertex 58.8338440849126 48.436232437839 26.8677324842368
endloop
endfacet
facet normal -0.707106781186548 0.0 -0.707106781186547
outer loop
vertex 57.2049282032842 48.436232437839 28.990576991399
vertex 55.0820836961221 45.779982437839 30.6194928730273
vertex 55.0820836961221 48.436232437839 30.6194928730273
endloop
endfacet
facet normal -0.499999999999999 0.0 -0.866025403784439
outer loop
vertex 55.0820836961221 45.779982437839 30.6194928730273
vertex 57.2049282032842 48.436232437839 28.990576991399
vertex 57.2049282032842 45.779982437839 28.990576991399
endloop
endfacet
facet normal -0.499999999999999 0.0 -0.866025403784439
outer loop
vertex 55.0820836961221 48.436232437839 30.6194928730273
vertex 52.6099789084229 45.779982437839 31.6434722036998
vertex 52.6099789084229 48.436232437839 31.6434722036998
endloop
endfacet
facet normal -0.25881904510252 0.0 -0.965925826289068
outer loop
vertex 52.6099789084229 45.779982437839 31.6434722036998
vertex 55.0820836961221 48.436232437839 30.6194928730273
vertex 55.0820836961221 45.779982437839 30.6194928730273
endloop
endfacet
facet normal -0.25881904510252 0.0 -0.965925826289068
outer loop
vertex 52.6099789084229 48.436232437839 31.6434722036998
vertex 49.9570836961221 45.779982437839 31.9927324842368
vertex 49.9570836961221 48.436232437839 31.9927324842368
endloop
endfacet
facet normal -3.65355505721523e-16 0.0 -1.0
outer loop
vertex 49.9570836961221 45.779982437839 31.9927324842368
vertex 52.6099789084229 48.436232437839 31.6434722036998
vertex 52.6099789084229 45.779982437839 31.6434722036998
endloop
endfacet
facet normal -3.65355505721523e-16 0.0 -1.0
outer loop
vertex 49.9570836961221 48.436232437839 31.9927324842368
vertex 47.3041884838213 45.779982437839 31.6434722036998
vertex 47.3041884838213 48.436232437839 31.6434722036998
endloop
endfacet
facet normal 0.258819045102521 0.0 -0.965925826289068
outer loop
vertex 47.3041884838213 45.779982437839 31.6434722036998
vertex 49.9570836961221 48.436232437839 31.9927324842368
vertex 49.9570836961221 45.779982437839 31.9927324842368
endloop
endfacet
facet normal 0.258819045102521 0.0 -0.965925826289068
outer loop
vertex 47.3041884838213 48.436232437839 31.6434722036998
vertex 44.8320836961221 45.779982437839 30.6194928730273
vertex 44.8320836961221 48.436232437839 30.6194928730273
endloop
endfacet
facet normal 0.500000000000001 0.0 -0.866025403784438
outer loop
vertex 44.8320836961221 45.779982437839 30.6194928730273
vertex 47.3041884838213 48.436232437839 31.6434722036998
vertex 47.3041884838213 45.779982437839 31.6434722036998
endloop
endfacet
facet normal 0.500000000000001 0.0 -0.866025403784438
outer loop
vertex 44.8320836961221 48.436232437839 30.6194928730273
vertex 42.70923918896 45.779982437839 28.990576991399
vertex 42.70923918896 48.436232437839 28.990576991399
endloop
endfacet
facet normal 0.707106781186548 0.0 -0.707106781186547
outer loop
vertex 42.70923918896 45.779982437839 28.990576991399
vertex 44.8320836961221 48.436232437839 30.6194928730273
vertex 44.8320836961221 45.779982437839 30.6194928730273
endloop
endfacet
facet normal 0.866025403784439 0.0 -0.499999999999999
outer loop
vertex 41.0803233073316 48.436232437839 26.8677324842368
vertex 42.70923918896 45.779982437839 28.990576991399
vertex 41.0803233073316 45.779982437839 26.8677324842368
endloop
endfacet
facet normal 0.707106781186548 0.0 -0.707106781186547
outer loop
vertex 42.70923918896 45.779982437839 28.990576991399
vertex 41.0803233073316 48.436232437839 26.8677324842368
vertex 42.70923918896 48.436232437839 28.990576991399
endloop
endfacet
facet normal 0.965925826289069 0.0 -0.25881904510252
outer loop
vertex 40.0563439766592 48.436232437839 24.3956276965377
vertex 41.0803233073316 45.779982437839 26.8677324842368
vertex 40.0563439766592 45.779982437839 24.3956276965377
endloop
endfacet
facet normal 0.866025403784439 0.0 -0.499999999999999
outer loop
vertex 41.0803233073316 45.779982437839 26.8677324842368
vertex 40.0563439766592 48.436232437839 24.3956276965377
vertex 41.0803233073316 48.436232437839 26.8677324842368
endloop
endfacet
facet normal 0.0 -1.0 0.0
outer loop
vertex 25.8961684712161 44.092482437839 35.4929194853067
vertex 17.5211684712161 44.092482437839 21.1804194853067
vertex 25.8961684712161 44.092482437839 21.1804194853067
endloop
endfacet
facet normal 0.0 -1.0 0.0
outer loop
vertex 17.5211684712161 44.092482437839 21.1804194853067
vertex 25.8961684712161 44.092482437839 35.4929194853067
vertex 17.5211684712161 44.092482437839 35.4929194853067
endloop
endfacet
facet normal 1.0 0.0 0.0
outer loop
vertex 25.8961684712161 45.779982437839 21.1804194853067
vertex 25.8961684712161 44.092482437839 35.4929194853067
vertex 25.8961684712161 44.092482437839 21.1804194853067
endloop
endfacet
facet normal 1.0 0.0 0.0
outer loop
vertex 25.8961684712161 44.092482437839 35.4929194853067
vertex 25.8961684712161 45.779982437839 21.1804194853067
vertex 25.8961684712161 45.779982437839 35.4929194853067
endloop
endfacet
facet normal 0.0 0.0 1.0
outer loop
vertex 25.8961684712161 44.092482437839 35.4929194853067
vertex 17.5211684712161 45.779982437839 35.4929194853067
vertex 17.5211684712161 44.092482437839 35.4929194853067
endloop
endfacet
facet normal 0.0 0.0 1.0
outer loop
vertex 17.5211684712161 45.779982437839 35.4929194853067
vertex 25.8961684712161 44.092482437839 35.4929194853067
vertex 25.8961684712161 45.779982437839 35.4929194853067
endloop
endfacet
facet normal -1.0 0.0 0.0
outer loop
vertex 17.5211684712161 45.779982437839 35.4929194853067
vertex 17.5211684712161 44.092482437839 21.1804194853067
vertex 17.5211684712161 44.092482437839 35.4929194853067
endloop
endfacet
facet normal -1.0 0.0 0.0
outer loop
vertex 17.5211684712161 44.092482437839 21.1804194853067
vertex 17.5211684712161 45.779982437839 35.4929194853067
vertex 17.5211684712161 45.779982437839 21.1804194853067
endloop
endfacet
facet normal 0.0 0.0 -1.0
outer loop
vertex 25.8961684712161 45.779982437839 21.1804194853067
vertex 17.5211684712161 44.092482437839 21.1804194853067
vertex 17.5211684712161 45.779982437839 21.1804194853067
endloop
endfacet
facet normal 0.0 0.0 -1.0
outer loop
vertex 17.5211684712161 44.092482437839 21.1804194853067
vertex 25.8961684712161 45.779982437839 21.1804194853067
vertex 25.8961684712161 44.092482437839 21.1804194853067
endloop
endfacet
facet normal 0.0 -1.0 0.0
outer loop
vertex 84.7085033172144 44.092482437839 35.4015599445967
vertex 76.3335033172144 44.092482437839 21.0890599445967
vertex 84.7085033172144 44.092482437839 21.0890599445967
endloop
endfacet
facet normal 0.0 -1.0 0.0
outer loop
vertex 76.3335033172144 44.092482437839 21.0890599445967
vertex 84.7085033172144 44.092482437839 35.4015599445967
vertex 76.3335033172144 44.092482437839 35.4015599445967
endloop
endfacet
facet normal 1.0 0.0 0.0
outer loop
vertex 84.7085033172144 45.779982437839 21.0890599445967
vertex 84.7085033172144 44.092482437839 35.4015599445967
vertex 84.7085033172144 44.092482437839 21.0890599445967
endloop
endfacet
facet normal 1.0 0.0 0.0
outer loop
vertex 84.7085033172144 44.092482437839 35.4015599445967
vertex 84.7085033172144 45.779982437839 21.0890599445967
vertex 84.7085033172144 45.779982437839 35.4015599445967
endloop
endfacet
facet normal 0.0 0.0 1.0
outer loop
vertex 84.7085033172144 44.092482437839 35.4015599445967
vertex 76.3335033172144 45.779982437839 35.4015599445967
vertex 76.3335033172144 44.092482437839 35.4015599445967
endloop
endfacet
facet normal 0.0 0.0 1.0
outer loop
vertex 76.3335033172144 45.779982437839 35.4015599445967
vertex 84.7085033172144 44.092482437839 35.4015599445967
vertex 84.7085033172144 45.779982437839 35.4015599445967
endloop
endfacet
facet normal -1.0 0.0 0.0
outer loop
vertex 76.3335033172144 45.779982437839 35.4015599445967
vertex 76.3335033172144 44.092482437839 21.0890599445967
vertex 76.3335033172144 44.092482437839 35.4015599445967
endloop
endfacet
facet normal -1.0 0.0 0.0
outer loop
vertex 76.3335033172144 44.092482437839 21.0890599445967
vertex 76.3335033172144 45.779982437839 35.4015599445967
vertex 76.3335033172144 45.779982437839 21.0890599445967
endloop
endfacet
facet normal 0.0 0.0 -1.0
outer loop
vertex 84.7085033172144 45.779982437839 21.0890599445967
vertex 76.3335033172144 44.092482437839 21.0890599445967
vertex 76.3335033172144 45.779982437839 21.0890599445967
endloop
endfacet
facet normal 0.0 0.0 -1.0
outer loop
vertex 76.3335033172144 44.092482437839 21.0890599445967
vertex 84.7085033172144 45.779982437839 21.0890599445967
vertex 84.7085033172144 44.092482437839 21.0890599445967
endloop
endfacet
facet normal -0.0 1.0 -0.0
outer loop
vertex 25.4202237943387 59.3231306107619 68.5632683570612
vertex 33.4202237943387 59.3231306107619 63.2833245917432
vertex 25.4202237943387 59.3231306107619 57.5007683570612
endloop
endfacet
facet normal -0.0 1.0 -0.0
outer loop
vertex 33.4202237943387 59.3231306107619 63.2833245917432
vertex 25.4202237943387 59.3231306107619 68.5632683570612
vertex 33.4202237943387 59.3231306107619 68.5632683570612
endloop
endfacet
facet normal 0.0 -1.0 0.0
outer loop
vertex 33.4202237943387 54.7606306107619 63.2833245917432
vertex 25.4202237943387 54.7606306107619 68.5632683570612
vertex 25.4202237943387 54.7606306107619 57.5007683570612
endloop
endfacet
facet normal 0.0 -1.0 0.0
outer loop
vertex 25.4202237943387 54.7606306107619 68.5632683570612
vertex 33.4202237943387 54.7606306107619 63.2833245917432
vertex 33.4202237943387 54.7606306107619 68.5632683570612
endloop
endfacet
facet normal 0.585808651252561 0.0 -0.810449396395392
outer loop
vertex 33.4202237943387 59.3231306107619 63.2833245917432
vertex 25.4202237943387 54.7606306107619 57.5007683570612
vertex 25.4202237943387 59.3231306107619 57.5007683570612
endloop
endfacet
facet normal 0.585808651252561 0.0 -0.810449396395392
outer loop
vertex 25.4202237943387 54.7606306107619 57.5007683570612
vertex 33.4202237943387 59.3231306107619 63.2833245917432
vertex 33.4202237943387 54.7606306107619 63.2833245917432
endloop
endfacet
facet normal -1.0 0.0 0.0
outer loop
vertex 25.4202237943387 59.3231306107619 68.5632683570612
vertex 25.4202237943387 54.7606306107619 57.5007683570612
vertex 25.4202237943387 54.7606306107619 68.5632683570612
endloop
endfacet
facet normal -1.0 0.0 0.0
outer loop
vertex 25.4202237943387 54.7606306107619 57.5007683570612
vertex 25.4202237943387 59.3231306107619 68.5632683570612
vertex 25.4202237943387 59.3231306107619 57.5007683570612
endloop
endfacet
facet normal 0.0 0.0 1.0
outer loop
vertex 33.4202237943387 54.7606306107619 68.5632683570612
vertex 25.4202237943387 59.3231306107619 68.5632683570612
vertex 25.4202237943387 54.7606306107619 68.5632683570612
endloop
endfacet
facet normal 0.0 0.0 1.0
outer loop
vertex 25.4202237943387 59.3231306107619 68.5632683570612
vertex 33.4202237943387 54.7606306107619 68.5632683570612
vertex 33.4202237943387 59.3231306107619 68.5632683570612
endloop
endfacet
facet normal 1.0 0.0 0.0
outer loop
vertex 33.4202237943387 59.3231306107619 63.2833245917432
vertex 33.4202237943387 54.7606306107619 68.5632683570612
vertex 33.4202237943387 54.7606306107619 63.2833245917432
endloop
endfacet
facet normal 1.0 0.0 0.0
outer loop
vertex 33.4202237943387 54.7606306107619 68.5632683570612
vertex 33.4202237943387 59.3231306107619 63.2833245917432
vertex 33.4202237943387 59.3231306107619 68.5632683570612
endloop
endfacet
endsolid toyhouse
